<svg width="49" height="158" viewBox="0 0 49 158" fill="none" xmlns="http://www.w3.org/2000/svg">
<path fill-rule="evenodd" clip-rule="evenodd" d="M10.8689 0.493885C0.805597 16.5429 -1.7736 39.0602 1.10265 62.2872C5.40436 96.9908 21.8589 133.266 43.2813 151.738C43.7273 152.113 44.3965 152.062 44.7716 151.626C45.1568 151.18 45.1062 150.521 44.6601 150.136C23.5723 131.948 7.43203 96.2 3.20434 62.0236C0.388912 39.3238 2.81903 17.3033 12.6634 1.61923C12.9777 1.12245 12.8256 0.473652 12.3289 0.159363C11.8422 -0.144788 11.1832 -0.00289529 10.8689 0.493885Z" fill="url(#paint0_linear_254_3365)"/>
<path fill-rule="evenodd" clip-rule="evenodd" d="M43.7675 151.887C31.9056 140.553 22.6391 129.401 6.45825 122.861C5.91078 122.648 5.29235 122.902 5.07945 123.449C4.8564 123.987 5.12001 124.605 5.65734 124.818C23.4603 132.016 32.7268 144.932 46.5657 157.382C47.3159 158.052 47.9445 157.636 48.0864 157.524C48.2993 157.362 48.5832 157.038 48.4818 156.47C48.4616 156.359 48.3905 156.146 48.2486 155.862C47.9647 155.324 47.2956 154.28 47.0421 153.783C46.3223 152.344 45.6431 150.894 44.9233 149.454C42.8652 145.338 40.8577 141.212 39.1545 136.944C32.7572 120.986 27.4245 107.978 34.0347 91.4527C34.2577 90.9052 33.994 90.2968 33.4466 90.0738C32.9092 89.8609 32.2908 90.1245 32.0779 90.6619C25.2345 107.755 30.5775 121.229 37.1877 137.734C38.9213 142.053 40.949 146.24 43.0274 150.397C43.2808 150.894 43.5242 151.391 43.7675 151.887Z" fill="url(#paint1_linear_254_3365)"/>
<defs>
<linearGradient id="paint0_linear_254_3365" x1="22.5153" y1="0" x2="22.5153" y2="151.989" gradientUnits="userSpaceOnUse">
<stop stop-color="#5728AA"/>
<stop offset="1" stop-color="#0790C0"/>
</linearGradient>
<linearGradient id="paint1_linear_254_3365" x1="26.7515" y1="90" x2="26.7515" y2="157.754" gradientUnits="userSpaceOnUse">
<stop stop-color="#5728AA"/>
<stop offset="1" stop-color="#0790C0"/>
</linearGradient>
</defs>
</svg>
