<svg width="181" height="181" viewBox="0 0 181 181" fill="none" xmlns="http://www.w3.org/2000/svg">
<path fill-rule="evenodd" clip-rule="evenodd" d="M62.3476 88.7927C57.3724 88.8312 52.189 87.4121 47.0565 84.0503C31.1797 73.6503 28.0048 61.0723 31.5952 49.0153C36.8387 31.4102 56.7163 14.9536 71.2494 8.58013C71.9371 8.27755 72.9314 8.54104 73.4677 9.16412C74.0079 9.78869 73.8886 10.5402 73.2009 10.8428C59.0945 17.0279 39.7751 32.9805 34.6846 50.0659C31.3884 61.1369 34.1552 72.7041 48.7389 82.2549C53.0774 85.0995 57.4536 86.286 61.6626 86.2623C61.0853 84.0245 60.5934 81.8166 60.19 79.6431C59.0784 73.6432 59.8234 58.4716 65.3248 49.2374C69.2737 42.6146 75.658 39.0469 85.085 42.9168C90.3245 45.0686 93.2152 48.9439 94.0739 53.6586C95.2593 60.1406 92.5091 68.2998 87.2648 75.1053C82.8998 80.7721 76.8235 85.495 69.9877 87.5943C68.4835 88.0529 66.9457 88.3925 65.3796 88.5891C74.1141 119.631 98.9431 155.122 129.717 177.968C130.417 178.49 130.569 179.282 130.047 179.739C129.528 180.198 128.537 180.144 127.836 179.625C96.5619 156.405 71.3029 120.371 62.3476 88.7927ZM64.6946 86.036C64.1578 83.933 63.6989 81.857 63.3207 79.8122C62.2578 74.0629 62.9718 59.5291 68.2435 50.6818C71.4776 45.2518 76.4188 41.9285 84.1452 45.1C88.2021 46.7673 90.2751 49.8331 90.9454 53.4838C91.6774 57.4995 90.734 62.1873 88.5979 66.7469C85.355 73.6694 79.3515 80.2897 72.0204 83.7795C69.6989 84.8861 67.2406 85.6727 64.6946 86.036Z" fill="url(#paint0_linear_254_3360)"/>
<path fill-rule="evenodd" clip-rule="evenodd" d="M116.564 131.138C114.575 145.357 120.896 163.772 129.784 178.274C130.193 178.94 129.897 179.633 129.126 179.82C128.356 180.007 127.396 179.618 126.988 178.952C117.821 163.997 111.369 145.007 113.418 130.348C113.509 129.692 114.288 129.335 115.159 129.553C116.025 129.77 116.655 130.481 116.564 131.138Z" fill="url(#paint1_linear_254_3360)"/>
<path fill-rule="evenodd" clip-rule="evenodd" d="M126.704 179.108C115.688 168.554 95.8342 159.983 80.0753 157.05C79.201 156.888 78.5049 156.209 78.5274 155.536C78.5461 154.861 79.2683 154.446 80.1426 154.609C96.6518 157.681 117.418 166.713 128.96 177.77C129.573 178.355 129.563 179.133 128.942 179.503C128.317 179.872 127.315 179.696 126.704 179.108Z" fill="url(#paint2_linear_254_3360)"/>
<defs>
<linearGradient id="paint0_linear_254_3360" x1="56.9697" y1="5.75319" x2="93.9802" y2="209.947" gradientUnits="userSpaceOnUse">
<stop stop-color="#5728AA"/>
<stop offset="1" stop-color="#0790C0"/>
</linearGradient>
<linearGradient id="paint1_linear_254_3360" x1="115.367" y1="130.593" x2="132.046" y2="186.126" gradientUnits="userSpaceOnUse">
<stop stop-color="#5728AA"/>
<stop offset="1" stop-color="#0790C0"/>
</linearGradient>
<linearGradient id="paint2_linear_254_3360" x1="82.6117" y1="153.885" x2="78.7682" y2="167.049" gradientUnits="userSpaceOnUse">
<stop stop-color="#5728AA"/>
<stop offset="1" stop-color="#0790C0"/>
</linearGradient>
</defs>
</svg>
