<svg width="139" height="140" viewBox="0 0 139 140" fill="none" xmlns="http://www.w3.org/2000/svg">
<path fill-rule="evenodd" clip-rule="evenodd" d="M118.865 4.26692C117.986 19.6504 110.634 35.2551 100.019 49.7042C83.9864 71.5249 60.508 90.7168 40.346 102.595C27.6748 110.061 17.6187 111.362 4.35278 116.209C3.81555 116.405 3.43222 116.974 3.49691 117.481C3.56009 117.986 4.04923 118.239 4.58494 118.04C18.0062 113.138 28.1743 111.784 40.9941 104.231C61.437 92.1873 85.2353 72.7167 101.493 50.5905C112.402 35.7431 119.916 19.6975 120.82 3.88817C120.851 3.35548 120.439 3.00831 119.899 3.1128C119.359 3.2173 118.895 3.73423 118.865 4.26692Z" fill="url(#paint0_linear_254_3372)"/>
<path fill-rule="evenodd" clip-rule="evenodd" d="M1.76972 119.6C1.81759 119.585 2.13574 119.479 2.40427 119.418C3.5178 119.157 5.46378 118.873 7.90338 118.661C16.0854 117.958 29.792 118.073 36.242 123.086C36.6142 123.375 37.2334 123.236 37.6259 122.776C38.0184 122.317 38.0373 121.71 37.6651 121.421C30.954 116.205 16.7391 115.971 8.22564 116.704C7.08524 116.803 6.0457 116.916 5.1416 117.038C7.62475 115.203 10.1351 113.426 12.6654 111.669C19.9509 106.613 25.5622 100.943 30.7809 93.6557C31.1305 93.1695 31.0791 92.5793 30.6665 92.3435C30.2558 92.1058 29.6358 92.3099 29.2877 92.7977C24.2636 99.8107 18.8631 105.273 11.851 110.141C8.54474 112.437 5.2682 114.771 2.04556 117.213C1.72481 117.456 0.896125 118.095 0.789794 118.2C0.182875 118.797 0.417661 119.324 0.476123 119.436C0.503823 119.49 0.89368 120.134 1.76972 119.6ZM1.15453 117.946C1.13054 117.961 1.10499 117.975 1.07905 117.992C1.09958 117.977 1.12513 117.963 1.15453 117.946Z" fill="url(#paint1_linear_254_3372)"/>
<defs>
<linearGradient id="paint0_linear_254_3372" x1="126.886" y1="9.47937" x2="11.9898" y2="126.075" gradientUnits="userSpaceOnUse">
<stop stop-color="#5728AA"/>
<stop offset="1" stop-color="#0790C0"/>
</linearGradient>
<linearGradient id="paint1_linear_254_3372" x1="38.9408" y1="100.466" x2="10.4887" y2="129.339" gradientUnits="userSpaceOnUse">
<stop stop-color="#5728AA"/>
<stop offset="1" stop-color="#0790C0"/>
</linearGradient>
</defs>
</svg>
