<svg width="127" height="128" viewBox="0 0 127 128" fill="none" xmlns="http://www.w3.org/2000/svg">
<path d="M2 55.0132L20.0767 67.5288M2 55.0132L19.6375 43.1833C19.9029 43.0052 20.2504 43.0052 20.5159 43.1833L38.1534 55.0132M2 55.0132V73.1711C2 73.4333 2.13203 73.6781 2.35162 73.823L20.0767 85.5199M20.0767 67.5288L38.1534 55.0132M20.0767 67.5288V85.5199M38.1534 55.0132V70.071M20.0767 85.5199L30.4904 78.4799M28.5256 69.6799L49.5495 84.9332M44.4409 94.5155L63.3035 106.836M44.4409 94.5155L62.8749 82.6665C63.1356 82.499 63.4709 82.4998 63.7308 82.6686L81.9696 94.5155M44.4409 94.5155V112.874C44.4409 113.133 44.5702 113.376 44.7862 113.522L63.3035 126M63.3035 106.836L81.9696 94.5155M63.3035 106.836V126M81.9696 94.5155V112.876C81.9696 113.134 81.8416 113.376 81.6275 113.522L63.3035 126M86.8818 70.2665V54.4265M86.8818 54.4265L106.53 67.5288M86.8818 54.4265L106.103 42.5657C106.364 42.4049 106.694 42.4096 106.95 42.5775L125 54.4265M106.53 67.5288L125 54.4265M106.53 67.5288V85.5199M125 54.4265V73.1661C125 73.4311 124.865 73.678 124.642 73.8223L106.53 85.5199M106.53 85.5199L94.9377 78.4799M76.468 84.7377L97.6885 70.2665M33.0447 45.2354L55.0511 29.7864M44.4409 29.7864V15.1197M44.4409 15.1197L63.5 27.6353M44.4409 15.1197L63.0417 2.14171C63.316 1.95032 63.6821 1.95302 63.9535 2.14845L81.9696 15.1197M63.5 27.6353L81.9696 15.1197M63.5 27.6353V45.2354M81.9696 15.1197V29.7864M63.5 45.2354L52.1038 38.5865M63.5 45.2354L74.1102 38.5865M71.9489 29.7864L93.1693 45.0398" stroke="url(#paint0_linear_760_2774)" stroke-width="3" stroke-linecap="round"/>
<defs>
<linearGradient id="paint0_linear_760_2774" x1="63.5" y1="2" x2="63.5" y2="126" gradientUnits="userSpaceOnUse">
<stop stop-color="#5728AA"/>
<stop offset="0.651044" stop-color="#236BB8"/>
<stop offset="1" stop-color="#0790C0"/>
</linearGradient>
</defs>
</svg>
