<svg width="424" height="410" viewBox="0 0 424 410" fill="none" xmlns="http://www.w3.org/2000/svg">
<path d="M294.022 304.423C297.233 308.739 303.309 309.769 307.538 306.445C330.156 288.659 345.354 265.946 354.506 237.79C364.669 206.526 364.377 172.622 353.674 141.181C342.971 109.739 322.436 82.4612 295.159 63.4522C270.828 46.4959 247.075 39.202 218.206 36.065C212.429 35.4374 207.486 40.0474 207.486 45.8579L207.486 127.361C207.486 133.008 212.263 137.527 217.634 139.273C224.313 141.443 230.724 145.503 236.381 149.445C244.864 155.357 251.249 163.839 254.578 173.617C257.906 183.395 259.842 194.89 256.681 204.612C254.563 211.127 251.384 218.308 246.995 224.073C243.561 228.582 242.427 235.085 245.81 239.632L294.022 304.423Z" fill="#1652F0"/>
<path d="M63.9061 156.759C58.5854 155.278 53.0371 158.387 51.9117 163.794C46.1391 191.527 48.274 220.401 58.1767 247.085C69.242 276.902 89.4409 302.464 115.892 320.123C142.343 337.783 173.696 346.638 205.477 345.425C233.954 344.339 262.804 337.534 286.501 322.014C291.084 319.013 291.854 312.755 288.523 308.405L239.857 244.853C236.472 240.433 230.067 239.689 224.836 241.592C217.529 244.25 209.061 245.057 201.659 245.339C190.962 245.747 182.643 242.767 173.739 236.823C164.836 230.879 157.538 222.181 153.814 212.144C151.264 205.274 149.431 198.017 149.449 190.815C149.462 185.292 146.451 179.731 141.13 178.251L63.9061 156.759Z" fill="#7295F0"/>
<path d="M113.337 78.7002C110.035 74.2801 103.748 73.3431 99.595 76.9747C81.1888 93.0678 67.3009 114.343 58.5199 137.289C56.5047 142.555 59.6198 148.28 65.0462 149.812L141.78 171.471C146.984 172.94 152.27 169.933 154.575 165.041C155.938 162.149 157.526 159.485 159.477 157.016C162.905 152.678 163.979 146.489 160.671 142.06L113.337 78.7002Z" fill="#C4D4FF"/>
<path d="M200.083 45.9432C199.912 40.4582 195.347 36.1004 189.881 36.5875C165.521 38.7583 142.07 46.9173 121.624 60.3351C117.006 63.3652 116.157 69.6686 119.491 74.0716L166.86 136.627C170.194 141.03 176.513 141.779 181.777 140.108C185.308 138.986 189.056 138.391 192.86 138.056C198.397 137.568 202.797 133.063 202.624 127.508L200.083 45.9432Z" fill="#ECEEF3"/>
</svg>
