<svg width="490" height="309" viewBox="0 0 490 309" fill="none" xmlns="http://www.w3.org/2000/svg">
<g clip-path="url(#clip0_507_2610)">
<path d="M449.074 251.846C453.187 251.846 456.536 248.51 456.385 244.399C456.169 238.519 455.697 232.651 454.969 226.81C454.464 222.751 450.662 219.998 446.62 220.621V220.621C442.536 221.251 439.761 225.085 440.258 229.188C440.87 234.241 441.277 239.315 441.478 244.4C441.641 248.51 444.96 251.846 449.074 251.846V251.846Z" fill="#4DD09A"/>
<path d="M375.934 97.1419C378.912 93.7279 378.49 88.5158 374.881 85.7774C352.782 69.0096 327.48 56.6545 300.436 49.4279C296.232 48.3046 291.993 50.9374 290.966 55.1658V55.1658C289.92 59.4737 292.604 63.7897 296.882 64.9515C321.493 71.635 344.523 82.9259 364.675 98.1884C368.141 100.814 373.076 100.419 375.934 97.1419V97.1419Z" fill="#7268FF"/>
<path d="M284.914 53.2114C285.957 48.4194 282.919 43.67 278.087 42.8304C250.966 38.1176 223.184 38.7132 196.29 44.5838C191.499 45.6299 188.667 50.5059 189.915 55.2491V55.2491C191.162 59.9876 196.01 62.7983 200.801 61.7712C224.983 56.5873 249.935 56.0523 274.318 60.1949C279.148 61.0157 283.871 57.9993 284.914 53.2114V53.2114Z" fill="#D3AAFF"/>
<path d="M184.312 59.6019C183.039 54.7241 178.072 51.7585 173.236 53.1798C158.062 57.6389 143.446 63.7416 129.663 71.3738C125.126 73.8859 123.805 79.7193 126.61 84.0815V84.0815C129.33 88.3136 134.924 89.5739 139.331 87.1467C151.486 80.4526 164.345 75.0611 177.686 71.0661C182.593 69.5965 185.605 64.5589 184.312 59.6019V59.6019Z" fill="#EE8EB0"/>
<path d="M124.133 89.5738C121.2 85.4828 115.515 84.4814 111.501 87.5192C86.8379 106.186 66.6497 130.001 52.4231 157.285C38.2541 184.458 30.3841 214.332 29.3261 244.767C29.147 249.92 33.3941 254.056 38.5499 254.001V254.001C43.7085 253.946 47.8207 249.715 48.023 244.56C49.1007 217.104 56.26 190.168 69.0472 165.645C81.8449 141.101 99.9345 119.637 122.014 102.723C126.108 99.5876 127.137 93.7647 124.133 89.5738V89.5738Z" fill="#FF5757"/>
<path d="M400.714 253.017C408.998 253.017 415.785 246.287 415.032 238.037C411.45 198.763 393.867 161.77 365.087 133.667C332.672 102.013 288.707 84.2305 242.865 84.2305C197.022 84.2305 153.057 102.013 120.642 133.667C91.8623 161.77 74.2796 198.763 70.6973 238.037C69.9448 246.287 76.7314 253.017 85.0156 253.017L242.865 253.017H400.714Z" fill="white"/>
<path d="M443.938 214.749C447.874 214.096 450.533 210.354 449.7 206.452C445.375 186.192 437.934 166.677 427.628 148.564C425.718 145.207 421.429 144.135 418.088 146.071V146.071C414.621 148.081 413.505 152.546 415.472 156.037C424.81 172.617 431.581 190.444 435.566 208.941C436.395 212.788 440.057 215.394 443.938 214.749V214.749Z" fill="#3AA7A3"/>
<path d="M414.301 139.119C418.086 136.869 419.306 131.945 416.852 128.289C409.705 117.64 401.572 107.661 392.558 98.4779C389.561 95.4246 384.658 95.5255 381.662 98.5793V98.5793C378.587 101.712 378.693 106.747 381.754 109.893C389.771 118.133 397.025 127.059 403.43 136.564C405.835 140.133 410.601 141.318 414.301 139.119V139.119Z" fill="#3972DB"/>
<path d="M245.76 64.1172C246.145 63.4505 247.107 63.4505 247.492 64.1172L258.516 83.2116C258.901 83.8783 258.42 84.7116 257.65 84.7116H235.602C234.832 84.7116 234.351 83.8783 234.736 83.2116L245.76 64.1172Z" fill="#9A9A9A"/>
</g>
<defs>
<clipPath id="clip0_507_2610">
<rect width="490" height="309" fill="white"/>
</clipPath>
</defs>
</svg>
