<svg width="293" height="335" viewBox="0 0 293 335" fill="none" xmlns="http://www.w3.org/2000/svg">
<circle cx="152.367" cy="146.311" r="116.039" fill="white"/>
<path fill-rule="evenodd" clip-rule="evenodd" d="M292.62 146.31C292.62 227.114 227.114 292.62 146.31 292.62C65.505 292.62 0 227.114 0 146.31C0 65.505 65.505 0 146.31 0C227.114 0 292.62 65.505 292.62 146.31ZM135.698 52.4074C134.005 52.554 132.33 52.7547 130.675 53.009C117.203 55.0785 104.834 60.7566 95.7573 70.0833C86.5851 79.5076 81.1975 92.2399 81.1975 107.421C81.1975 123.428 88.5404 135.482 98.6182 144.705C108.445 153.699 121.218 160.336 133.011 165.918C136.082 167.372 139.062 168.745 141.935 170.069H141.935L141.936 170.069C150.582 174.053 158.249 177.586 164.434 181.49C172.853 186.804 175.199 190.804 175.199 194.191C175.199 204.599 166.792 213.859 150.224 216.379C147.183 216.842 143.932 217.048 140.518 216.967C123.531 215.674 105.61 209.316 90.623 196.518C87.0898 193.501 81.7799 193.919 78.7628 197.452C77.3454 199.113 76.6861 201.165 76.7522 203.187C76.6676 205.74 77.7424 208.3 79.8854 210.025C99.6017 225.894 120.976 233.266 139.818 233.782C149.922 234.494 159.77 233.709 168.815 231.623C182.526 228.462 194.933 222.187 203.604 212.987C212.435 203.618 217.213 191.335 215.308 177.31C211.603 150.025 189.636 136.938 170.335 127.74C166.308 125.822 162.483 124.107 158.814 122.462H158.814L158.814 122.462C153.045 119.876 147.663 117.463 142.493 114.703C134.237 110.295 128.67 106.023 125.708 101.184C120.582 92.8122 121.255 85.5766 124.199 80.1183C127.133 74.6786 132.562 70.595 138.288 69.082C158.479 67.7117 182.81 75.9323 201.928 96.4668C205.094 99.8671 210.417 100.057 213.817 96.8915C217.218 93.7255 217.408 88.4024 214.242 85.0021C192.433 61.5774 164.149 51.1066 139.134 52.1848C138.249 52.0644 137.329 52.0844 136.403 52.2637C136.168 52.3091 135.933 52.3572 135.698 52.4074ZM191.313 201.498C191.329 201.481 191.345 201.464 191.36 201.448C197.06 195.4 199.791 188.076 198.637 179.574C196.224 161.804 182.314 152.086 163.097 142.929C159.865 141.389 156.371 139.817 152.812 138.217C146.57 135.41 140.132 132.515 134.569 129.545C125.635 124.775 116.74 118.758 111.359 109.969C106.069 101.33 104.364 92.6117 105.368 84.6207C100.801 90.4723 98.0224 98.0344 98.0224 107.42C98.0224 117.555 102.43 125.386 109.977 132.294C117.776 139.431 128.503 145.17 140.21 150.711C142.802 151.938 145.471 153.167 148.159 154.405L148.162 154.406H148.162C157.077 158.51 166.203 162.711 173.414 167.262C182.619 173.072 192.024 181.449 192.024 194.191C192.024 196.738 191.779 199.175 191.313 201.498Z" fill="url(#paint0_radial_612_2594)"/>
<path d="M146.564 304.352C107.736 304.352 67.8965 287.707 45.7973 275.597C39.2294 271.998 30.9848 270.44 26.7203 276.633C22.1168 283.32 18.8562 293.871 16.6463 304.749C13.3424 321.015 26.6275 335 43.0807 335H252.053C268.207 335 281.699 321.383 277.814 305.558C275.341 295.483 271.897 287.736 268.346 282.005C262.78 273.024 251.345 273.32 242.019 278.179C219.45 289.941 182.694 304.352 146.564 304.352Z" fill="white"/>
<defs>
<radialGradient id="paint0_radial_612_2594" cx="0" cy="0" r="1" gradientUnits="userSpaceOnUse" gradientTransform="translate(317.388 -13.0054) rotate(139.755) scale(368.406)">
<stop stop-color="#0790C0"/>
<stop offset="1" stop-color="#5728AA"/>
</radialGradient>
</defs>
</svg>
