<svg width="1440" height="1024" viewBox="0 0 1440 1024" fill="none" xmlns="http://www.w3.org/2000/svg">
<path d="M1591.98 -143.044C1484.81 -72.3578 1339.11 -67.876 1207.16 -12.8326C1071.47 44.0007 1082.01 70.6985 899.234 148.502C783.719 197.763 414.238 223.049 290.422 257.858C141.51 299.938 78.7318 363.249 -70.4051 392.656C-159.399 410.147 -247.905 427.484 -336.898 444.975" stroke="url(#paint0_linear_27_135)" stroke-miterlimit="10"/>
<path d="M1598.03 -123.777C1526.91 -76.7546 1438.04 -58.8895 1348.07 -35.9543C1303.33 -24.5634 1258.46 -11.8969 1214.8 6.34854C1079.49 62.6541 1087.58 90.12 906.715 165.472C870.639 180.512 811.65 192.682 743.785 203.943C599.823 227.612 417.191 247.815 320.284 270.876C312.29 272.772 304.844 274.702 297.944 276.665C176.318 311.608 111.083 360.274 9.68794 392.968C-12.7291 400.22 -37.0239 406.623 -63.802 411.957C-152.737 429.635 -241.789 446.939 -330.783 464.429" stroke="url(#paint1_linear_27_135)" stroke-miterlimit="10"/>
<path d="M1604.09 -104.508C1533.4 -57.8268 1445.07 -39.9286 1355.16 -16.8063C1310.91 -5.56902 1266.04 7.09807 1222.32 25.1564C1087.87 80.7807 1093.09 109.355 914.08 182.068C877.887 196.734 818.838 208.717 751.402 219.637C606.776 242.899 425.768 264.852 327.63 289.122C319.636 291.019 312.19 292.948 305.349 295.098C184.447 330.636 118.057 379.048 16.6626 411.742C-5.75445 418.994 -29.9904 425.585 -56.7685 430.919C-146.133 448.937 -235.185 466.24 -324.237 483.544" stroke="url(#paint2_linear_27_135)" stroke-miterlimit="10"/>
<path d="M1610.15 -85.2402C1539.46 -38.5589 1451.68 -20.627 1362.26 2.34171C1318.01 13.579 1273.68 26.2794 1229.9 44.1507C1096.37 99.2807 1098.6 128.589 921.561 199.039C884.821 213.671 826.085 224.939 759.079 235.518C613.299 258.526 434.403 282.076 335.036 307.555C327.1 309.639 319.654 311.568 312.754 313.531C193.005 349.323 125.463 397.481 23.1497 430.669C0.732598 437.921 -23.5034 444.512 -50.2815 449.846C-139.587 468.051 -228.699 485.168 -318.67 502.966" stroke="url(#paint3_linear_27_135)" stroke-miterlimit="10"/>
<path d="M1616.26 -65.7851C1546 -19.4444 1458.34 -1.1384 1369.35 21.4897C1325.65 32.7604 1280.77 45.4273 1237.48 63.145C1104.81 117.594 1104.11 147.824 928.985 215.821C891.639 230.233 833.332 241.161 766.755 251.4C620.311 273.999 443.038 299.301 342.44 325.989C334.505 328.072 327.058 330.002 320.217 332.152C201.192 368.538 132.497 416.442 30.1836 449.63C7.2779 457.036 -16.9573 463.626 -43.6767 469.147C-133.412 487.693 -222.524 504.81 -312.554 522.421" stroke="url(#paint4_linear_27_135)" stroke-miterlimit="10"/>
<path d="M1622.32 -46.5169C1552.49 -0.516897 1464.88 17.9762 1376.44 40.6378C1332.74 51.9086 1288.41 64.6087 1245.06 82.1393C1113.25 135.907 1109.56 166.871 936.408 232.605C898.513 246.983 840.519 257.196 774.373 267.094C627.263 289.286 451.615 316.338 349.786 344.235C341.85 346.318 334.463 348.435 327.622 350.585C209.262 387.379 139.412 435.029 37.158 468.404C14.2523 475.81 -9.98293 482.4 -36.7023 487.921C-126.868 506.808 -216.038 523.737 -306.067 541.348" stroke="url(#paint5_linear_27_135)" stroke-miterlimit="10"/>
<path d="M1628.38 -27.2489C1559.03 18.5975 1471.98 37.1241 1383.53 59.7857C1339.83 71.0564 1295.99 83.6029 1252.65 101.134C1121.75 154.407 1114.58 186.26 943.83 249.388C905.819 263.392 847.707 273.23 782.049 282.975C634.275 304.759 460.251 333.562 357.191 362.668C349.315 364.938 341.927 367.055 335.086 369.205C217.391 406.406 146.446 453.99 44.192 487.365C21.2863 494.771 -3.43801 501.515 -30.0985 507.223C-120.205 526.297 -209.434 543.039 -300.441 560.957" stroke="url(#paint6_linear_27_135)" stroke-miterlimit="10"/>
<path d="M1634.43 -7.98074C1565.03 37.6786 1478.58 56.4256 1390.63 78.9335C1347.41 90.0507 1303.08 102.751 1260.23 120.128C1130.13 172.533 1120.03 205.307 951.254 266.171C912.695 280.141 854.954 289.452 789.667 298.669C641.227 320.046 469.257 350.258 363.99 380.881C356.113 383.151 348.725 385.268 341.885 387.418C224.913 425.214 152.815 472.543 50.0722 506.072C26.6779 513.631 2.50097 520.409 -24.2184 525.93C-114.814 545.157 -203.983 562.086 -294.99 580.004" stroke="url(#paint7_linear_27_135)" stroke-miterlimit="10"/>
<path d="M1640.49 11.2872C1571.58 56.7929 1485.13 75.5401 1397.72 98.0815C1354.5 109.199 1310.72 121.933 1267.81 139.123C1138.63 191.033 1124.99 224.508 958.677 282.954C919.511 296.704 862.142 305.487 797.343 314.55C648.238 335.519 477.892 367.482 371.394 399.314C363.518 401.584 356.189 403.888 349.348 406.038C233.531 444.088 159.791 491.316 57.1067 525.033C33.7713 532.779 9.53557 539.369 -17.125 545.077C-107.661 564.492 -197.38 581.388 -288.386 599.306" stroke="url(#paint8_linear_27_135)" stroke-miterlimit="10"/>
<path d="M1646.6 30.7423C1578.12 75.9074 1492.28 94.8751 1404.87 117.417C1362.14 128.38 1318.36 141.114 1275.45 158.304C1147.13 209.533 1130.01 243.896 966.647 299.77C926.875 313.3 869.876 321.555 805.566 330.465C655.249 350.993 487.075 384.74 379.346 417.78C371.529 420.238 364.141 422.355 357.359 424.692C242.206 463.149 167.371 510.311 64.687 544.027C41.3515 551.774 16.6279 558.517 -9.97383 564.412C-100.94 584.168 -190.658 601.064 -281.723 618.794" stroke="url(#paint9_linear_27_135)" stroke-miterlimit="10"/>
<path d="M1652.66 50.0105C1584.61 94.8349 1498.82 113.99 1411.96 136.565C1369.3 147.715 1326 160.295 1283.03 177.298C1155.57 227.846 1135.41 262.757 974.071 316.553C933.751 330.049 877.064 337.59 813.184 346.159C662.201 366.28 496.081 401.436 386.692 436.027C378.875 438.484 371.545 440.788 364.764 443.125C250.276 481.99 174.777 528.744 71.6627 562.801C48.3273 570.547 23.6025 577.291 -2.99927 583.187C-93.9066 603.129 -183.683 619.838 -275.726 637.876" stroke="url(#paint10_linear_27_135)" stroke-miterlimit="10"/>
<path d="M1658.72 69.2784C1591.15 113.949 1505.43 133.291 1419.06 155.713C1376.39 166.863 1333.1 179.443 1290.61 196.292C1164.01 246.159 1140.31 281.771 981.493 333.336C940.568 346.612 884.311 353.812 820.86 362.04C669.213 381.753 504.658 418.473 394.098 454.46C386.28 456.917 378.951 459.221 372.169 461.558C258.346 500.831 181.751 547.518 78.1487 581.728C54.3247 589.628 29.6598 596.559 3.54672 602.301C-87.7904 622.584 -177.567 639.293 -269.61 657.331" stroke="url(#paint11_linear_27_135)" stroke-miterlimit="10"/>
<path d="M1664.77 88.5461C1597.15 133.03 1512.03 152.592 1426.15 174.86C1383.97 185.857 1340.68 198.437 1298.13 215.1C1171.96 264.626 1144.66 300.751 988.857 349.932C947.326 362.987 891.44 369.659 828.419 377.547C676.107 396.852 513.176 435.323 401.385 472.518C393.626 475.163 386.297 477.467 379.515 479.804C266.846 519.331 188.667 566.105 85.0647 600.315C61.2406 608.215 36.5753 615.146 9.97357 621.041C-81.7934 641.664 -171.628 658.186 -263.671 676.224" stroke="url(#paint12_linear_27_135)" stroke-miterlimit="10"/>
<path d="M1670.83 107.815C1603.7 152.145 1519.06 171.554 1433.24 194.008C1391.06 205.005 1348.32 217.619 1305.71 234.094C1180.4 282.939 1149.51 319.578 996.281 366.715C954.202 379.737 898.139 385.848 836.095 393.429C683.059 412.139 522.242 452.207 408.79 490.952C401.031 493.596 393.761 496.087 386.979 498.424C275.034 538.546 195.643 584.879 92.0993 619.276C68.2752 627.176 43.6087 634.107 17.0658 640.189C-74.6424 661 -164.536 677.335 -257.556 695.68" stroke="url(#paint13_linear_27_135)" stroke-miterlimit="10"/>
<path d="M1676.95 127.269C1610.24 171.259 1525.73 191.042 1440.39 213.343C1398.7 224.186 1355.47 236.954 1313.35 253.275C1188.9 301.439 1154.47 338.779 1003.76 383.685C961.077 396.486 905.385 402.07 843.772 409.309C690.071 427.612 530.817 469.244 416.194 509.385C408.435 512.029 401.165 514.52 394.442 517.044C283.161 557.574 202.677 603.839 99.1329 638.236C75.3088 646.136 50.1544 653.221 23.6115 659.303C-68.5265 680.454 -158.42 696.789 -251.499 714.947" stroke="url(#paint14_linear_27_135)" stroke-miterlimit="10"/>
<path d="M1683 146.538C1616.73 190.187 1532.33 210.344 1447.48 232.491C1405.8 243.335 1363.11 256.136 1320.94 272.27C1197.4 319.939 1159.31 357.606 1011.19 400.468C967.895 413.048 912.632 418.292 851.449 425.191C696.594 443.24 539.883 486.127 423.599 527.818C415.899 530.65 408.629 533.141 401.847 535.478C291.232 576.415 209.593 622.426 105.619 657.164C81.3062 665.218 56.6416 672.149 30.1575 678.418C-61.9217 699.756 -152.363 716.058 -245.383 734.403" stroke="url(#paint15_linear_27_135)" stroke-miterlimit="10"/>
<path d="M1689.06 165.806C1623.27 209.301 1539.36 229.305 1454.58 251.64C1412.95 262.67 1370.69 275.13 1328.52 291.264C1205.85 338.252 1164.16 376.433 1018.61 417.251C974.711 429.611 919.821 434.326 858.637 441.225C703.059 458.68 548.031 503.505 430.027 546.558C422.327 549.39 415.057 551.881 408.334 554.405C298.384 595.75 216.138 641.541 111.676 676.432C87.363 684.486 62.2686 691.757 36.2143 697.686C-56.2946 719.365 -146.736 735.666 -240.303 753.978" stroke="url(#paint16_linear_27_135)" stroke-miterlimit="10"/>
<path d="M1695.12 185.073C1629.27 228.382 1545.97 248.606 1461.67 270.787C1420.53 281.664 1378.27 294.124 1336.1 310.259C1214.29 356.565 1168.94 395.073 1026.09 434.221C981.586 446.36 927.067 450.548 866.313 457.106C710.07 474.153 556.607 520.541 437.432 564.991C429.732 567.823 422.52 570.501 415.309 573.179C306.512 614.777 222.683 660.655 118.221 695.547C93.9083 703.6 68.8135 710.872 42.3294 717.141C-50.1208 739.007 -140.622 755.121 -234.678 773.587" stroke="url(#paint17_linear_27_135)" stroke-miterlimit="10"/>
<path d="M1701.17 204.342C1635.82 247.496 1552.57 267.907 1468.76 289.935C1427.62 300.812 1385.42 313.459 1343.68 329.253C1222.79 375.065 1173.79 413.9 1033.51 451.004C988.404 462.923 934.255 466.583 873.99 472.987C717.081 489.626 565.613 537.238 444.836 583.425C437.136 586.256 429.925 588.934 422.773 591.799C314.641 633.805 229.658 679.429 125.255 714.507C101.001 722.748 75.8472 729.832 49.3631 736.102C-43.5169 758.308 -134.017 774.423 -228.132 792.701" stroke="url(#paint18_linear_27_135)" stroke-miterlimit="10"/>
<path d="M1707.29 223.797C1642.36 266.611 1559.18 287.209 1475.91 309.27C1435.26 319.993 1393.06 332.64 1351.32 348.434C1231.28 393.565 1178.14 432.88 1041.48 467.821C995.279 479.672 941.989 482.651 882.154 488.715C724.521 504.76 574.678 554.122 452.73 601.704C445.089 604.723 437.877 607.401 430.665 610.079C323.199 652.492 237.121 698.049 132.229 733.281C107.487 741.676 82.3325 748.76 55.9072 755.217C-37.4614 777.577 -127.961 793.691 -222.506 812.31" stroke="url(#paint19_linear_27_135)" stroke-miterlimit="10"/>
<path d="M1713.35 243.065C1648.85 285.538 1566.27 306.357 1483.01 328.418C1442.35 339.142 1400.7 351.822 1358.9 367.429C1239.73 411.879 1182.93 451.521 1048.91 484.604C1002.1 496.235 949.177 498.686 889.83 504.597C731.533 520.234 583.256 571.159 460.135 620.138C452.494 623.156 445.282 625.834 438.129 628.699C331.269 671.334 244.156 717.01 139.264 752.242C114.522 760.636 89.4265 767.908 62.9423 774.177C-30.3674 796.725 -120.926 812.652 -215.96 831.424" stroke="url(#paint20_linear_27_135)" stroke-miterlimit="10"/>
<path d="M1719.4 262.333C1655.39 304.653 1572.87 325.658 1490.1 347.566C1449.93 358.136 1407.8 370.97 1366.48 386.423C1248.23 430.378 1187.71 470.16 1056.33 501.387C1008.85 512.61 956.365 514.72 897.507 520.477C738.486 535.52 592.32 588.042 467.539 638.57C459.898 641.589 452.746 644.454 445.593 647.319C339.887 690.207 251.131 735.783 146.298 771.203C121.555 779.597 95.9716 787.022 70.0348 793.325C-23.7047 816.213 -114.264 832.14 -209.356 850.726" stroke="url(#paint21_linear_27_135)" stroke-miterlimit="10"/>
<path d="M1725.46 281.602C1661.39 323.734 1579.42 344.773 1497.19 366.714C1457.09 377.471 1415.44 390.152 1374 405.231C1256.61 448.505 1192.44 488.613 1063.69 517.983C1015.61 528.986 963.553 530.756 905.066 535.985C745.38 550.62 600.72 604.519 474.827 656.63C467.244 659.836 460.034 662.513 452.94 665.565C347.898 708.861 258.535 754.217 152.725 789.944C127.494 798.492 102.399 805.763 76.0327 812.407C-17.6481 835.482 -108.755 851.375 -204.335 870.114" stroke="url(#paint22_linear_27_135)" stroke-miterlimit="10"/>
<path d="M1731.57 301.056C1667.99 343.035 1586.57 364.108 1504.34 386.049C1464.24 396.805 1423.08 409.333 1381.64 424.412C1265.11 467.004 1197.23 507.253 1071.18 534.953C1022.49 545.735 970.799 546.977 912.801 552.053C752.391 566.092 609.356 621.742 482.291 675.249C475.197 678.301 467.555 681.32 460.461 684.372C356.084 728.076 265.57 773.177 159.818 809.091C134.587 817.639 109.003 825.064 83.1249 831.554C-10.9856 854.97 -102.092 870.863 -197.672 889.602" stroke="url(#paint23_linear_27_135)" stroke-miterlimit="10"/>
<path d="M1737.63 320.324C1674.48 361.963 1593.11 383.223 1511.44 405.197C1471.82 415.8 1430.66 428.327 1389.23 443.406C1273.61 485.505 1201.95 525.706 1078.6 551.736C1029.25 562.111 977.987 563.012 920.419 567.747C759.285 581.192 617.815 638.405 489.637 693.496C482.543 696.548 474.901 699.567 467.807 702.619C364.096 746.73 272.486 791.765 166.734 827.678C141.503 836.226 115.978 843.838 89.6119 850.482C-4.92843 874.238 -95.6051 889.791 -191.674 908.684" stroke="url(#paint24_linear_27_135)" stroke-miterlimit="10"/>
<path d="M1743.69 339.592C1680.97 380.89 1599.72 402.524 1518.53 424.344C1478.91 434.948 1437.81 447.662 1396.81 462.4C1281.56 503.971 1206.74 544.345 1086.02 568.519C1036.06 578.673 985.175 579.046 928.095 583.628C766.296 596.665 626.88 655.288 496.494 711.895C489.4 714.947 481.817 718.153 474.723 721.205C371.676 765.724 278.972 810.692 173.22 846.605C147.989 855.153 122.464 862.765 96.0974 869.409C1.61584 893.352 -89.5491 909.059 -186.166 927.918" stroke="url(#paint25_linear_27_135)" stroke-miterlimit="10"/>
<path d="M1749.74 358.86C1687.51 400.004 1606.32 421.825 1525.62 443.493C1486.49 453.942 1445.39 466.656 1404.39 481.395C1290 522.284 1211.95 562.644 1093.44 585.302C1043.31 594.895 992.363 595.081 935.712 599.322C773.19 611.765 635.339 671.951 503.84 730.141C496.805 733.38 489.222 736.586 482.128 739.638C379.687 784.378 285.888 829.278 179.707 865.533C153.987 874.234 128.462 881.846 102.643 888.523C7.7315 912.807 -83.4928 928.327 -180.109 947.186" stroke="url(#paint26_linear_27_135)" stroke-miterlimit="10"/>
<path d="M1755.8 378.128C1693.51 419.086 1613.36 440.786 1532.71 462.641C1493.59 473.09 1453.03 485.838 1411.97 500.39C1298.5 540.785 1216.68 581.098 1100.87 602.085C1050.07 611.27 999.551 611.116 943.389 615.203C780.201 627.239 643.857 688.802 511.245 748.575C504.21 751.814 496.627 755.019 489.592 758.259C388.305 803.252 292.922 848.24 186.74 884.494C161.021 893.195 135.495 900.807 109.188 907.638C14.3349 932.109 -76.9474 947.442 -173.994 966.641" stroke="url(#paint27_linear_27_135)" stroke-miterlimit="10"/>
<path d="M1761.92 397.583C1700.11 438.387 1620.02 460.275 1539.87 481.975C1500.8 492.612 1460.67 505.019 1419.61 519.571C1307 559.285 1221.41 599.55 1108.35 619.055C1056.88 627.833 1007.29 627.184 951.124 631.271C787.213 642.712 652.492 706.026 518.708 767.195C511.673 770.434 504.15 773.827 497.056 776.879C396.434 822.28 300.385 866.86 193.774 903.455C168.113 912.343 142.1 920.108 116.281 926.785C20.9989 951.597 -70.2844 966.93 -167.878 986.096" stroke="url(#paint28_linear_27_135)" stroke-miterlimit="10"/>
<path d="M1767.97 416.851C1706.6 457.314 1626.62 479.576 1546.96 501.123C1508.38 511.606 1467.82 524.354 1427.19 538.565C1315.5 577.784 1226.62 617.849 1116.26 635.684C1064.19 644.241 1014.96 643.065 959.231 646.812C795.084 657.504 661.44 722.534 526.543 785.287C519.508 788.526 511.984 791.919 504.949 795.158C404.992 840.967 307.849 885.48 201.238 922.075C175.577 930.963 149.563 938.729 123.744 945.406C28.0907 970.745 -63.3096 985.704 -160.903 1004.87" stroke="url(#paint29_linear_27_135)" stroke-miterlimit="10"/>
<path d="M1774.03 436.12C1713.09 476.242 1633.66 498.537 1554.05 520.272C1515.47 530.755 1475.4 543.349 1434.77 557.559C1323.94 596.098 1231.84 636.149 1123.68 652.467C1071.44 660.463 1022.15 659.1 966.907 662.693C802.037 672.791 669.959 739.385 533.948 803.721C526.972 807.147 519.448 810.54 512.413 813.779C413.062 859.808 314.884 904.441 207.784 941.189C181.634 950.231 156.108 957.844 129.859 964.861C34.2649 990.388 -57.6232 1005.5 -155.276 1024.48" stroke="url(#paint30_linear_27_135)" stroke-miterlimit="10"/>
<path d="M1780.09 455.387C1719.14 495.51 1640.26 517.839 1561.14 539.419C1523.05 549.749 1482.99 562.343 1442.3 576.367C1332.32 614.224 1236.99 654.261 1131.11 669.25C1078.13 676.652 1029.34 675.135 974.525 678.387C808.989 688.077 678.416 756.048 541.293 821.967C534.317 825.393 526.794 828.785 519.818 832.212C421.132 878.648 321.799 923.028 214.758 959.963C188.609 969.005 162.596 976.771 136.835 983.635C40.7522 1009.31 -50.649 1024.27 -148.731 1043.59" stroke="url(#paint31_linear_27_135)" stroke-miterlimit="10"/>
<path d="M1786.14 474.655C1725.63 514.437 1646.87 537.14 1568.24 558.567C1530.14 568.897 1490.14 581.678 1449.88 595.361C1340.82 632.724 1242.15 672.373 1138.53 686.033C1084.89 693.027 1036.53 691.17 982.201 694.268C815.942 703.363 686.934 772.898 548.698 840.4C541.722 843.826 534.258 847.406 527.223 850.645C429.202 897.489 328.774 941.801 221.733 978.737C195.584 987.779 169.629 995.732 143.38 1002.75C47.3553 1028.62 -44.533 1043.73 -143.163 1063.01" stroke="url(#paint32_linear_27_135)" stroke-miterlimit="10"/>
<path d="M1792.26 494.111C1732.23 533.739 1653.47 556.442 1575.39 577.902C1537.29 588.232 1497.78 600.86 1457.52 614.543C1349.38 651.411 1247.42 690.859 1146.01 703.004C1092.2 709.436 1043.77 707.392 989.878 710.15C822.895 718.65 694.964 789.902 556.103 858.833C549.127 862.259 542.15 865.686 534.686 869.265C437.271 916.33 335.749 960.575 228.767 997.698C202.129 1006.89 176.174 1014.85 150.472 1021.9C54.018 1048.11 -37.9296 1063.03 -136.559 1082.32" stroke="url(#paint33_linear_27_135)" stroke-miterlimit="10"/>
<path d="M1798.31 513.379C1738.72 552.666 1660.56 575.59 1582.48 597.051C1544.93 607.414 1505.42 620.041 1465.1 633.537C1357.82 669.725 1252.58 708.972 1153.44 719.787C1099.44 725.658 1050.96 723.427 997.555 726.031C830.336 733.783 703.483 806.752 563.509 877.267C556.533 880.693 549.615 884.306 542.15 887.886C445.401 935.359 343.272 979.383 235.313 1016.81C208.675 1026.01 182.72 1033.96 157.018 1041.01C60.1345 1067.56 -31.3838 1082.15 -130.502 1101.59" stroke="url(#paint34_linear_27_135)" stroke-miterlimit="10"/>
<path d="M1804.37 532.646C1745.21 571.593 1667.11 594.704 1589.57 616.198C1552.03 626.561 1513 639.035 1472.68 652.531C1366.26 688.037 1258.28 727.117 1160.86 736.569C1106.14 741.846 1058.15 739.461 1005.23 741.911C837.288 749.069 711.999 823.601 570.424 895.852C563.507 899.466 556.53 902.892 549.124 906.659C452.981 954.352 349.817 998.496 241.858 1035.93C215.22 1045.12 189.264 1053.07 163.133 1060.47C66.3079 1087.2 -25.6988 1101.94 -125.306 1121.53" stroke="url(#paint35_linear_27_135)" stroke-miterlimit="10"/>
<path d="M1810.43 551.915C1751.26 590.861 1673.71 614.006 1596.66 635.346C1460.77 672.718 1299.57 742.301 1168.77 753.199C1113.88 757.914 1065.83 755.342 1013.34 757.452C844.671 764.015 720.947 840.111 578.259 913.945C477.134 966.287 365.41 1013.94 249.262 1054.36C121.505 1098.83 7.566 1115.53 -118.389 1140.12" stroke="url(#paint36_linear_27_135)" stroke-miterlimit="10"/>
<defs>
<linearGradient id="paint0_linear_27_135" x1="624.92" y1="141.713" x2="652.2" y2="228.499" gradientUnits="userSpaceOnUse">
<stop stop-color="white"/>
<stop offset="1"/>
</linearGradient>
<linearGradient id="paint1_linear_27_135" x1="630.989" y1="161.021" x2="657.618" y2="245.737" gradientUnits="userSpaceOnUse">
<stop stop-color="white"/>
<stop offset="1"/>
</linearGradient>
<linearGradient id="paint2_linear_27_135" x1="637.058" y1="180.328" x2="663.045" y2="263" gradientUnits="userSpaceOnUse">
<stop stop-color="white"/>
<stop offset="1"/>
</linearGradient>
<linearGradient id="paint3_linear_27_135" x1="643.127" y1="199.636" x2="668.475" y2="280.276" gradientUnits="userSpaceOnUse">
<stop stop-color="white"/>
<stop offset="1"/>
</linearGradient>
<linearGradient id="paint4_linear_27_135" x1="649.196" y1="218.943" x2="673.911" y2="297.569" gradientUnits="userSpaceOnUse">
<stop stop-color="white"/>
<stop offset="1"/>
</linearGradient>
<linearGradient id="paint5_linear_27_135" x1="655.265" y1="238.25" x2="679.351" y2="314.877" gradientUnits="userSpaceOnUse">
<stop stop-color="white"/>
<stop offset="1"/>
</linearGradient>
<linearGradient id="paint6_linear_27_135" x1="661.334" y1="257.558" x2="684.797" y2="332.201" gradientUnits="userSpaceOnUse">
<stop stop-color="white"/>
<stop offset="1"/>
</linearGradient>
<linearGradient id="paint7_linear_27_135" x1="667.403" y1="276.865" x2="690.247" y2="349.54" gradientUnits="userSpaceOnUse">
<stop stop-color="white"/>
<stop offset="1"/>
</linearGradient>
<linearGradient id="paint8_linear_27_135" x1="673.472" y1="296.172" x2="695.702" y2="366.894" gradientUnits="userSpaceOnUse">
<stop stop-color="white"/>
<stop offset="1"/>
</linearGradient>
<linearGradient id="paint9_linear_27_135" x1="679.541" y1="315.48" x2="701.162" y2="384.263" gradientUnits="userSpaceOnUse">
<stop stop-color="white"/>
<stop offset="1"/>
</linearGradient>
<linearGradient id="paint10_linear_27_135" x1="685.61" y1="334.787" x2="706.626" y2="401.647" gradientUnits="userSpaceOnUse">
<stop stop-color="white"/>
<stop offset="1"/>
</linearGradient>
<linearGradient id="paint11_linear_27_135" x1="691.679" y1="354.094" x2="712.095" y2="419.046" gradientUnits="userSpaceOnUse">
<stop stop-color="white"/>
<stop offset="1"/>
</linearGradient>
<linearGradient id="paint12_linear_27_135" x1="697.748" y1="373.401" x2="717.569" y2="436.46" gradientUnits="userSpaceOnUse">
<stop stop-color="white"/>
<stop offset="1"/>
</linearGradient>
<linearGradient id="paint13_linear_27_135" x1="703.817" y1="392.709" x2="723.055" y2="453.914" gradientUnits="userSpaceOnUse">
<stop stop-color="white"/>
<stop offset="1"/>
</linearGradient>
<linearGradient id="paint14_linear_27_135" x1="709.886" y1="412.016" x2="728.567" y2="471.446" gradientUnits="userSpaceOnUse">
<stop stop-color="white"/>
<stop offset="1"/>
</linearGradient>
<linearGradient id="paint15_linear_27_135" x1="715.955" y1="431.324" x2="734.1" y2="489.049" gradientUnits="userSpaceOnUse">
<stop stop-color="white"/>
<stop offset="1"/>
</linearGradient>
<linearGradient id="paint16_linear_27_135" x1="722.024" y1="450.631" x2="739.652" y2="506.713" gradientUnits="userSpaceOnUse">
<stop stop-color="white"/>
<stop offset="1"/>
</linearGradient>
<linearGradient id="paint17_linear_27_135" x1="727.892" y1="469.301" x2="745.221" y2="524.43" gradientUnits="userSpaceOnUse">
<stop stop-color="white"/>
<stop offset="1"/>
</linearGradient>
<linearGradient id="paint18_linear_27_135" x1="733.476" y1="487.065" x2="750.806" y2="542.196" gradientUnits="userSpaceOnUse">
<stop stop-color="white"/>
<stop offset="1"/>
</linearGradient>
<linearGradient id="paint19_linear_27_135" x1="739.011" y1="504.676" x2="756.405" y2="560.009" gradientUnits="userSpaceOnUse">
<stop stop-color="white"/>
<stop offset="1"/>
</linearGradient>
<linearGradient id="paint20_linear_27_135" x1="744.504" y1="522.147" x2="762.017" y2="577.863" gradientUnits="userSpaceOnUse">
<stop stop-color="white"/>
<stop offset="1"/>
</linearGradient>
<linearGradient id="paint21_linear_27_135" x1="749.957" y1="539.496" x2="767.643" y2="595.76" gradientUnits="userSpaceOnUse">
<stop stop-color="white"/>
<stop offset="1"/>
</linearGradient>
<linearGradient id="paint22_linear_27_135" x1="755.377" y1="556.74" x2="773.281" y2="613.697" gradientUnits="userSpaceOnUse">
<stop stop-color="white"/>
<stop offset="1"/>
</linearGradient>
<linearGradient id="paint23_linear_27_135" x1="760.768" y1="573.889" x2="778.932" y2="631.675" gradientUnits="userSpaceOnUse">
<stop stop-color="white"/>
<stop offset="1"/>
</linearGradient>
<linearGradient id="paint24_linear_27_135" x1="766.134" y1="590.96" x2="784.597" y2="649.698" gradientUnits="userSpaceOnUse">
<stop stop-color="white"/>
<stop offset="1"/>
</linearGradient>
<linearGradient id="paint25_linear_27_135" x1="771.478" y1="607.961" x2="790.276" y2="667.763" gradientUnits="userSpaceOnUse">
<stop stop-color="white"/>
<stop offset="1"/>
</linearGradient>
<linearGradient id="paint26_linear_27_135" x1="776.803" y1="624.902" x2="795.97" y2="685.878" gradientUnits="userSpaceOnUse">
<stop stop-color="white"/>
<stop offset="1"/>
</linearGradient>
<linearGradient id="paint27_linear_27_135" x1="782.112" y1="641.792" x2="801.68" y2="704.044" gradientUnits="userSpaceOnUse">
<stop stop-color="white"/>
<stop offset="1"/>
</linearGradient>
<linearGradient id="paint28_linear_27_135" x1="787.406" y1="658.635" x2="807.408" y2="722.266" gradientUnits="userSpaceOnUse">
<stop stop-color="white"/>
<stop offset="1"/>
</linearGradient>
<linearGradient id="paint29_linear_27_135" x1="792.688" y1="675.438" x2="813.155" y2="740.549" gradientUnits="userSpaceOnUse">
<stop stop-color="white"/>
<stop offset="1"/>
</linearGradient>
<linearGradient id="paint30_linear_27_135" x1="797.959" y1="692.206" x2="818.923" y2="758.899" gradientUnits="userSpaceOnUse">
<stop stop-color="white"/>
<stop offset="1"/>
</linearGradient>
<linearGradient id="paint31_linear_27_135" x1="803.219" y1="708.941" x2="824.714" y2="777.322" gradientUnits="userSpaceOnUse">
<stop stop-color="white"/>
<stop offset="1"/>
</linearGradient>
<linearGradient id="paint32_linear_27_135" x1="808.471" y1="725.649" x2="830.539" y2="795.853" gradientUnits="userSpaceOnUse">
<stop stop-color="white"/>
<stop offset="1"/>
</linearGradient>
<linearGradient id="paint33_linear_27_135" x1="813.715" y1="742.333" x2="836.381" y2="814.439" gradientUnits="userSpaceOnUse">
<stop stop-color="white"/>
<stop offset="1"/>
</linearGradient>
<linearGradient id="paint34_linear_27_135" x1="818.953" y1="758.993" x2="842.252" y2="833.117" gradientUnits="userSpaceOnUse">
<stop stop-color="white"/>
<stop offset="1"/>
</linearGradient>
<linearGradient id="paint35_linear_27_135" x1="824.17" y1="775.594" x2="848.18" y2="851.977" gradientUnits="userSpaceOnUse">
<stop stop-color="white"/>
<stop offset="1"/>
</linearGradient>
<linearGradient id="paint36_linear_27_135" x1="829.408" y1="792.255" x2="854.278" y2="871.374" gradientUnits="userSpaceOnUse">
<stop stop-color="white"/>
<stop offset="1"/>
</linearGradient>
</defs>
</svg>
