<svg width="92" height="92" viewBox="0 0 92 92" fill="none" xmlns="http://www.w3.org/2000/svg">
<path d="M61 20.9711C63.6522 20.9711 66.1957 22.0247 68.0711 23.9C69.9464 25.7754 71 28.3189 71 30.9711L61 20.9711ZM91 30.9711C91.0014 35.6569 89.9051 40.278 87.7989 44.4638C85.6928 48.6497 82.6354 52.284 78.8718 55.0755C75.1082 57.8669 70.743 59.738 66.126 60.5387C61.5091 61.3393 56.7688 61.0473 52.285 59.6861L41 70.9711H31V80.9711H21V90.9711H6C4.67392 90.9711 3.40215 90.4443 2.46447 89.5066C1.52678 88.5689 1 87.2972 1 85.9711V73.0411C1.00028 71.7151 1.52725 70.4436 2.465 69.5061L32.285 39.6861C31.0372 35.5611 30.6928 31.2158 31.2752 26.9458C31.8576 22.6758 33.3531 18.5814 35.66 14.9413C37.9668 11.3012 41.0308 8.20081 44.6435 5.85118C48.2561 3.50155 52.3326 1.95783 56.5954 1.32511C60.8582 0.692381 65.2073 0.985497 69.3467 2.1845C73.4861 3.38351 77.3185 5.46026 80.5832 8.2734C83.8479 11.0865 86.4682 14.57 88.2657 18.4868C90.0633 22.4035 90.9958 26.6616 91 30.9711Z" fill="url(#paint0_linear_347_2663)" stroke="white" stroke-width="2" stroke-linecap="round" stroke-linejoin="round"/>
<defs>
<linearGradient id="paint0_linear_347_2663" x1="46" y1="1" x2="46" y2="90.9711" gradientUnits="userSpaceOnUse">
<stop stop-color="#5728AA"/>
<stop offset="1" stop-color="#0790C0"/>
</linearGradient>
</defs>
</svg>
