<svg width="1440" height="326" viewBox="0 0 1440 326" fill="none" xmlns="http://www.w3.org/2000/svg">
    <path d="M0 146C15.6059 132.667 31.2118 132.667 46.8177 146C62.4236 159.333 78.0296 159.333 93.6355 146C109.241 132.667 124.847 132.667 140.453 146C156.059 159.333 171.665 159.333 187.271 146C202.877 132.667 218.483 132.667 234.089 146C249.695 159.333 265.3 159.333 280.906 146C296.512 132.667 312.118 132.667 327.724 146C343.33 159.333 358.936 159.333 374.542 146C390.148 132.667 405.754 132.667 421.36 146C436.966 159.333 452.571 159.333 468.177 146" stroke="white" stroke-opacity="0.7" stroke-width="6"/>
    <path d="M467 147C470.985 144.474 506.902 125.667 525.012 147C543.123 168.333 561.233 168.333 579.344 147C597.455 125.667 615.565 125.667 633.676 147C651.787 168.333 669.897 168.333 688.008 147C706.119 125.667 724.229 125.667 742.34 147C760.451 168.333 778.561 168.333 796.672 147C814.783 125.667 832.893 125.667 851.004 147C869.115 168.333 887.225 168.333 905.336 147C923.447 125.667 941.557 125.667 959.668 147C977.779 168.333 995.889 165.333 1014 144" stroke="white" stroke-opacity="0.7" stroke-width="6"/>
    <path d="M1013.5 145C1027.68 125 1042.76 128 1056.95 148C1071.13 168 1085.32 168 1099.51 148C1113.69 128 1127.88 128 1142.07 148C1156.26 168 1170.44 168 1184.63 148C1198.82 128 1213 128 1227.19 148C1241.38 168 1255.57 168 1269.75 148C1283.94 128 1298.13 128 1312.32 148C1326.5 168 1340.69 168 1354.88 148C1369.06 128 1383.25 128 1397.44 148C1411.63 168 1425.81 168 1440 148" stroke="white" stroke-opacity="0.7" stroke-width="6"/>
    <path d="M0 178C15.6059 164.667 31.2118 164.667 46.8177 178C62.4236 191.333 78.0296 191.333 93.6355 178C109.241 164.667 124.847 164.667 140.453 178C156.059 191.333 171.665 191.333 187.271 178C202.877 164.667 218.483 164.667 234.089 178C249.695 191.333 265.3 191.333 280.906 178C296.512 164.667 312.118 164.667 327.724 178C343.33 191.333 358.936 191.333 374.542 178C390.148 164.667 405.754 164.667 421.36 178C436.966 191.333 452.571 191.333 468.177 178" stroke="white" stroke-opacity="0.7" stroke-width="6"/>
    <path d="M467 179C470.985 176.474 506.902 157.667 525.012 179C543.123 200.333 561.233 200.333 579.344 179C597.455 157.667 615.565 157.667 633.676 179C651.787 200.333 669.897 200.333 688.008 179C706.119 157.667 724.229 157.667 742.34 179C760.451 200.333 778.561 200.333 796.672 179C814.783 157.667 832.893 157.667 851.004 179C869.115 200.333 887.225 200.333 905.336 179C923.447 157.667 941.557 157.667 959.668 179C977.779 200.333 995.889 197.333 1014 176" stroke="white" stroke-opacity="0.7" stroke-width="6"/>
    <path d="M1013.5 177C1027.68 157 1042.76 160 1056.95 180C1071.13 200 1085.32 200 1099.51 180C1113.69 160 1127.88 160 1142.07 180C1156.26 200 1170.44 200 1184.63 180C1198.82 160 1213 160 1227.19 180C1241.38 200 1255.57 200 1269.75 180C1283.94 160 1298.13 160 1312.32 180C1326.5 200 1340.69 200 1354.88 180C1369.06 160 1383.25 160 1397.44 180C1411.63 200 1425.81 200 1440 180" stroke="white" stroke-opacity="0.7" stroke-width="6"/>
    <path d="M0 82C15.6059 68.6667 31.2118 68.6667 46.8177 82C62.4236 95.3333 78.0296 95.3333 93.6355 82C109.241 68.6667 124.847 68.6667 140.453 82C156.059 95.3333 171.665 95.3333 187.271 82C202.877 68.6667 218.483 68.6667 234.089 82C249.695 95.3333 265.3 95.3333 280.906 82C296.512 68.6667 312.118 68.6667 327.724 82C343.33 95.3333 358.936 95.3333 374.542 82C390.148 68.6667 405.754 68.6667 421.36 82C436.966 95.3333 452.571 95.3333 468.177 82" stroke="white" stroke-opacity="0.7" stroke-width="6"/>
    <path d="M467 83C470.985 80.4737 506.902 61.6667 525.012 83C543.123 104.333 561.233 104.333 579.344 83C597.455 61.6667 615.565 61.6667 633.676 83C651.787 104.333 669.897 104.333 688.008 83C706.119 61.6667 724.229 61.6667 742.34 83C760.451 104.333 778.561 104.333 796.672 83C814.783 61.6667 832.893 61.6667 851.004 83C869.115 104.333 887.225 104.333 905.336 83C923.447 61.6667 941.557 61.6667 959.668 83C977.779 104.333 995.889 101.333 1014 80" stroke="white" stroke-opacity="0.7" stroke-width="6"/>
    <path d="M1013.5 81.0001C1027.68 61.0001 1042.76 64.0001 1056.95 84.0001C1071.13 104 1085.32 104 1099.51 84.0001C1113.69 64.0001 1127.88 64.0001 1142.07 84.0001C1156.26 104 1170.44 104 1184.63 84.0001C1198.82 64.0001 1213 64.0001 1227.19 84.0001C1241.38 104 1255.57 104 1269.75 84.0001C1283.94 64.0001 1298.13 64.0001 1312.32 84.0001C1326.5 104 1340.69 104 1354.88 84.0001C1369.06 64.0001 1383.25 64.0001 1397.44 84.0001C1411.63 104 1425.81 104 1440 84.0001" stroke="white" stroke-opacity="0.7" stroke-width="6"/>
    <path d="M0 114C15.6059 100.667 31.2118 100.667 46.8177 114C62.4236 127.333 78.0296 127.333 93.6355 114C109.241 100.667 124.847 100.667 140.453 114C156.059 127.333 171.665 127.333 187.271 114C202.877 100.667 218.483 100.667 234.089 114C249.695 127.333 265.3 127.333 280.906 114C296.512 100.667 312.118 100.667 327.724 114C343.33 127.333 358.936 127.333 374.542 114C390.148 100.667 405.754 100.667 421.36 114C436.966 127.333 452.571 127.333 468.177 114" stroke="white" stroke-opacity="0.7" stroke-width="6"/>
    <path d="M467 115C470.985 112.474 506.902 93.6667 525.012 115C543.123 136.333 561.233 136.333 579.344 115C597.455 93.6667 615.565 93.6667 633.676 115C651.787 136.333 669.897 136.333 688.008 115C706.119 93.6667 724.229 93.6667 742.34 115C760.451 136.333 778.561 136.333 796.672 115C814.783 93.6667 832.893 93.6667 851.004 115C869.115 136.333 887.225 136.333 905.336 115C923.447 93.6667 941.557 93.6667 959.668 115C977.779 136.333 995.889 133.333 1014 112" stroke="white" stroke-opacity="0.7" stroke-width="6"/>
    <path d="M1013.5 113C1027.68 93.0001 1042.76 96.0001 1056.95 116C1071.13 136 1085.32 136 1099.51 116C1113.69 96.0001 1127.88 96.0001 1142.07 116C1156.26 136 1170.44 136 1184.63 116C1198.82 96.0001 1213 96.0001 1227.19 116C1241.38 136 1255.57 136 1269.75 116C1283.94 96.0001 1298.13 96.0001 1312.32 116C1326.5 136 1340.69 136 1354.88 116C1369.06 96.0001 1383.25 96.0001 1397.44 116C1411.63 136 1425.81 136 1440 116" stroke="white" stroke-opacity="0.7" stroke-width="6"/>
    <path d="M0 18C15.6059 4.66667 31.2118 4.66667 46.8177 18C62.4236 31.3333 78.0296 31.3333 93.6355 18C109.241 4.66667 124.847 4.66667 140.453 18C156.059 31.3333 171.665 31.3333 187.271 18C202.877 4.66667 218.483 4.66667 234.089 18C249.695 31.3333 265.3 31.3333 280.906 18C296.512 4.66667 312.118 4.66667 327.724 18C343.33 31.3333 358.936 31.3333 374.542 18C390.148 4.66667 405.754 4.66667 421.36 18C436.966 31.3333 452.571 31.3333 468.177 18" stroke="white" stroke-opacity="0.7" stroke-width="6"/>
    <path d="M467 19C470.985 16.4737 506.902 -2.33333 525.012 19C543.123 40.3333 561.233 40.3333 579.344 19C597.455 -2.33333 615.565 -2.33333 633.676 19C651.787 40.3333 669.897 40.3333 688.008 19C706.119 -2.33333 724.229 -2.33333 742.34 19C760.451 40.3333 778.561 40.3333 796.672 19C814.783 -2.33333 832.893 -2.33333 851.004 19C869.115 40.3333 887.225 40.3333 905.336 19C923.447 -2.33333 941.557 -2.33333 959.668 19C977.779 40.3333 995.889 37.3333 1014 16" stroke="white" stroke-opacity="0.7" stroke-width="6"/>
    <path d="M1013.5 17.0001C1027.68 -2.99993 1042.76 8.7738e-05 1056.95 20.0001C1071.13 40.0001 1085.32 40.0001 1099.51 20.0001C1113.69 8.7738e-05 1127.88 8.7738e-05 1142.07 20.0001C1156.26 40.0001 1170.44 40.0001 1184.63 20.0001C1198.82 8.7738e-05 1213 8.7738e-05 1227.19 20.0001C1241.38 40.0001 1255.57 40.0001 1269.75 20.0001C1283.94 8.7738e-05 1298.13 8.7738e-05 1312.32 20.0001C1326.5 40.0001 1340.69 40.0001 1354.88 20.0001C1369.06 8.7738e-05 1383.25 8.7738e-05 1397.44 20.0001C1411.63 40.0001 1425.81 40.0001 1440 20.0001" stroke="white" stroke-opacity="0.7" stroke-width="6"/>
    <path d="M0 50C15.6059 36.6667 31.2118 36.6667 46.8177 50C62.4236 63.3333 78.0296 63.3333 93.6355 50C109.241 36.6667 124.847 36.6667 140.453 50C156.059 63.3333 171.665 63.3333 187.271 50C202.877 36.6667 218.483 36.6667 234.089 50C249.695 63.3333 265.3 63.3333 280.906 50C296.512 36.6667 312.118 36.6667 327.724 50C343.33 63.3333 358.936 63.3333 374.542 50C390.148 36.6667 405.754 36.6667 421.36 50C436.966 63.3333 452.571 63.3333 468.177 50" stroke="white" stroke-opacity="0.7" stroke-width="6"/>
    <path d="M467 51C470.985 48.4737 506.902 29.6667 525.012 51C543.123 72.3333 561.233 72.3333 579.344 51C597.455 29.6667 615.565 29.6667 633.676 51C651.787 72.3333 669.897 72.3333 688.008 51C706.119 29.6667 724.229 29.6667 742.34 51C760.451 72.3333 778.561 72.3333 796.672 51C814.783 29.6667 832.893 29.6667 851.004 51C869.115 72.3333 887.225 72.3333 905.336 51C923.447 29.6667 941.557 29.6667 959.668 51C977.779 72.3333 995.889 69.3333 1014 48" stroke="white" stroke-opacity="0.7" stroke-width="6"/>
    <path d="M1013.5 49.0001C1027.68 29.0001 1042.76 32.0001 1056.95 52.0001C1071.13 72.0001 1085.32 72.0001 1099.51 52.0001C1113.69 32.0001 1127.88 32.0001 1142.07 52.0001C1156.26 72.0001 1170.44 72.0001 1184.63 52.0001C1198.82 32.0001 1213 32.0001 1227.19 52.0001C1241.38 72.0001 1255.57 72.0001 1269.75 52.0001C1283.94 32.0001 1298.13 32.0001 1312.32 52.0001C1326.5 72.0001 1340.69 72.0001 1354.88 52.0001C1369.06 32.0001 1383.25 32.0001 1397.44 52.0001C1411.63 72.0001 1425.81 72.0001 1440 52.0001" stroke="white" stroke-opacity="0.7" stroke-width="6"/>
    <path d="M0 274C15.6059 260.667 31.2118 260.667 46.8177 274C62.4236 287.333 78.0296 287.333 93.6355 274C109.241 260.667 124.847 260.667 140.453 274C156.059 287.333 171.665 287.333 187.271 274C202.877 260.667 218.483 260.667 234.089 274C249.695 287.333 265.3 287.333 280.906 274C296.512 260.667 312.118 260.667 327.724 274C343.33 287.333 358.936 287.333 374.542 274C390.148 260.667 405.754 260.667 421.36 274C436.966 287.333 452.571 287.333 468.177 274" stroke="white" stroke-opacity="0.7" stroke-width="6"/>
    <path d="M467 275C470.985 272.474 506.902 253.667 525.012 275C543.123 296.333 561.233 296.333 579.344 275C597.455 253.667 615.565 253.667 633.676 275C651.787 296.333 669.897 296.333 688.008 275C706.119 253.667 724.229 253.667 742.34 275C760.451 296.333 778.561 296.333 796.672 275C814.783 253.667 832.893 253.667 851.004 275C869.115 296.333 887.225 296.333 905.336 275C923.447 253.667 941.557 253.667 959.668 275C977.779 296.333 995.889 293.333 1014 272" stroke="white" stroke-opacity="0.7" stroke-width="6"/>
    <path d="M1013.5 273C1027.68 253 1042.76 256 1056.95 276C1071.13 296 1085.32 296 1099.51 276C1113.69 256 1127.88 256 1142.07 276C1156.26 296 1170.44 296 1184.63 276C1198.82 256 1213 256 1227.19 276C1241.38 296 1255.57 296 1269.75 276C1283.94 256 1298.13 256 1312.32 276C1326.5 296 1340.69 296 1354.88 276C1369.06 256 1383.25 256 1397.44 276C1411.63 296 1425.81 296 1440 276" stroke="white" stroke-opacity="0.7" stroke-width="6"/>
    <path d="M0 306C15.6059 292.667 31.2118 292.667 46.8177 306C62.4236 319.333 78.0296 319.333 93.6355 306C109.241 292.667 124.847 292.667 140.453 306C156.059 319.333 171.665 319.333 187.271 306C202.877 292.667 218.483 292.667 234.089 306C249.695 319.333 265.3 319.333 280.906 306C296.512 292.667 312.118 292.667 327.724 306C343.33 319.333 358.936 319.333 374.542 306C390.148 292.667 405.754 292.667 421.36 306C436.966 319.333 452.571 319.333 468.177 306" stroke="white" stroke-opacity="0.7" stroke-width="6"/>
    <path d="M467 307C470.985 304.474 506.902 285.667 525.012 307C543.123 328.333 561.233 328.333 579.344 307C597.455 285.667 615.565 285.667 633.676 307C651.787 328.333 669.897 328.333 688.008 307C706.119 285.667 724.229 285.667 742.34 307C760.451 328.333 778.561 328.333 796.672 307C814.783 285.667 832.893 285.667 851.004 307C869.115 328.333 887.225 328.333 905.336 307C923.447 285.667 941.557 285.667 959.668 307C977.779 328.333 995.889 325.333 1014 304" stroke="white" stroke-opacity="0.7" stroke-width="6"/>
    <path d="M1013.5 305C1027.68 285 1042.76 288 1056.95 308C1071.13 328 1085.32 328 1099.51 308C1113.69 288 1127.88 288 1142.07 308C1156.26 328 1170.44 328 1184.63 308C1198.82 288 1213 288 1227.19 308C1241.38 328 1255.57 328 1269.75 308C1283.94 288 1298.13 288 1312.32 308C1326.5 328 1340.69 328 1354.88 308C1369.06 288 1383.25 288 1397.44 308C1411.63 328 1425.81 328 1440 308" stroke="white" stroke-opacity="0.7" stroke-width="6"/>
    <path d="M0 210C15.6059 196.667 31.2118 196.667 46.8177 210C62.4236 223.333 78.0296 223.333 93.6355 210C109.241 196.667 124.847 196.667 140.453 210C156.059 223.333 171.665 223.333 187.271 210C202.877 196.667 218.483 196.667 234.089 210C249.695 223.333 265.3 223.333 280.906 210C296.512 196.667 312.118 196.667 327.724 210C343.33 223.333 358.936 223.333 374.542 210C390.148 196.667 405.754 196.667 421.36 210C436.966 223.333 452.571 223.333 468.177 210" stroke="white" stroke-opacity="0.7" stroke-width="6"/>
    <path d="M467 211C470.985 208.474 506.902 189.667 525.012 211C543.123 232.333 561.233 232.333 579.344 211C597.455 189.667 615.565 189.667 633.676 211C651.787 232.333 669.897 232.333 688.008 211C706.119 189.667 724.229 189.667 742.34 211C760.451 232.333 778.561 232.333 796.672 211C814.783 189.667 832.893 189.667 851.004 211C869.115 232.333 887.225 232.333 905.336 211C923.447 189.667 941.557 189.667 959.668 211C977.779 232.333 995.889 229.333 1014 208" stroke="white" stroke-opacity="0.7" stroke-width="6"/>
    <path d="M1013.5 209C1027.68 189 1042.76 192 1056.95 212C1071.13 232 1085.32 232 1099.51 212C1113.69 192 1127.88 192 1142.07 212C1156.26 232 1170.44 232 1184.63 212C1198.82 192 1213 192 1227.19 212C1241.38 232 1255.57 232 1269.75 212C1283.94 192 1298.13 192 1312.32 212C1326.5 232 1340.69 232 1354.88 212C1369.06 192 1383.25 192 1397.44 212C1411.63 232 1425.81 232 1440 212" stroke="white" stroke-opacity="0.7" stroke-width="6"/>
    <path d="M0 242C15.6059 228.667 31.2118 228.667 46.8177 242C62.4236 255.333 78.0296 255.333 93.6355 242C109.241 228.667 124.847 228.667 140.453 242C156.059 255.333 171.665 255.333 187.271 242C202.877 228.667 218.483 228.667 234.089 242C249.695 255.333 265.3 255.333 280.906 242C296.512 228.667 312.118 228.667 327.724 242C343.33 255.333 358.936 255.333 374.542 242C390.148 228.667 405.754 228.667 421.36 242C436.966 255.333 452.571 255.333 468.177 242" stroke="white" stroke-opacity="0.7" stroke-width="6"/>
    <path d="M467 243C470.985 240.474 506.902 221.667 525.012 243C543.123 264.333 561.233 264.333 579.344 243C597.455 221.667 615.565 221.667 633.676 243C651.787 264.333 669.897 264.333 688.008 243C706.119 221.667 724.229 221.667 742.34 243C760.451 264.333 778.561 264.333 796.672 243C814.783 221.667 832.893 221.667 851.004 243C869.115 264.333 887.225 264.333 905.336 243C923.447 221.667 941.557 221.667 959.668 243C977.779 264.333 995.889 261.333 1014 240" stroke="white" stroke-opacity="0.7" stroke-width="6"/>
    <path d="M1013.5 241C1027.68 221 1042.76 224 1056.95 244C1071.13 264 1085.32 264 1099.51 244C1113.69 224 1127.88 224 1142.07 244C1156.26 264 1170.44 264 1184.63 244C1198.82 224 1213 224 1227.19 244C1241.38 264 1255.57 264 1269.75 244C1283.94 224 1298.13 224 1312.32 244C1326.5 264 1340.69 264 1354.88 244C1369.06 224 1383.25 224 1397.44 244C1411.63 264 1425.81 264 1440 244" stroke="white" stroke-opacity="0.7" stroke-width="6"/>
</svg>
