<svg width="76" height="85" viewBox="0 0 76 85" fill="none" xmlns="http://www.w3.org/2000/svg">
<path d="M38 55.7536V64.5459M11.75 82.1304H64.25C66.5706 82.1304 68.7962 81.2041 70.4372 79.5552C72.0781 77.9064 73 75.67 73 73.3382V46.9614C73 44.6295 72.0781 42.3932 70.4372 40.7443C68.7962 39.0954 66.5706 38.1691 64.25 38.1691H11.75C9.42936 38.1691 7.20376 39.0954 5.56282 40.7443C3.92187 42.3932 3 44.6295 3 46.9614V73.3382C3 75.67 3.92187 77.9064 5.56282 79.5552C7.20376 81.2041 9.42936 82.1304 11.75 82.1304ZM55.5 38.1691V20.5845C55.5 15.9208 53.6563 11.4481 50.3744 8.15039C47.0925 4.85265 42.6413 3 38 3C33.3587 3 28.9075 4.85265 25.6256 8.15039C22.3437 11.4481 20.5 15.9208 20.5 20.5845V38.1691H55.5Z" stroke="url(#paint0_linear_285_2433)" stroke-width="5" stroke-linecap="round" stroke-linejoin="round"/>
<defs>
<linearGradient id="paint0_linear_285_2433" x1="38" y1="3" x2="38" y2="159.063" gradientUnits="userSpaceOnUse">
<stop stop-color="#5728AA"/>
<stop offset="1" stop-color="#0790C0"/>
</linearGradient>
</defs>
</svg>
