<svg width="113" height="107" viewBox="0 0 113 107" fill="none" xmlns="http://www.w3.org/2000/svg">
<path d="M55.2623 38.4021C35.0099 38.4021 31.9752 63.3441 45.9324 70.6337C46.8496 71.1128 47.3826 72.1492 47.0986 73.1442L38.8045 102.202C38.5157 103.214 37.4693 103.829 36.4506 103.564C-11.678 91.0645 -9.8978 3 55.0383 3C122.52 3 125.273 93.0813 77.455 103.668C76.5095 103.877 75.5476 103.339 75.2119 102.43L64.4153 73.2208C64.0385 72.2014 64.5587 71.0803 65.4922 70.5237C77.1474 63.5755 75.3307 38.4021 55.2623 38.4021Z" stroke="url(#paint0_linear_760_2779)" stroke-width="5"/>
<defs>
<linearGradient id="paint0_linear_760_2779" x1="54.9781" y1="2.06912" x2="55.129" y2="150.637" gradientUnits="userSpaceOnUse">
<stop stop-color="#5728AA"/>
<stop offset="1" stop-color="#0790C0"/>
</linearGradient>
</defs>
</svg>
