<svg width="174" height="98" viewBox="0 0 174 98" fill="none" xmlns="http://www.w3.org/2000/svg">
<ellipse cx="112.616" cy="68.4878" rx="26.983" ry="25.5112" fill="url(#paint0_linear_695_2612)"/>
<circle cx="57.9843" cy="31.9843" r="24.9843" fill="url(#paint1_linear_695_2612)"/>
<path d="M66.25 26.3333H64.875V23.9524C64.875 20.6667 61.795 18 58 18C54.205 18 51.125 20.6667 51.125 23.9524H53.875C53.875 21.9762 55.7175 20.381 58 20.381C60.2825 20.381 62.125 21.9762 62.125 23.9524V26.3333H49.75C48.2375 26.3333 47 27.4048 47 28.7143V40.619C47 41.9286 48.2375 43 49.75 43H66.25C67.7625 43 69 41.9286 69 40.619V28.7143C69 27.4048 67.7625 26.3333 66.25 26.3333ZM66.25 40.619H49.75V28.7143H66.25V40.619ZM58 37.0476C59.5125 37.0476 60.75 35.9762 60.75 34.6667C60.75 33.3571 59.5125 32.2857 58 32.2857C56.4875 32.2857 55.25 33.3571 55.25 34.6667C55.25 35.9762 56.4875 37.0476 58 37.0476Z" fill="white"/>
<path d="M123.111 56H102.889C101.286 56 100 57.3 100 58.8889V79.1111C100 80.7 101.286 82 102.889 82H123.111C124.7 82 126 80.7 126 79.1111V58.8889C126 57.3 124.714 56 123.111 56ZM123.111 79.1111H102.889V61.7778H123.111V79.1111ZM113 66.8333C115.658 66.8333 118.027 68.22 119.269 70.4444C118.027 72.6689 115.658 74.0556 113 74.0556C110.342 74.0556 107.973 72.6689 106.731 70.4444C107.973 68.22 110.342 66.8333 113 66.8333ZM113 64.6667C109.057 64.6667 105.691 67.0644 104.333 70.4444C105.691 73.8244 109.057 76.2222 113 76.2222C116.943 76.2222 120.309 73.8244 121.667 70.4444C120.309 67.0644 116.943 64.6667 113 64.6667ZM113 72.6111C111.801 72.6111 110.833 71.6433 110.833 70.4444C110.833 69.2456 111.801 68.2778 113 68.2778C114.199 68.2778 115.167 69.2456 115.167 70.4444C115.167 71.6433 114.199 72.6111 113 72.6111Z" fill="white"/>
<defs>
<linearGradient id="paint0_linear_695_2612" x1="112.616" y1="42.9766" x2="111.927" y2="121.698" gradientUnits="userSpaceOnUse">
<stop stop-color="#5728AA"/>
<stop offset="0.364583" stop-color="#3A4EB2"/>
<stop offset="1" stop-color="#0790C0"/>
</linearGradient>
<linearGradient id="paint1_linear_695_2612" x1="57.9843" y1="7" x2="57.9843" y2="81.2181" gradientUnits="userSpaceOnUse">
<stop stop-color="#5728AA"/>
<stop offset="0.0001" stop-color="#5728AA"/>
<stop offset="1" stop-color="#0790C0"/>
</linearGradient>
</defs>
</svg>
