<svg width="174" height="98" viewBox="0 0 174 98" fill="none" xmlns="http://www.w3.org/2000/svg">
<ellipse cx="112.616" cy="68.4878" rx="26.983" ry="25.5112" fill="url(#paint0_linear_694_2620)"/>
<path d="M119.217 62.4496C120.713 63.8737 120.713 66.1888 119.217 67.6129L115.717 70.9441L117.379 72.5264L120.879 69.1952C123.294 66.8967 123.294 63.1658 120.879 60.8673C118.464 58.5687 114.544 58.5687 112.129 60.8673L108.63 64.1985L110.292 65.7808L113.792 62.4496C115.288 61.0255 117.72 61.0255 119.217 62.4496ZM114.754 65.0312L107.755 71.6936L109.505 73.3592L116.504 66.6968L114.754 65.0312ZM112.129 77.5232L115.629 74.192L113.967 72.6097L110.467 75.9409C108.971 77.365 106.538 77.365 105.042 75.9409C103.546 74.5168 103.546 72.2016 105.042 70.7776L108.542 67.4464L106.88 65.864L103.38 69.1952C100.965 71.4938 100.965 75.2247 103.38 77.5232C105.795 79.8217 109.715 79.8217 112.129 77.5232Z" fill="white"/>
<circle cx="57.9843" cy="31.9843" r="24.9843" fill="url(#paint1_linear_694_2620)"/>
<path d="M66.25 28.3333H64.875V25.9524C64.875 22.6667 61.795 20 58 20C54.205 20 51.125 22.6667 51.125 25.9524V28.3333H49.75C48.2375 28.3333 47 29.4048 47 30.7143V42.619C47 43.9286 48.2375 45 49.75 45H66.25C67.7625 45 69 43.9286 69 42.619V30.7143C69 29.4048 67.7625 28.3333 66.25 28.3333ZM53.875 25.9524C53.875 23.9762 55.7175 22.381 58 22.381C60.2825 22.381 62.125 23.9762 62.125 25.9524V28.3333H53.875V25.9524ZM66.25 42.619H49.75V30.7143H66.25V42.619ZM58 39.0476C59.5125 39.0476 60.75 37.9762 60.75 36.6667C60.75 35.3571 59.5125 34.2857 58 34.2857C56.4875 34.2857 55.25 35.3571 55.25 36.6667C55.25 37.9762 56.4875 39.0476 58 39.0476Z" fill="white"/>
<defs>
<linearGradient id="paint0_linear_694_2620" x1="112.616" y1="42.9766" x2="111.927" y2="121.698" gradientUnits="userSpaceOnUse">
<stop stop-color="#5728AA"/>
<stop offset="0.364583" stop-color="#3A4EB2"/>
<stop offset="1" stop-color="#0790C0"/>
</linearGradient>
<linearGradient id="paint1_linear_694_2620" x1="57.9843" y1="7" x2="57.9843" y2="81.2181" gradientUnits="userSpaceOnUse">
<stop stop-color="#5728AA"/>
<stop offset="0.0001" stop-color="#5728AA"/>
<stop offset="1" stop-color="#0790C0"/>
</linearGradient>
</defs>
</svg>
