<svg width="575" height="494" viewBox="0 0 575 494" fill="none" xmlns="http://www.w3.org/2000/svg">
<path d="M119.068 99.1963C72.9374 140.717 50.9817 202.089 48.3613 263.373H143.567C146.286 224.405 156.573 194.256 182.022 166.924L119.068 99.1963Z" fill="url(#paint0_linear_566_2596)"/>
<path d="M522.84 261.806C522.84 209.48 504.71 158.701 471.411 117.763C438.112 76.8254 391.612 48.1489 339.509 36.4181L318.739 124.78C350.416 131.912 378.685 149.346 398.929 174.235C419.174 199.123 430.196 229.994 430.196 261.806H522.84Z" fill="#3972DB"/>
<path d="M522.841 261.806C522.841 216.064 508.982 171.35 483.016 133.317C457.05 95.2838 420.143 65.6407 376.963 48.1361C333.784 30.6315 286.27 26.0514 240.43 34.9752C194.591 43.899 151.942 67.264 118.894 99.6083L181.841 167.159C201.933 147.495 230.636 129.329 258.504 123.903C286.373 118.478 315.259 121.262 341.51 131.904C367.762 142.546 390.199 160.568 405.985 183.69C421.771 206.813 430.197 233.997 430.197 261.806H522.841Z" fill="url(#paint1_linear_566_2596)"/>
<path d="M522.84 261.807C522.84 227.232 514.919 193.098 499.661 161.915C484.402 130.731 462.194 103.293 434.67 81.6188C407.147 59.9444 375.008 44.5854 340.618 36.6718C306.229 28.7582 266.057 29.2722 231.549 36.6719L255.783 124.46C276.763 119.962 298.506 120.124 319.413 124.935C340.321 129.746 359.86 139.084 376.593 152.261C393.326 165.438 406.827 182.119 416.104 201.077C425.38 220.035 430.196 240.787 430.196 261.807H522.84Z" fill="url(#paint2_linear_566_2596)"/>
<path d="M522.84 261.806C522.84 209.825 504.947 159.36 472.049 118.552C439.15 77.7433 393.164 48.9715 341.509 36.8779L319.955 125.06C351.359 132.412 379.316 149.904 399.317 174.714C419.318 199.524 430.196 230.204 430.196 261.806H522.84Z" fill="url(#paint3_linear_566_2596)"/>
<path d="M522.84 261.806C522.84 228.079 515.303 194.76 500.757 164.185C486.211 133.61 465.008 106.518 438.635 84.8096L379.003 154.2C395.037 167.398 407.927 183.869 416.77 202.457C425.614 221.045 430.196 241.301 430.196 261.806H522.84Z" fill="url(#paint4_linear_566_2596)"/>
<path d="M522.84 261.806C522.84 219.233 510.833 177.487 488.143 141.165L409.102 188.462C422.897 210.544 430.196 235.924 430.196 261.806H522.84Z" fill="url(#paint5_linear_566_2596)"/>
<path d="M522.84 261.806C522.84 245.473 521.072 229.187 517.566 213.219L426.99 232.267C429.121 241.975 430.196 251.876 430.196 261.806H522.84Z" fill="#4DD09A"/>
<path d="M99.1689 183.836L95.5307 193.608H93.1507L89.6209 183.836H91.7209L94.3658 191.606L97.0829 183.836H99.1689ZM102.795 185.418L102.782 187.868H106.072L106.063 189.422H102.773L102.759 192.012H106.469L106.46 193.608H100.79L100.844 183.822H106.514L106.505 185.418H102.795ZM113.781 193.608L111.646 189.8H110.722L110.701 193.608H108.741L108.795 183.836H112.463C113.219 183.836 113.862 183.972 114.393 184.242C114.924 184.504 115.318 184.863 115.577 185.32C115.845 185.768 115.978 186.272 115.975 186.832C115.971 187.476 115.781 188.06 115.405 188.582C115.029 189.096 114.471 189.45 113.733 189.646L116.049 193.608H113.781ZM110.73 188.33H112.368C112.9 188.33 113.298 188.204 113.56 187.952C113.823 187.691 113.956 187.332 113.958 186.874C113.961 186.426 113.832 186.081 113.572 185.838C113.312 185.586 112.916 185.46 112.384 185.46H110.746L110.73 188.33ZM126.034 183.836L122.695 190.206L122.676 193.608H120.716L120.735 190.206L117.452 183.836H119.664L121.739 188.302L123.85 183.836H126.034ZM97.2029 207.86C97.2 208.383 97.0713 208.873 96.8167 209.33C96.5715 209.787 96.1821 210.156 95.6486 210.436C95.1244 210.716 94.4609 210.856 93.6583 210.856H92.0203L91.9994 214.608H90.0394L90.0937 204.836H93.6917C94.4477 204.836 95.091 204.967 95.6215 205.228C96.1521 205.489 96.5467 205.849 96.8055 206.306C97.0737 206.763 97.2061 207.281 97.2029 207.86ZM93.583 209.274C94.1244 209.274 94.5264 209.153 94.7891 208.91C95.0518 208.658 95.1844 208.308 95.1869 207.86C95.1922 206.908 94.6628 206.432 93.5988 206.432H92.0448L92.029 209.274H93.583ZM103.592 214.706C102.678 214.706 101.839 214.491 101.076 214.062C100.313 213.633 99.7097 213.04 99.2659 212.284C98.8222 211.519 98.603 210.655 98.6083 209.694C98.6136 208.742 98.8423 207.888 99.2945 207.132C99.7468 206.367 100.357 205.769 101.124 205.34C101.892 204.911 102.733 204.696 103.648 204.696C104.572 204.696 105.411 204.911 106.164 205.34C106.927 205.769 107.526 206.367 107.961 207.132C108.404 207.888 108.624 208.742 108.618 209.694C108.613 210.655 108.384 211.519 107.932 212.284C107.489 213.04 106.884 213.633 106.116 214.062C105.348 214.491 104.507 214.706 103.592 214.706ZM103.602 212.956C104.19 212.956 104.709 212.825 105.158 212.564C105.608 212.293 105.96 211.911 106.215 211.416C106.469 210.921 106.599 210.347 106.602 209.694C106.606 209.041 106.483 208.471 106.234 207.986C105.985 207.491 105.637 207.113 105.19 206.852C104.744 206.591 104.226 206.46 103.638 206.46C103.05 206.46 102.527 206.591 102.068 206.852C101.619 207.113 101.267 207.491 101.012 207.986C100.757 208.471 100.628 209.041 100.624 209.694C100.621 210.347 100.743 210.921 100.993 211.416C101.242 211.911 101.59 212.293 102.036 212.564C102.492 212.825 103.014 212.956 103.602 212.956ZM115.085 214.706C114.17 214.706 113.331 214.491 112.568 214.062C111.805 213.633 111.202 213.04 110.758 212.284C110.314 211.519 110.095 210.655 110.1 209.694C110.106 208.742 110.335 207.888 110.787 207.132C111.239 206.367 111.849 205.769 112.617 205.34C113.384 204.911 114.226 204.696 115.14 204.696C116.064 204.696 116.903 204.911 117.657 205.34C118.42 205.769 119.018 206.367 119.453 207.132C119.897 207.888 120.116 208.742 120.11 209.694C120.105 210.655 119.876 211.519 119.424 212.284C118.981 213.04 118.376 213.633 117.608 214.062C116.841 214.491 115.999 214.706 115.085 214.706ZM115.094 212.956C115.682 212.956 116.201 212.825 116.651 212.564C117.1 212.293 117.452 211.911 117.707 211.416C117.962 210.921 118.091 210.347 118.094 209.694C118.098 209.041 117.975 208.471 117.726 207.986C117.477 207.491 117.129 207.113 116.682 206.852C116.236 206.591 115.718 206.46 115.13 206.46C114.542 206.46 114.019 206.591 113.56 206.852C113.111 207.113 112.759 207.491 112.504 207.986C112.249 208.471 112.12 209.041 112.116 209.694C112.113 210.347 112.236 210.921 112.485 211.416C112.734 211.911 113.082 212.293 113.529 212.564C113.984 212.825 114.506 212.956 115.094 212.956ZM127.081 214.608L124.947 210.8H124.023L124.001 214.608H122.041L122.096 204.836H125.764C126.52 204.836 127.163 204.971 127.693 205.242C128.224 205.503 128.619 205.863 128.877 206.32C129.146 206.768 129.278 207.272 129.275 207.832C129.271 208.476 129.082 209.059 128.705 209.582C128.329 210.095 127.772 210.45 127.033 210.646L129.349 214.608H127.081ZM124.031 209.33H125.669C126.201 209.33 126.598 209.204 126.861 208.952C127.124 208.691 127.256 208.331 127.259 207.874C127.261 207.426 127.133 207.081 126.873 206.838C126.613 206.586 126.217 206.46 125.685 206.46H124.047L124.031 209.33Z" fill="white"/>
<path d="M178.336 103.135C178.333 103.657 178.205 104.147 177.95 104.605C177.705 105.062 177.315 105.431 176.782 105.711C176.258 105.991 175.594 106.131 174.792 106.131H173.154L173.133 109.883H171.173L171.227 100.111H174.825C175.581 100.111 176.224 100.241 176.755 100.503C177.285 100.764 177.68 101.123 177.939 101.581C178.207 102.038 178.339 102.556 178.336 103.135ZM174.716 104.549C175.258 104.549 175.66 104.427 175.922 104.185C176.185 103.933 176.318 103.583 176.32 103.135C176.326 102.183 175.796 101.707 174.732 101.707H173.178L173.162 104.549H174.716ZM184.726 109.981C183.811 109.981 182.972 109.766 182.209 109.337C181.446 108.907 180.843 108.315 180.399 107.559C179.955 106.793 179.736 105.93 179.742 104.969C179.747 104.017 179.976 103.163 180.428 102.407C180.88 101.641 181.49 101.044 182.258 100.615C183.026 100.185 183.867 99.9707 184.781 99.9707C185.705 99.9707 186.544 100.185 187.298 100.615C188.061 101.044 188.659 101.641 189.094 102.407C189.538 103.163 189.757 104.017 189.752 104.969C189.746 105.93 189.517 106.793 189.065 107.559C188.622 108.315 188.017 108.907 187.249 109.337C186.482 109.766 185.64 109.981 184.726 109.981ZM184.736 108.231C185.324 108.231 185.842 108.1 186.292 107.839C186.741 107.568 187.093 107.185 187.348 106.691C187.603 106.196 187.732 105.622 187.736 104.969C187.739 104.315 187.616 103.746 187.367 103.261C187.118 102.766 186.77 102.388 186.323 102.127C185.877 101.865 185.36 101.735 184.772 101.735C184.184 101.735 183.66 101.865 183.201 102.127C182.752 102.388 182.4 102.766 182.145 103.261C181.89 103.746 181.761 104.315 181.758 104.969C181.754 105.622 181.877 106.196 182.126 106.691C182.375 107.185 182.723 107.568 183.17 107.839C183.626 108.1 184.148 108.231 184.736 108.231ZM196.218 109.981C195.303 109.981 194.465 109.766 193.702 109.337C192.939 108.907 192.335 108.315 191.891 107.559C191.448 106.793 191.228 105.93 191.234 104.969C191.239 104.017 191.468 103.163 191.92 102.407C192.372 101.641 192.982 101.044 193.75 100.615C194.518 100.185 195.359 99.9707 196.274 99.9707C197.198 99.9707 198.036 100.185 198.79 100.615C199.553 101.044 200.152 101.641 200.586 102.407C201.03 103.163 201.249 104.017 201.244 104.969C201.238 105.93 201.01 106.793 200.557 107.559C200.115 108.315 199.509 108.907 198.742 109.337C197.974 109.766 197.133 109.981 196.218 109.981ZM196.228 108.231C196.816 108.231 197.334 108.1 197.784 107.839C198.233 107.568 198.586 107.185 198.84 106.691C199.095 106.196 199.224 105.622 199.228 104.969C199.231 104.315 199.109 103.746 198.859 103.261C198.61 102.766 198.262 102.388 197.816 102.127C197.369 101.865 196.852 101.735 196.264 101.735C195.676 101.735 195.152 101.865 194.694 102.127C194.244 102.388 193.892 102.766 193.637 103.261C193.383 103.746 193.253 104.315 193.25 104.969C193.246 105.622 193.369 106.196 193.618 106.691C193.868 107.185 194.215 107.568 194.662 107.839C195.118 108.1 195.64 108.231 196.228 108.231ZM208.215 109.883L206.08 106.075H205.156L205.135 109.883H203.175L203.229 100.111H206.897C207.653 100.111 208.296 100.246 208.827 100.517C209.357 100.778 209.752 101.137 210.011 101.595C210.279 102.043 210.411 102.547 210.408 103.107C210.405 103.751 210.215 104.334 209.839 104.857C209.462 105.37 208.905 105.725 208.167 105.921L210.483 109.883H208.215ZM205.164 104.605H206.802C207.334 104.605 207.731 104.479 207.994 104.227C208.257 103.965 208.39 103.606 208.392 103.149C208.395 102.701 208.266 102.355 208.006 102.113C207.746 101.861 207.35 101.735 206.818 101.735H205.18L205.164 104.605Z" fill="white"/>
<path d="M281.293 74.687V76.269H277.219V78.775H280.341V80.329H277.219V84.459H275.259V74.687H281.293ZM289.175 82.597H285.283L284.639 84.459H282.581L286.095 74.673H288.377L291.891 84.459H289.819L289.175 82.597ZM288.643 81.029L287.229 76.941L285.815 81.029H288.643ZM295.664 74.687V84.459H293.704V74.687H295.664ZM303.141 84.459L300.985 80.651H300.061V84.459H298.101V74.687H301.769C302.525 74.687 303.169 74.8223 303.701 75.093C304.233 75.3543 304.629 75.7137 304.891 76.171C305.161 76.619 305.297 77.123 305.297 77.683C305.297 78.327 305.11 78.9103 304.737 79.433C304.363 79.9463 303.808 80.301 303.071 80.497L305.409 84.459H303.141ZM300.061 79.181H301.699C302.231 79.181 302.627 79.055 302.889 78.803C303.15 78.5417 303.281 78.1823 303.281 77.725C303.281 77.277 303.15 76.9317 302.889 76.689C302.627 76.437 302.231 76.311 301.699 76.311H300.061V79.181Z" fill="white"/>
<path d="M361.485 92.8925C361.259 92.4819 360.949 92.1692 360.556 91.9545C360.163 91.7399 359.705 91.6325 359.183 91.6325C358.604 91.6325 358.091 91.7632 357.645 92.0245C357.198 92.2859 356.85 92.6592 356.6 93.1445C356.351 93.6298 356.227 94.1898 356.23 94.8245C356.234 95.4778 356.362 96.0471 356.617 96.5325C356.88 97.0178 357.242 97.3911 357.7 97.6525C358.159 97.9138 358.692 98.0445 359.298 98.0445C360.045 98.0445 360.655 97.8485 361.129 97.4565C361.603 97.0551 361.913 96.4998 362.059 95.7905H358.699L358.692 94.2925H363.984L363.992 96.0005C363.865 96.6818 363.588 97.3118 363.161 97.8905C362.735 98.4691 362.182 98.9358 361.502 99.2904C360.832 99.6358 360.077 99.8084 359.237 99.8084C358.294 99.8084 357.439 99.5984 356.672 99.1784C355.914 98.7491 355.313 98.1565 354.871 97.4005C354.438 96.6445 354.219 95.7858 354.214 94.8245C354.21 93.8632 354.42 93.0045 354.846 92.2485C355.281 91.4832 355.875 90.8905 356.629 90.4705C357.392 90.0412 358.241 89.8265 359.174 89.8265C360.275 89.8265 361.233 90.0972 362.048 90.6385C362.862 91.1705 363.426 91.9219 363.739 92.8925H361.485ZM370.497 99.8224C369.582 99.8224 368.741 99.6078 367.974 99.1784C367.206 98.7491 366.597 98.1565 366.145 97.4005C365.693 96.6351 365.465 95.7718 365.46 94.8105C365.456 93.8585 365.676 93.0045 366.12 92.2485C366.564 91.4832 367.168 90.8859 367.931 90.4565C368.694 90.0272 369.533 89.8125 370.448 89.8125C371.372 89.8125 372.213 90.0272 372.971 90.4565C373.738 90.8859 374.343 91.4832 374.786 92.2485C375.238 93.0045 375.466 93.8585 375.47 94.8105C375.475 95.7718 375.255 96.6351 374.811 97.4005C374.376 98.1565 373.777 98.7491 373.014 99.1784C372.251 99.6078 371.412 99.8224 370.497 99.8224ZM370.488 98.0725C371.076 98.0725 371.594 97.9418 372.04 97.6805C372.487 97.4098 372.835 97.0271 373.085 96.5325C373.334 96.0378 373.458 95.4638 373.454 94.8105C373.451 94.1572 373.322 93.5878 373.068 93.1025C372.814 92.6078 372.462 92.2299 372.012 91.9685C371.563 91.7072 371.045 91.5765 370.457 91.5765C369.869 91.5765 369.347 91.7072 368.89 91.9685C368.444 92.2299 368.096 92.6078 367.846 93.1025C367.596 93.5878 367.473 94.1572 367.476 94.8105C367.48 95.4638 367.608 96.0378 367.863 96.5325C368.117 97.0271 368.469 97.4098 368.918 97.6805C369.377 97.9418 369.9 98.0725 370.488 98.0725ZM381.989 99.8224C381.075 99.8224 380.233 99.6078 379.466 99.1784C378.699 98.7491 378.089 98.1565 377.637 97.4005C377.186 96.6351 376.957 95.7718 376.953 94.8105C376.948 93.8585 377.168 93.0045 377.612 92.2485C378.056 91.4832 378.66 90.8859 379.423 90.4565C380.186 90.0272 381.025 89.8125 381.94 89.8125C382.864 89.8125 383.705 90.0272 384.463 90.4565C385.231 90.8859 385.836 91.4832 386.278 92.2485C386.73 93.0045 386.958 93.8585 386.963 94.8105C386.967 95.7718 386.748 96.6351 386.303 97.4005C385.868 98.1565 385.269 98.7491 384.506 99.1784C383.743 99.6078 382.904 99.8224 381.989 99.8224ZM381.981 98.0725C382.569 98.0725 383.086 97.9418 383.533 97.6805C383.979 97.4098 384.327 97.0271 384.577 96.5325C384.827 96.0378 384.95 95.4638 384.947 94.8105C384.943 94.1572 384.815 93.5878 384.56 93.1025C384.306 92.6078 383.954 92.2299 383.505 91.9685C383.055 91.7072 382.537 91.5765 381.949 91.5765C381.361 91.5765 380.839 91.7072 380.383 91.9685C379.936 92.2299 379.588 92.6078 379.338 93.1025C379.089 93.5878 378.965 94.1572 378.969 94.8105C378.972 95.4638 379.101 96.0378 379.355 96.5325C379.609 97.0271 379.961 97.4098 380.411 97.6805C380.869 97.9418 381.393 98.0725 381.981 98.0725ZM392.313 89.9525C393.34 89.9525 394.241 90.1532 395.018 90.5545C395.804 90.9559 396.409 91.5299 396.832 92.2765C397.265 93.0138 397.484 93.8725 397.489 94.8525C397.494 95.8325 397.283 96.6911 396.858 97.4285C396.441 98.1565 395.842 98.7211 395.06 99.1224C394.287 99.5238 393.388 99.7244 392.361 99.7244H388.945L388.897 89.9525H392.313ZM392.283 98.0585C393.309 98.0585 394.101 97.7785 394.659 97.2185C395.216 96.6585 395.492 95.8698 395.487 94.8525C395.482 93.8352 395.198 93.0418 394.635 92.4725C394.072 91.8939 393.278 91.6045 392.251 91.6045H390.865L390.897 98.0585H392.283Z" fill="white"/>
<path d="M424.792 125.367L421.271 135.138H418.891L415.244 125.367H417.344L420.082 133.136L422.706 125.367H424.792ZM428.438 126.949L428.453 129.398H431.743L431.753 130.952H428.463L428.48 133.542H432.19L432.2 135.138H426.53L426.468 125.353H432.138L432.148 126.949H428.438ZM439.521 135.138L437.341 131.33H436.417L436.441 135.138H434.481L434.419 125.367H438.087C438.843 125.367 439.488 125.502 440.021 125.773C440.555 126.034 440.954 126.393 441.218 126.851C441.492 127.299 441.63 127.803 441.634 128.363C441.638 129.006 441.455 129.59 441.085 130.112C440.715 130.626 440.162 130.98 439.426 131.176L441.789 135.138H439.521ZM436.408 129.86H438.046C438.578 129.86 438.973 129.734 439.233 129.482C439.493 129.221 439.621 128.862 439.618 128.405C439.615 127.957 439.482 127.611 439.22 127.369C438.957 127.117 438.559 126.991 438.027 126.991H436.389L436.408 129.86ZM451.658 125.367L448.394 131.736L448.416 135.138H446.456L446.434 131.736L443.076 125.367H445.288L447.416 129.832L449.474 125.367H451.658ZM419.226 149.306C418.999 148.895 418.689 148.583 418.296 148.368C417.902 148.153 417.444 148.046 416.922 148.046C416.343 148.046 415.83 148.177 415.384 148.438C414.938 148.699 414.59 149.073 414.341 149.558C414.092 150.043 413.97 150.603 413.974 151.238C413.978 151.891 414.108 152.461 414.363 152.946C414.627 153.431 414.989 153.805 415.448 154.066C415.907 154.327 416.44 154.458 417.047 154.458C417.793 154.458 418.403 154.262 418.877 153.87C419.35 153.469 419.659 152.913 419.804 152.204H416.444L416.435 150.706H421.727L421.738 152.414C421.611 153.095 421.335 153.725 420.91 154.304C420.484 154.883 419.932 155.349 419.253 155.704C418.583 156.049 417.828 156.222 416.988 156.222C416.045 156.222 415.19 156.012 414.422 155.592C413.663 155.163 413.062 154.57 412.619 153.814C412.184 153.058 411.964 152.199 411.958 151.238C411.952 150.277 412.161 149.418 412.586 148.662C413.019 147.897 413.613 147.304 414.366 146.884C415.129 146.455 415.977 146.24 416.91 146.24C418.011 146.24 418.97 146.511 419.785 147.052C420.601 147.584 421.165 148.335 421.48 149.306H419.226ZM428.248 156.236C427.333 156.236 426.492 156.021 425.724 155.592C424.956 155.163 424.345 154.57 423.893 153.814C423.44 153.049 423.21 152.185 423.204 151.224C423.198 150.272 423.416 149.418 423.86 148.662C424.303 147.897 424.906 147.299 425.668 146.87C426.431 146.441 427.269 146.226 428.184 146.226C429.108 146.226 429.949 146.441 430.708 146.87C431.476 147.299 432.082 147.897 432.526 148.662C432.978 149.418 433.208 150.272 433.214 151.224C433.22 152.185 433.002 153.049 432.559 153.814C432.125 154.57 431.527 155.163 430.764 155.592C430.001 156.021 429.163 156.236 428.248 156.236ZM428.237 154.486C428.825 154.486 429.342 154.355 429.788 154.094C430.235 153.823 430.582 153.441 430.831 152.946C431.08 152.451 431.202 151.877 431.198 151.224C431.194 150.571 431.064 150.001 430.809 149.516C430.554 149.021 430.202 148.643 429.752 148.382C429.302 148.121 428.783 147.99 428.195 147.99C427.607 147.99 427.085 148.121 426.63 148.382C426.184 148.643 425.836 149.021 425.587 149.516C425.338 150.001 425.216 150.571 425.22 151.224C425.224 151.877 425.354 152.451 425.609 152.946C425.864 153.441 426.217 153.823 426.666 154.094C427.125 154.355 427.649 154.486 428.237 154.486ZM439.74 156.236C438.826 156.236 437.984 156.021 437.216 155.592C436.448 155.163 435.838 154.57 435.385 153.814C434.932 153.049 434.702 152.185 434.696 151.224C434.69 150.272 434.909 149.418 435.352 148.662C435.795 147.897 436.398 147.299 437.16 146.87C437.923 146.441 438.762 146.226 439.676 146.226C440.6 146.226 441.442 146.441 442.2 146.87C442.968 147.299 443.574 147.897 444.018 148.662C444.471 149.418 444.7 150.272 444.706 151.224C444.712 152.185 444.494 153.049 444.051 153.814C443.617 154.57 443.019 155.163 442.256 155.592C441.494 156.021 440.655 156.236 439.74 156.236ZM439.729 154.486C440.317 154.486 440.834 154.355 441.281 154.094C441.727 153.823 442.074 153.441 442.323 152.946C442.572 152.451 442.694 151.877 442.69 151.224C442.686 150.571 442.556 150.001 442.301 149.516C442.046 149.021 441.694 148.643 441.244 148.382C440.794 148.121 440.276 147.99 439.688 147.99C439.1 147.99 438.578 148.121 438.122 148.382C437.676 148.643 437.328 149.021 437.079 149.516C436.83 150.001 436.708 150.571 436.712 151.224C436.716 151.877 436.846 152.451 437.101 152.946C437.356 153.441 437.709 153.823 438.159 154.094C438.618 154.355 439.141 154.486 439.729 154.486ZM450.049 146.366C451.076 146.366 451.978 146.567 452.755 146.968C453.542 147.369 454.147 147.943 454.572 148.69C455.006 149.427 455.226 150.286 455.233 151.266C455.239 152.246 455.03 153.105 454.605 153.842C454.19 154.57 453.591 155.135 452.81 155.536C452.038 155.937 451.139 156.138 450.112 156.138H446.696L446.633 146.366H450.049ZM450.031 154.472C451.058 154.472 451.849 154.192 452.406 153.632C452.962 153.072 453.237 152.283 453.231 151.266C453.224 150.249 452.939 149.455 452.375 148.886C451.812 148.307 451.017 148.018 449.99 148.018H448.604L448.645 154.472H450.031Z" fill="white"/>
<path d="M432.603 198.22L432.807 200.662L436.086 200.389L436.215 201.937L432.936 202.21L433.151 204.792L436.848 204.483L436.981 206.074L431.33 206.545L430.518 196.793L436.168 196.322L436.301 197.912L432.603 198.22ZM445.086 205.399L442.706 202.295L441.068 205.733L438.863 205.917L441.524 200.75L438.01 196.182L440.256 195.995L442.635 199.084L444.26 195.661L446.465 195.478L443.817 200.629L447.332 205.211L445.086 205.399ZM448.436 200.202C448.356 199.244 448.498 198.371 448.863 197.582C449.237 196.783 449.778 196.143 450.488 195.662C451.205 195.172 452.029 194.888 452.959 194.81C454.048 194.72 455.024 194.919 455.889 195.409C456.754 195.899 457.391 196.623 457.798 197.582L455.552 197.769C455.29 197.323 454.945 197 454.516 196.802C454.097 196.603 453.622 196.525 453.092 196.569C452.525 196.617 452.029 196.794 451.605 197.101C451.189 197.397 450.876 197.798 450.666 198.303C450.464 198.807 450.39 199.384 450.445 200.035C450.498 200.677 450.666 201.234 450.949 201.707C451.241 202.17 451.616 202.518 452.076 202.751C452.544 202.974 453.062 203.062 453.629 203.015C454.159 202.971 454.615 202.816 454.995 202.55C455.384 202.274 455.671 201.894 455.855 201.411L458.102 201.223C457.859 202.246 457.352 203.07 456.58 203.696C455.816 204.312 454.886 204.666 453.788 204.758C452.858 204.835 451.999 204.696 451.211 204.34C450.431 203.974 449.791 203.433 449.291 202.716C448.801 201.998 448.515 201.16 448.436 200.202ZM461.797 195.788L462.001 198.229L465.279 197.956L465.408 199.505L462.13 199.778L462.345 202.359L466.042 202.051L466.174 203.641L460.524 204.112L459.711 194.36L465.362 193.889L465.494 195.48L461.797 195.788ZM470.272 201.741L473.481 201.473L473.61 203.022L468.448 203.452L467.636 193.714L469.59 193.551L470.272 201.741ZM477.174 201.165L480.383 200.898L480.512 202.447L475.35 202.877L474.538 193.139L476.491 192.976L477.174 201.165ZM483.525 193.977L483.728 196.419L487.007 196.146L487.136 197.694L483.857 197.967L484.072 200.548L487.769 200.24L487.902 201.831L482.251 202.302L481.439 192.55L487.089 192.079L487.222 193.669L483.525 193.977ZM498.504 200.947L496.551 201.11L491.572 194.796L492.128 201.479L490.175 201.641L489.363 191.889L491.316 191.727L496.297 198.055L495.739 191.358L497.692 191.195L498.504 200.947ZM506.748 190.455L506.88 192.031L504.285 192.247L504.965 200.409L503.012 200.572L502.332 192.41L499.737 192.626L499.605 191.05L506.748 190.455Z" fill="white"/>
<path d="M439.065 242.012V244.112H441.885V245.444H439.065V247.664H442.245V249.032H437.385V240.644H442.245V242.012H439.065ZM449.287 249.032L447.475 246.212L445.831 249.032H443.935L446.575 244.808L443.899 240.656H445.831L447.643 243.464L449.275 240.656H451.171L448.543 244.868L451.219 249.032H449.287ZM452.59 244.832C452.59 244.008 452.774 243.272 453.142 242.624C453.518 241.968 454.026 241.46 454.666 241.1C455.314 240.732 456.038 240.548 456.838 240.548C457.774 240.548 458.594 240.788 459.298 241.268C460.002 241.748 460.494 242.412 460.774 243.26H458.842C458.65 242.86 458.378 242.56 458.026 242.36C457.682 242.16 457.282 242.06 456.826 242.06C456.338 242.06 455.902 242.176 455.518 242.408C455.142 242.632 454.846 242.952 454.63 243.368C454.422 243.784 454.318 244.272 454.318 244.832C454.318 245.384 454.422 245.872 454.63 246.296C454.846 246.712 455.142 247.036 455.518 247.268C455.902 247.492 456.338 247.604 456.826 247.604C457.282 247.604 457.682 247.504 458.026 247.304C458.378 247.096 458.65 246.792 458.842 246.392H460.774C460.494 247.248 460.002 247.916 459.298 248.396C458.602 248.868 457.782 249.104 456.838 249.104C456.038 249.104 455.314 248.924 454.666 248.564C454.026 248.196 453.518 247.688 453.142 247.04C452.774 246.392 452.59 245.656 452.59 244.832ZM464.389 242.012V244.112H467.209V245.444H464.389V247.664H467.569V249.032H462.709V240.644H467.569V242.012H464.389ZM475.704 243.248C475.704 243.696 475.596 244.116 475.38 244.508C475.172 244.9 474.84 245.216 474.384 245.456C473.936 245.696 473.368 245.816 472.68 245.816H471.276V249.032H469.596V240.656H472.68C473.328 240.656 473.88 240.768 474.336 240.992C474.792 241.216 475.132 241.524 475.356 241.916C475.588 242.308 475.704 242.752 475.704 243.248ZM472.608 244.46C473.072 244.46 473.416 244.356 473.64 244.148C473.864 243.932 473.976 243.632 473.976 243.248C473.976 242.432 473.52 242.024 472.608 242.024H471.276V244.46H472.608ZM483.096 240.656V242.012H480.864V249.032H479.184V242.012H476.952V240.656H483.096ZM486.502 240.656V249.032H484.822V240.656H486.502ZM492.55 249.116C491.766 249.116 491.046 248.932 490.39 248.564C489.734 248.196 489.214 247.688 488.83 247.04C488.446 246.384 488.254 245.644 488.254 244.82C488.254 244.004 488.446 243.272 488.83 242.624C489.214 241.968 489.734 241.456 490.39 241.088C491.046 240.72 491.766 240.536 492.55 240.536C493.342 240.536 494.062 240.72 494.71 241.088C495.366 241.456 495.882 241.968 496.258 242.624C496.642 243.272 496.834 244.004 496.834 244.82C496.834 245.644 496.642 246.384 496.258 247.04C495.882 247.688 495.366 248.196 494.71 248.564C494.054 248.932 493.334 249.116 492.55 249.116ZM492.55 247.616C493.054 247.616 493.498 247.504 493.882 247.28C494.266 247.048 494.566 246.72 494.782 246.296C494.998 245.872 495.106 245.38 495.106 244.82C495.106 244.26 494.998 243.772 494.782 243.356C494.566 242.932 494.266 242.608 493.882 242.384C493.498 242.16 493.054 242.048 492.55 242.048C492.046 242.048 491.598 242.16 491.206 242.384C490.822 242.608 490.522 242.932 490.306 243.356C490.09 243.772 489.982 244.26 489.982 244.82C489.982 245.38 490.09 245.872 490.306 246.296C490.522 246.72 490.822 247.048 491.206 247.28C491.598 247.504 492.046 247.616 492.55 247.616ZM505.748 249.032H504.068L500.264 243.284V249.032H498.584V240.644H500.264L504.068 246.404V240.644H505.748V249.032ZM513.044 247.436H509.708L509.156 249.032H507.392L510.404 240.644H512.36L515.372 249.032H513.596L513.044 247.436ZM512.588 246.092L511.376 242.588L510.164 246.092H512.588ZM518.678 247.7H521.438V249.032H516.998V240.656H518.678V247.7Z" fill="white"/>
<g filter="url(#filter0_d_566_2596)">
<line x1="113.183" y1="105.307" x2="179.621" y2="167.215" stroke="#E2E2E2" stroke-linecap="round"/>
</g>
<g filter="url(#filter1_d_566_2596)">
<line x1="232.163" y1="37.7526" x2="255.562" y2="123.802" stroke="#E2E2E2" stroke-linecap="round"/>
</g>
<g filter="url(#filter2_d_566_2596)">
<line x1="338.897" y1="37.2291" x2="320.682" y2="124.791" stroke="#E2E2E2" stroke-linecap="round"/>
</g>
<g filter="url(#filter3_d_566_2596)">
<line x1="437.404" y1="83.904" x2="377.278" y2="151.958" stroke="#E2E2E2" stroke-linecap="round"/>
</g>
<g filter="url(#filter4_d_566_2596)">
<line x1="517.357" y1="215.813" x2="426.753" y2="229.144" stroke="#E2E2E2" stroke-linecap="round"/>
</g>
<g filter="url(#filter5_d_566_2596)">
<line x1="489.484" y1="143.417" x2="410.84" y2="188.822" stroke="#E2E2E2" stroke-linecap="round"/>
</g>
<rect x="0.44043" y="264.627" width="42.746" height="22.3022" rx="11.1511" fill="#FF5757"/>
<path d="M8.84 273.426C8.90533 272.567 9.23667 271.895 9.834 271.41C10.4313 270.925 11.206 270.682 12.158 270.682C12.7927 270.682 13.3387 270.799 13.796 271.032C14.2627 271.256 14.6127 271.564 14.846 271.956C15.0887 272.348 15.21 272.791 15.21 273.286C15.21 273.865 15.042 274.364 14.706 274.784C14.3793 275.204 13.95 275.475 13.418 275.596V275.666C14.0247 275.815 14.5053 276.109 14.86 276.548C15.2147 276.987 15.392 277.561 15.392 278.27C15.392 278.802 15.2707 279.283 15.028 279.712C14.7853 280.132 14.4213 280.463 13.936 280.706C13.4507 280.949 12.8673 281.07 12.186 281.07C11.1967 281.07 10.3847 280.813 9.75 280.3C9.11533 279.777 8.76067 279.04 8.686 278.088H9.918C9.98333 278.648 10.212 279.105 10.604 279.46C10.996 279.815 11.5187 279.992 12.172 279.992C12.8253 279.992 13.32 279.824 13.656 279.488C14.0013 279.143 14.174 278.699 14.174 278.158C14.174 277.458 13.9407 276.954 13.474 276.646C13.0073 276.338 12.3027 276.184 11.36 276.184H11.038V275.12H11.374C12.2327 275.111 12.8813 274.971 13.32 274.7C13.7587 274.42 13.978 273.991 13.978 273.412C13.978 272.917 13.8147 272.521 13.488 272.222C13.1707 271.923 12.7133 271.774 12.116 271.774C11.5373 271.774 11.0707 271.923 10.716 272.222C10.3613 272.521 10.1513 272.922 10.086 273.426H8.84ZM17.6121 275.834C17.6121 274.229 17.8735 272.978 18.3961 272.082C18.9188 271.177 19.8335 270.724 21.1401 270.724C22.4375 270.724 23.3475 271.177 23.8701 272.082C24.3928 272.978 24.6541 274.229 24.6541 275.834C24.6541 277.467 24.3928 278.737 23.8701 279.642C23.3475 280.547 22.4375 281 21.1401 281C19.8335 281 18.9188 280.547 18.3961 279.642C17.8735 278.737 17.6121 277.467 17.6121 275.834ZM23.3941 275.834C23.3941 275.022 23.3381 274.336 23.2261 273.776C23.1235 273.207 22.9041 272.749 22.5681 272.404C22.2415 272.059 21.7655 271.886 21.1401 271.886C20.5055 271.886 20.0201 272.059 19.6841 272.404C19.3575 272.749 19.1381 273.207 19.0261 273.776C18.9235 274.336 18.8721 275.022 18.8721 275.834C18.8721 276.674 18.9235 277.379 19.0261 277.948C19.1381 278.517 19.3575 278.975 19.6841 279.32C20.0201 279.665 20.5055 279.838 21.1401 279.838C21.7655 279.838 22.2415 279.665 22.5681 279.32C22.9041 278.975 23.1235 278.517 23.2261 277.948C23.3381 277.379 23.3941 276.674 23.3941 275.834ZM26.9032 275.834C26.9032 274.229 27.1645 272.978 27.6872 272.082C28.2098 271.177 29.1245 270.724 30.4312 270.724C31.7285 270.724 32.6385 271.177 33.1612 272.082C33.6838 272.978 33.9452 274.229 33.9452 275.834C33.9452 277.467 33.6838 278.737 33.1612 279.642C32.6385 280.547 31.7285 281 30.4312 281C29.1245 281 28.2098 280.547 27.6872 279.642C27.1645 278.737 26.9032 277.467 26.9032 275.834ZM32.6852 275.834C32.6852 275.022 32.6292 274.336 32.5172 273.776C32.4145 273.207 32.1952 272.749 31.8592 272.404C31.5325 272.059 31.0565 271.886 30.4312 271.886C29.7965 271.886 29.3112 272.059 28.9752 272.404C28.6485 272.749 28.4292 273.207 28.3172 273.776C28.2145 274.336 28.1632 275.022 28.1632 275.834C28.1632 276.674 28.2145 277.379 28.3172 277.948C28.4292 278.517 28.6485 278.975 28.9752 279.32C29.3112 279.665 29.7965 279.838 30.4312 279.838C31.0565 279.838 31.5325 279.665 31.8592 279.32C32.1952 278.975 32.4145 278.517 32.5172 277.948C32.6292 277.379 32.6852 276.674 32.6852 275.834Z" fill="white"/>
<rect x="528.341" y="265.627" width="42.746" height="22.3022" rx="11.1511" fill="#4DD09A"/>
<path d="M539.506 279.284C539.599 279.816 539.814 280.227 540.15 280.516C540.495 280.805 540.957 280.95 541.536 280.95C542.311 280.95 542.88 280.647 543.244 280.04C543.617 279.433 543.795 278.411 543.776 276.974C543.58 277.394 543.253 277.725 542.796 277.968C542.339 278.201 541.83 278.318 541.27 278.318C540.645 278.318 540.085 278.192 539.59 277.94C539.105 277.679 538.722 277.301 538.442 276.806C538.162 276.311 538.022 275.714 538.022 275.014C538.022 274.015 538.311 273.213 538.89 272.606C539.469 271.99 540.29 271.682 541.354 271.682C542.661 271.682 543.575 272.107 544.098 272.956C544.63 273.805 544.896 275.07 544.896 276.75C544.896 277.926 544.789 278.897 544.574 279.662C544.369 280.427 544.014 281.011 543.51 281.412C543.015 281.813 542.334 282.014 541.466 282.014C540.514 282.014 539.772 281.757 539.24 281.244C538.708 280.731 538.405 280.077 538.33 279.284H539.506ZM541.48 277.24C542.105 277.24 542.619 277.049 543.02 276.666C543.421 276.274 543.622 275.747 543.622 275.084C543.622 274.384 543.426 273.819 543.034 273.39C542.642 272.961 542.091 272.746 541.382 272.746C540.729 272.746 540.206 272.951 539.814 273.362C539.431 273.773 539.24 274.314 539.24 274.986C539.24 275.667 539.431 276.213 539.814 276.624C540.197 277.035 540.752 277.24 541.48 277.24ZM547.186 276.834C547.186 275.229 547.448 273.978 547.97 273.082C548.493 272.177 549.408 271.724 550.714 271.724C552.012 271.724 552.922 272.177 553.444 273.082C553.967 273.978 554.228 275.229 554.228 276.834C554.228 278.467 553.967 279.737 553.444 280.642C552.922 281.547 552.012 282 550.714 282C549.408 282 548.493 281.547 547.97 280.642C547.448 279.737 547.186 278.467 547.186 276.834ZM552.968 276.834C552.968 276.022 552.912 275.336 552.8 274.776C552.698 274.207 552.478 273.749 552.142 273.404C551.816 273.059 551.34 272.886 550.714 272.886C550.08 272.886 549.594 273.059 549.258 273.404C548.932 273.749 548.712 274.207 548.6 274.776C548.498 275.336 548.446 276.022 548.446 276.834C548.446 277.674 548.498 278.379 548.6 278.948C548.712 279.517 548.932 279.975 549.258 280.32C549.594 280.665 550.08 280.838 550.714 280.838C551.34 280.838 551.816 280.665 552.142 280.32C552.478 279.975 552.698 279.517 552.8 278.948C552.912 278.379 552.968 277.674 552.968 276.834ZM556.477 276.834C556.477 275.229 556.739 273.978 557.261 273.082C557.784 272.177 558.699 271.724 560.005 271.724C561.303 271.724 562.213 272.177 562.735 273.082C563.258 273.978 563.519 275.229 563.519 276.834C563.519 278.467 563.258 279.737 562.735 280.642C562.213 281.547 561.303 282 560.005 282C558.699 282 557.784 281.547 557.261 280.642C556.739 279.737 556.477 278.467 556.477 276.834ZM562.259 276.834C562.259 276.022 562.203 275.336 562.091 274.776C561.989 274.207 561.769 273.749 561.433 273.404C561.107 273.059 560.631 272.886 560.005 272.886C559.371 272.886 558.885 273.059 558.549 273.404C558.223 273.749 558.003 274.207 557.891 274.776C557.789 275.336 557.737 276.022 557.737 276.834C557.737 277.674 557.789 278.379 557.891 278.948C558.003 279.517 558.223 279.975 558.549 280.32C558.885 280.665 559.371 280.838 560.005 280.838C560.631 280.838 561.107 280.665 561.433 280.32C561.769 279.975 561.989 279.517 562.091 278.948C562.203 278.379 562.259 277.674 562.259 276.834Z" fill="white"/>
<rect x="531.341" y="204.438" width="42.746" height="21.373" rx="10.6865" fill="#3AA7A3"/>
<path d="M542.716 215.736C542.193 215.531 541.792 215.232 541.512 214.84C541.232 214.448 541.092 213.972 541.092 213.412C541.092 212.908 541.218 212.455 541.47 212.054C541.722 211.643 542.095 211.321 542.59 211.088C543.094 210.845 543.701 210.724 544.41 210.724C545.119 210.724 545.721 210.845 546.216 211.088C546.72 211.321 547.098 211.643 547.35 212.054C547.611 212.455 547.742 212.908 547.742 213.412C547.742 213.953 547.597 214.429 547.308 214.84C547.019 215.241 546.622 215.54 546.118 215.736C546.697 215.913 547.154 216.226 547.49 216.674C547.835 217.113 548.008 217.645 548.008 218.27C548.008 218.877 547.859 219.409 547.56 219.866C547.261 220.314 546.837 220.664 546.286 220.916C545.745 221.159 545.119 221.28 544.41 221.28C543.701 221.28 543.075 221.159 542.534 220.916C542.002 220.664 541.587 220.314 541.288 219.866C540.989 219.409 540.84 218.877 540.84 218.27C540.84 217.645 541.008 217.108 541.344 216.66C541.68 216.212 542.137 215.904 542.716 215.736ZM546.51 213.566C546.51 212.997 546.323 212.558 545.95 212.25C545.577 211.942 545.063 211.788 544.41 211.788C543.766 211.788 543.257 211.942 542.884 212.25C542.511 212.558 542.324 213.001 542.324 213.58C542.324 214.103 542.515 214.523 542.898 214.84C543.29 215.157 543.794 215.316 544.41 215.316C545.035 215.316 545.539 215.157 545.922 214.84C546.314 214.513 546.51 214.089 546.51 213.566ZM544.41 216.296C543.719 216.296 543.155 216.459 542.716 216.786C542.277 217.103 542.058 217.584 542.058 218.228C542.058 218.825 542.268 219.306 542.688 219.67C543.117 220.034 543.691 220.216 544.41 220.216C545.129 220.216 545.698 220.034 546.118 219.67C546.538 219.306 546.748 218.825 546.748 218.228C546.748 217.603 546.533 217.127 546.104 216.8C545.675 216.464 545.11 216.296 544.41 216.296ZM556.43 211.872L552.538 221H551.25L555.198 211.998H549.794V210.906H556.43V211.872ZM558.343 215.834C558.343 214.229 558.604 212.978 559.127 212.082C559.649 211.177 560.564 210.724 561.871 210.724C563.168 210.724 564.078 211.177 564.601 212.082C565.123 212.978 565.385 214.229 565.385 215.834C565.385 217.467 565.123 218.737 564.601 219.642C564.078 220.547 563.168 221 561.871 221C560.564 221 559.649 220.547 559.127 219.642C558.604 218.737 558.343 217.467 558.343 215.834ZM564.125 215.834C564.125 215.022 564.069 214.336 563.957 213.776C563.854 213.207 563.635 212.749 563.299 212.404C562.972 212.059 562.496 211.886 561.871 211.886C561.236 211.886 560.751 212.059 560.415 212.404C560.088 212.749 559.869 213.207 559.757 213.776C559.654 214.336 559.603 215.022 559.603 215.834C559.603 216.674 559.654 217.379 559.757 217.948C559.869 218.517 560.088 218.975 560.415 219.32C560.751 219.665 561.236 219.838 561.871 219.838C562.496 219.838 562.972 219.665 563.299 219.32C563.635 218.975 563.854 218.517 563.957 217.948C564.069 217.379 564.125 216.674 564.125 215.834Z" fill="white"/>
<rect x="55.5596" y="82.7041" width="43.6752" height="20.4437" rx="10.2219" fill="#F6778A"/>
<path d="M70.322 88.984H65.408V92.176C65.6227 91.8773 65.94 91.6347 66.36 91.448C66.78 91.252 67.2327 91.154 67.718 91.154C68.4927 91.154 69.1227 91.3173 69.608 91.644C70.0933 91.9613 70.4387 92.3767 70.644 92.89C70.8587 93.394 70.966 93.9307 70.966 94.5C70.966 95.172 70.84 95.774 70.588 96.306C70.336 96.838 69.9487 97.258 69.426 97.566C68.9127 97.874 68.2733 98.028 67.508 98.028C66.528 98.028 65.7347 97.776 65.128 97.272C64.5213 96.768 64.1527 96.096 64.022 95.256H65.268C65.3893 95.788 65.646 96.2033 66.038 96.502C66.43 96.8007 66.9247 96.95 67.522 96.95C68.2593 96.95 68.8147 96.7307 69.188 96.292C69.5613 95.844 69.748 95.256 69.748 94.528C69.748 93.8 69.5613 93.24 69.188 92.848C68.8147 92.4467 68.264 92.246 67.536 92.246C67.0413 92.246 66.6073 92.3673 66.234 92.61C65.87 92.8433 65.604 93.1653 65.436 93.576H64.232V87.864H70.322V88.984ZM73.159 92.834C73.159 91.2287 73.4203 89.978 73.943 89.082C74.4657 88.1767 75.3803 87.724 76.687 87.724C77.9843 87.724 78.8943 88.1767 79.417 89.082C79.9397 89.978 80.201 91.2287 80.201 92.834C80.201 94.4673 79.9397 95.7367 79.417 96.642C78.8943 97.5473 77.9843 98 76.687 98C75.3803 98 74.4657 97.5473 73.943 96.642C73.4203 95.7367 73.159 94.4673 73.159 92.834ZM78.941 92.834C78.941 92.022 78.885 91.336 78.773 90.776C78.6703 90.2067 78.451 89.7493 78.115 89.404C77.7883 89.0587 77.3123 88.886 76.687 88.886C76.0523 88.886 75.567 89.0587 75.231 89.404C74.9043 89.7493 74.685 90.2067 74.573 90.776C74.4703 91.336 74.419 92.022 74.419 92.834C74.419 93.674 74.4703 94.3787 74.573 94.948C74.685 95.5173 74.9043 95.9747 75.231 96.32C75.567 96.6653 76.0523 96.838 76.687 96.838C77.3123 96.838 77.7883 96.6653 78.115 96.32C78.451 95.9747 78.6703 95.5173 78.773 94.948C78.885 94.3787 78.941 93.674 78.941 92.834ZM82.45 92.834C82.45 91.2287 82.7114 89.978 83.234 89.082C83.7567 88.1767 84.6714 87.724 85.978 87.724C87.2754 87.724 88.1854 88.1767 88.708 89.082C89.2307 89.978 89.492 91.2287 89.492 92.834C89.492 94.4673 89.2307 95.7367 88.708 96.642C88.1854 97.5473 87.2754 98 85.978 98C84.6714 98 83.7567 97.5473 83.234 96.642C82.7114 95.7367 82.45 94.4673 82.45 92.834ZM88.232 92.834C88.232 92.022 88.176 91.336 88.064 90.776C87.9614 90.2067 87.742 89.7493 87.406 89.404C87.0794 89.0587 86.6034 88.886 85.978 88.886C85.3434 88.886 84.858 89.0587 84.522 89.404C84.1954 89.7493 83.976 90.2067 83.864 90.776C83.7614 91.336 83.71 92.022 83.71 92.834C83.71 93.674 83.7614 94.3787 83.864 94.948C83.976 95.5173 84.1954 95.9747 84.522 96.32C84.858 96.6653 85.3434 96.838 85.978 96.838C86.6034 96.838 87.0794 96.6653 87.406 96.32C87.742 95.9747 87.9614 95.5173 88.064 94.948C88.176 94.3787 88.232 93.674 88.232 92.834Z" fill="white"/>
<rect x="198.666" width="42.746" height="21.373" rx="10.6865" fill="#EE8EB0"/>
<path d="M214.322 6.984H209.408V10.176C209.623 9.87733 209.94 9.63467 210.36 9.448C210.78 9.252 211.233 9.154 211.718 9.154C212.493 9.154 213.123 9.31733 213.608 9.644C214.093 9.96133 214.439 10.3767 214.644 10.89C214.859 11.394 214.966 11.9307 214.966 12.5C214.966 13.172 214.84 13.774 214.588 14.306C214.336 14.838 213.949 15.258 213.426 15.566C212.913 15.874 212.273 16.028 211.508 16.028C210.528 16.028 209.735 15.776 209.128 15.272C208.521 14.768 208.153 14.096 208.022 13.256H209.268C209.389 13.788 209.646 14.2033 210.038 14.502C210.43 14.8007 210.925 14.95 211.522 14.95C212.259 14.95 212.815 14.7307 213.188 14.292C213.561 13.844 213.748 13.256 213.748 12.528C213.748 11.8 213.561 11.24 213.188 10.848C212.815 10.4467 212.264 10.246 211.536 10.246C211.041 10.246 210.607 10.3673 210.234 10.61C209.87 10.8433 209.604 11.1653 209.436 11.576H208.232V5.864H214.322V6.984ZM222.801 8.286C222.596 7.25 221.956 6.732 220.883 6.732C220.052 6.732 219.432 7.054 219.021 7.698C218.61 8.33267 218.41 9.38267 218.419 10.848C218.634 10.3627 218.988 9.98467 219.483 9.714C219.987 9.434 220.547 9.294 221.163 9.294C222.124 9.294 222.89 9.59267 223.459 10.19C224.038 10.7873 224.327 11.6133 224.327 12.668C224.327 13.3027 224.201 13.872 223.949 14.376C223.706 14.88 223.333 15.2813 222.829 15.58C222.334 15.8787 221.732 16.028 221.023 16.028C220.062 16.028 219.31 15.8133 218.769 15.384C218.228 14.9547 217.85 14.362 217.635 13.606C217.42 12.85 217.313 11.9167 217.313 10.806C217.313 7.38067 218.508 5.668 220.897 5.668C221.812 5.668 222.53 5.91533 223.053 6.41C223.576 6.90467 223.884 7.53 223.977 8.286H222.801ZM220.897 10.372C220.496 10.372 220.118 10.456 219.763 10.624C219.408 10.7827 219.119 11.03 218.895 11.366C218.68 11.6927 218.573 12.094 218.573 12.57C218.573 13.2793 218.778 13.858 219.189 14.306C219.6 14.7447 220.188 14.964 220.953 14.964C221.606 14.964 222.124 14.7633 222.507 14.362C222.899 13.9513 223.095 13.4007 223.095 12.71C223.095 11.982 222.908 11.4127 222.535 11.002C222.162 10.582 221.616 10.372 220.897 10.372ZM226.546 10.834C226.546 9.22867 226.807 7.978 227.33 7.082C227.852 6.17667 228.767 5.724 230.074 5.724C231.371 5.724 232.281 6.17667 232.804 7.082C233.326 7.978 233.588 9.22867 233.588 10.834C233.588 12.4673 233.326 13.7367 232.804 14.642C232.281 15.5473 231.371 16 230.074 16C228.767 16 227.852 15.5473 227.33 14.642C226.807 13.7367 226.546 12.4673 226.546 10.834ZM232.328 10.834C232.328 10.022 232.272 9.336 232.16 8.776C232.057 8.20667 231.838 7.74933 231.502 7.404C231.175 7.05867 230.699 6.886 230.074 6.886C229.439 6.886 228.954 7.05867 228.618 7.404C228.291 7.74933 228.072 8.20667 227.96 8.776C227.857 9.336 227.806 10.022 227.806 10.834C227.806 11.674 227.857 12.3787 227.96 12.948C228.072 13.5173 228.291 13.9747 228.618 14.32C228.954 14.6653 229.439 14.838 230.074 14.838C230.699 14.838 231.175 14.6653 231.502 14.32C231.838 13.9747 232.057 13.5173 232.16 12.948C232.272 12.3787 232.328 11.674 232.328 10.834Z" fill="white"/>
<rect x="325.975" y="1.8584" width="42.746" height="21.373" rx="10.6865" fill="#D3AAFF"/>
<path d="M340.51 10.286C340.305 9.25 339.665 8.732 338.592 8.732C337.761 8.732 337.141 9.054 336.73 9.698C336.319 10.3327 336.119 11.3827 336.128 12.848C336.343 12.3627 336.697 11.9847 337.192 11.714C337.696 11.434 338.256 11.294 338.872 11.294C339.833 11.294 340.599 11.5927 341.168 12.19C341.747 12.7873 342.036 13.6133 342.036 14.668C342.036 15.3027 341.91 15.872 341.658 16.376C341.415 16.88 341.042 17.2813 340.538 17.58C340.043 17.8787 339.441 18.028 338.732 18.028C337.771 18.028 337.019 17.8133 336.478 17.384C335.937 16.9547 335.559 16.362 335.344 15.606C335.129 14.85 335.022 13.9167 335.022 12.806C335.022 9.38067 336.217 7.668 338.606 7.668C339.521 7.668 340.239 7.91533 340.762 8.41C341.285 8.90467 341.593 9.53 341.686 10.286H340.51ZM338.606 12.372C338.205 12.372 337.827 12.456 337.472 12.624C337.117 12.7827 336.828 13.03 336.604 13.366C336.389 13.6927 336.282 14.094 336.282 14.57C336.282 15.2793 336.487 15.858 336.898 16.306C337.309 16.7447 337.897 16.964 338.662 16.964C339.315 16.964 339.833 16.7633 340.216 16.362C340.608 15.9513 340.804 15.4007 340.804 14.71C340.804 13.982 340.617 13.4127 340.244 13.002C339.871 12.582 339.325 12.372 338.606 12.372ZM350.709 8.984H345.795V12.176C346.009 11.8773 346.327 11.6347 346.747 11.448C347.167 11.252 347.619 11.154 348.105 11.154C348.879 11.154 349.509 11.3173 349.995 11.644C350.48 11.9613 350.825 12.3767 351.031 12.89C351.245 13.394 351.353 13.9307 351.353 14.5C351.353 15.172 351.227 15.774 350.975 16.306C350.723 16.838 350.335 17.258 349.813 17.566C349.299 17.874 348.66 18.028 347.895 18.028C346.915 18.028 346.121 17.776 345.515 17.272C344.908 16.768 344.539 16.096 344.409 15.256H345.655C345.776 15.788 346.033 16.2033 346.425 16.502C346.817 16.8007 347.311 16.95 347.909 16.95C348.646 16.95 349.201 16.7307 349.575 16.292C349.948 15.844 350.135 15.256 350.135 14.528C350.135 13.8 349.948 13.24 349.575 12.848C349.201 12.4467 348.651 12.246 347.923 12.246C347.428 12.246 346.994 12.3673 346.621 12.61C346.257 12.8433 345.991 13.1653 345.823 13.576H344.619V7.864H350.709V8.984ZM353.546 12.834C353.546 11.2287 353.807 9.978 354.33 9.082C354.852 8.17667 355.767 7.724 357.074 7.724C358.371 7.724 359.281 8.17667 359.804 9.082C360.326 9.978 360.588 11.2287 360.588 12.834C360.588 14.4673 360.326 15.7367 359.804 16.642C359.281 17.5473 358.371 18 357.074 18C355.767 18 354.852 17.5473 354.33 16.642C353.807 15.7367 353.546 14.4673 353.546 12.834ZM359.328 12.834C359.328 12.022 359.272 11.336 359.16 10.776C359.057 10.2067 358.838 9.74933 358.502 9.404C358.175 9.05867 357.699 8.886 357.074 8.886C356.439 8.886 355.954 9.05867 355.618 9.404C355.291 9.74933 355.072 10.2067 354.96 10.776C354.857 11.336 354.806 12.022 354.806 12.834C354.806 13.674 354.857 14.3787 354.96 14.948C355.072 15.5173 355.291 15.9747 355.618 16.32C355.954 16.6653 356.439 16.838 357.074 16.838C357.699 16.838 358.175 16.6653 358.502 16.32C358.838 15.9747 359.057 15.5173 359.16 14.948C359.272 14.3787 359.328 13.674 359.328 12.834Z" fill="white"/>
<rect x="450.495" y="55.7559" width="41.8167" height="21.373" rx="10.6865" fill="#7268FF"/>
<path d="M465.956 62.5566L462.064 71.6846H460.776L464.724 62.6826H459.32V61.5906H465.956V62.5566ZM467.561 69.4306V68.4646L472.475 61.6606H474.001V68.3246H475.401V69.4306H474.001V71.6846H472.741V69.4306H467.561ZM472.797 62.9906L469.031 68.3246H472.797V62.9906ZM477.174 66.5186C477.174 64.9132 477.435 63.6626 477.958 62.7666C478.48 61.8612 479.395 61.4086 480.702 61.4086C481.999 61.4086 482.909 61.8612 483.432 62.7666C483.954 63.6626 484.216 64.9132 484.216 66.5186C484.216 68.1519 483.954 69.4212 483.432 70.3266C482.909 71.2319 481.999 71.6846 480.702 71.6846C479.395 71.6846 478.48 71.2319 477.958 70.3266C477.435 69.4212 477.174 68.1519 477.174 66.5186ZM482.956 66.5186C482.956 65.7066 482.9 65.0206 482.788 64.4606C482.685 63.8912 482.466 63.4339 482.13 63.0886C481.803 62.7432 481.327 62.5706 480.702 62.5706C480.067 62.5706 479.582 62.7432 479.246 63.0886C478.919 63.4339 478.7 63.8912 478.588 64.4606C478.485 65.0206 478.434 65.7066 478.434 66.5186C478.434 67.3586 478.485 68.0632 478.588 68.6326C478.7 69.2019 478.919 69.6592 479.246 70.0046C479.582 70.3499 480.067 70.5226 480.702 70.5226C481.327 70.5226 481.803 70.3499 482.13 70.0046C482.466 69.6592 482.685 69.2019 482.788 68.6326C482.9 68.0632 482.956 67.3586 482.956 66.5186Z" fill="white"/>
<rect x="505.321" y="124.521" width="42.746" height="21.373" rx="10.6865" fill="#3972DB"/>
<path d="M515.716 134.736C515.193 134.531 514.792 134.232 514.512 133.84C514.232 133.448 514.092 132.972 514.092 132.412C514.092 131.908 514.218 131.455 514.47 131.054C514.722 130.643 515.095 130.321 515.59 130.088C516.094 129.845 516.701 129.724 517.41 129.724C518.119 129.724 518.721 129.845 519.216 130.088C519.72 130.321 520.098 130.643 520.35 131.054C520.611 131.455 520.742 131.908 520.742 132.412C520.742 132.953 520.597 133.429 520.308 133.84C520.019 134.241 519.622 134.54 519.118 134.736C519.697 134.913 520.154 135.226 520.49 135.674C520.835 136.113 521.008 136.645 521.008 137.27C521.008 137.877 520.859 138.409 520.56 138.866C520.261 139.314 519.837 139.664 519.286 139.916C518.745 140.159 518.119 140.28 517.41 140.28C516.701 140.28 516.075 140.159 515.534 139.916C515.002 139.664 514.587 139.314 514.288 138.866C513.989 138.409 513.84 137.877 513.84 137.27C513.84 136.645 514.008 136.108 514.344 135.66C514.68 135.212 515.137 134.904 515.716 134.736ZM519.51 132.566C519.51 131.997 519.323 131.558 518.95 131.25C518.577 130.942 518.063 130.788 517.41 130.788C516.766 130.788 516.257 130.942 515.884 131.25C515.511 131.558 515.324 132.001 515.324 132.58C515.324 133.103 515.515 133.523 515.898 133.84C516.29 134.157 516.794 134.316 517.41 134.316C518.035 134.316 518.539 134.157 518.922 133.84C519.314 133.513 519.51 133.089 519.51 132.566ZM517.41 135.296C516.719 135.296 516.155 135.459 515.716 135.786C515.277 136.103 515.058 136.584 515.058 137.228C515.058 137.825 515.268 138.306 515.688 138.67C516.117 139.034 516.691 139.216 517.41 139.216C518.129 139.216 518.698 139.034 519.118 138.67C519.538 138.306 519.748 137.825 519.748 137.228C519.748 136.603 519.533 136.127 519.104 135.8C518.675 135.464 518.11 135.296 517.41 135.296ZM523.2 134.834C523.2 133.229 523.461 131.978 523.984 131.082C524.507 130.177 525.421 129.724 526.728 129.724C528.025 129.724 528.935 130.177 529.458 131.082C529.981 131.978 530.242 133.229 530.242 134.834C530.242 136.467 529.981 137.737 529.458 138.642C528.935 139.547 528.025 140 526.728 140C525.421 140 524.507 139.547 523.984 138.642C523.461 137.737 523.2 136.467 523.2 134.834ZM528.982 134.834C528.982 134.022 528.926 133.336 528.814 132.776C528.711 132.207 528.492 131.749 528.156 131.404C527.829 131.059 527.353 130.886 526.728 130.886C526.093 130.886 525.608 131.059 525.272 131.404C524.945 131.749 524.726 132.207 524.614 132.776C524.511 133.336 524.46 134.022 524.46 134.834C524.46 135.674 524.511 136.379 524.614 136.948C524.726 137.517 524.945 137.975 525.272 138.32C525.608 138.665 526.093 138.838 526.728 138.838C527.353 138.838 527.829 138.665 528.156 138.32C528.492 137.975 528.711 137.517 528.814 136.948C528.926 136.379 528.982 135.674 528.982 134.834ZM532.491 134.834C532.491 133.229 532.752 131.978 533.275 131.082C533.798 130.177 534.712 129.724 536.019 129.724C537.316 129.724 538.226 130.177 538.749 131.082C539.272 131.978 539.533 133.229 539.533 134.834C539.533 136.467 539.272 137.737 538.749 138.642C538.226 139.547 537.316 140 536.019 140C534.712 140 533.798 139.547 533.275 138.642C532.752 137.737 532.491 136.467 532.491 134.834ZM538.273 134.834C538.273 134.022 538.217 133.336 538.105 132.776C538.002 132.207 537.783 131.749 537.447 131.404C537.12 131.059 536.644 130.886 536.019 130.886C535.384 130.886 534.899 131.059 534.563 131.404C534.236 131.749 534.017 132.207 533.905 132.776C533.802 133.336 533.751 134.022 533.751 134.834C533.751 135.674 533.802 136.379 533.905 136.948C534.017 137.517 534.236 137.975 534.563 138.32C534.899 138.665 535.384 138.838 536.019 138.838C536.644 138.838 537.12 138.665 537.447 138.32C537.783 137.975 538.002 137.517 538.105 136.948C538.217 136.379 538.273 135.674 538.273 134.834Z" fill="white"/>
<defs>
<filter id="filter0_d_566_2596" x="108.684" y="104.807" width="75.4365" height="70.9082" filterUnits="userSpaceOnUse" color-interpolation-filters="sRGB">
<feFlood flood-opacity="0" result="BackgroundImageFix"/>
<feColorMatrix in="SourceAlpha" type="matrix" values="0 0 0 0 0 0 0 0 0 0 0 0 0 0 0 0 0 0 127 0" result="hardAlpha"/>
<feOffset dy="4"/>
<feGaussianBlur stdDeviation="2"/>
<feComposite in2="hardAlpha" operator="out"/>
<feColorMatrix type="matrix" values="0 0 0 0 0 0 0 0 0 0 0 0 0 0 0 0 0 0 0.25 0"/>
<feBlend mode="normal" in2="BackgroundImageFix" result="effect1_dropShadow_566_2596"/>
<feBlend mode="normal" in="SourceGraphic" in2="effect1_dropShadow_566_2596" result="shape"/>
</filter>
<filter id="filter1_d_566_2596" x="227.662" y="37.2529" width="32.3994" height="95.0488" filterUnits="userSpaceOnUse" color-interpolation-filters="sRGB">
<feFlood flood-opacity="0" result="BackgroundImageFix"/>
<feColorMatrix in="SourceAlpha" type="matrix" values="0 0 0 0 0 0 0 0 0 0 0 0 0 0 0 0 0 0 127 0" result="hardAlpha"/>
<feOffset dy="4"/>
<feGaussianBlur stdDeviation="2"/>
<feComposite in2="hardAlpha" operator="out"/>
<feColorMatrix type="matrix" values="0 0 0 0 0 0 0 0 0 0 0 0 0 0 0 0 0 0 0.25 0"/>
<feBlend mode="normal" in2="BackgroundImageFix" result="effect1_dropShadow_566_2596"/>
<feBlend mode="normal" in="SourceGraphic" in2="effect1_dropShadow_566_2596" result="shape"/>
</filter>
<filter id="filter2_d_566_2596" x="316.182" y="36.7285" width="27.2158" height="96.5625" filterUnits="userSpaceOnUse" color-interpolation-filters="sRGB">
<feFlood flood-opacity="0" result="BackgroundImageFix"/>
<feColorMatrix in="SourceAlpha" type="matrix" values="0 0 0 0 0 0 0 0 0 0 0 0 0 0 0 0 0 0 127 0" result="hardAlpha"/>
<feOffset dy="4"/>
<feGaussianBlur stdDeviation="2"/>
<feComposite in2="hardAlpha" operator="out"/>
<feColorMatrix type="matrix" values="0 0 0 0 0 0 0 0 0 0 0 0 0 0 0 0 0 0 0.25 0"/>
<feBlend mode="normal" in2="BackgroundImageFix" result="effect1_dropShadow_566_2596"/>
<feBlend mode="normal" in="SourceGraphic" in2="effect1_dropShadow_566_2596" result="shape"/>
</filter>
<filter id="filter3_d_566_2596" x="372.778" y="83.4043" width="69.126" height="77.0537" filterUnits="userSpaceOnUse" color-interpolation-filters="sRGB">
<feFlood flood-opacity="0" result="BackgroundImageFix"/>
<feColorMatrix in="SourceAlpha" type="matrix" values="0 0 0 0 0 0 0 0 0 0 0 0 0 0 0 0 0 0 127 0" result="hardAlpha"/>
<feOffset dy="4"/>
<feGaussianBlur stdDeviation="2"/>
<feComposite in2="hardAlpha" operator="out"/>
<feColorMatrix type="matrix" values="0 0 0 0 0 0 0 0 0 0 0 0 0 0 0 0 0 0 0.25 0"/>
<feBlend mode="normal" in2="BackgroundImageFix" result="effect1_dropShadow_566_2596"/>
<feBlend mode="normal" in="SourceGraphic" in2="effect1_dropShadow_566_2596" result="shape"/>
</filter>
<filter id="filter4_d_566_2596" x="422.253" y="215.312" width="99.6045" height="22.3311" filterUnits="userSpaceOnUse" color-interpolation-filters="sRGB">
<feFlood flood-opacity="0" result="BackgroundImageFix"/>
<feColorMatrix in="SourceAlpha" type="matrix" values="0 0 0 0 0 0 0 0 0 0 0 0 0 0 0 0 0 0 127 0" result="hardAlpha"/>
<feOffset dy="4"/>
<feGaussianBlur stdDeviation="2"/>
<feComposite in2="hardAlpha" operator="out"/>
<feColorMatrix type="matrix" values="0 0 0 0 0 0 0 0 0 0 0 0 0 0 0 0 0 0 0.25 0"/>
<feBlend mode="normal" in2="BackgroundImageFix" result="effect1_dropShadow_566_2596"/>
<feBlend mode="normal" in="SourceGraphic" in2="effect1_dropShadow_566_2596" result="shape"/>
</filter>
<filter id="filter5_d_566_2596" x="406.34" y="142.917" width="87.6445" height="54.4053" filterUnits="userSpaceOnUse" color-interpolation-filters="sRGB">
<feFlood flood-opacity="0" result="BackgroundImageFix"/>
<feColorMatrix in="SourceAlpha" type="matrix" values="0 0 0 0 0 0 0 0 0 0 0 0 0 0 0 0 0 0 127 0" result="hardAlpha"/>
<feOffset dy="4"/>
<feGaussianBlur stdDeviation="2"/>
<feComposite in2="hardAlpha" operator="out"/>
<feColorMatrix type="matrix" values="0 0 0 0 0 0 0 0 0 0 0 0 0 0 0 0 0 0 0.25 0"/>
<feBlend mode="normal" in2="BackgroundImageFix" result="effect1_dropShadow_566_2596"/>
<feBlend mode="normal" in="SourceGraphic" in2="effect1_dropShadow_566_2596" result="shape"/>
</filter>
<linearGradient id="paint0_linear_566_2596" x1="98.4161" y1="263.333" x2="157.038" y2="143.411" gradientUnits="userSpaceOnUse">
<stop stop-color="#FF5757"/>
<stop offset="1" stop-color="#EE8EB0"/>
</linearGradient>
<linearGradient id="paint1_linear_566_2596" x1="152.643" y1="138.154" x2="253.014" y2="87.5336" gradientUnits="userSpaceOnUse">
<stop stop-color="#EE8EB0"/>
<stop offset="1" stop-color="#D3AAFF"/>
</linearGradient>
<linearGradient id="paint2_linear_566_2596" x1="255.974" y1="87.7783" x2="332.302" y2="100.754" gradientUnits="userSpaceOnUse">
<stop stop-color="#D3AAFF"/>
<stop offset="1" stop-color="#7268FF"/>
</linearGradient>
<linearGradient id="paint3_linear_566_2596" x1="330.013" y1="80.1448" x2="392.602" y2="140.444" gradientUnits="userSpaceOnUse">
<stop stop-color="#7268FF"/>
<stop offset="1" stop-color="#3972DB"/>
</linearGradient>
<linearGradient id="paint4_linear_566_2596" x1="391.457" y1="131.666" x2="445.65" y2="174.41" gradientUnits="userSpaceOnUse">
<stop stop-color="#3972DB"/>
<stop offset="1" stop-color="#3AA7A3"/>
</linearGradient>
<linearGradient id="paint5_linear_566_2596" x1="447.558" y1="165.632" x2="475.036" y2="225.168" gradientUnits="userSpaceOnUse">
<stop stop-color="#3AA7A3"/>
<stop offset="1" stop-color="#4DD09A"/>
</linearGradient>
</defs>
</svg>
