<svg width="262" height="110" viewBox="0 0 262 110" fill="none" xmlns="http://www.w3.org/2000/svg">
<path d="M83.046 25.8919C74.7389 17.576 63.7037 13 51.9646 13C27.7207 13 8 32.7383 8 56.9998C8 81.2613 27.7207 101 51.9646 101C63.7037 101 74.7477 96.4236 83.046 88.1077C91.3532 79.7917 95.9204 68.7477 95.9204 56.9998C95.9204 45.2519 91.3532 34.1991 83.046 25.8919ZM51.9646 97.9548C29.4015 97.9548 11.0448 79.5805 11.0448 56.9998C11.0448 34.4191 29.4015 16.0448 51.9646 16.0448C74.5277 16.0448 92.8844 34.4191 92.8844 56.9998C92.8844 79.5805 74.5277 97.9548 51.9646 97.9548Z" fill="white"/>
<path d="M66.3967 58.0386C63.5807 55.5218 59.8935 53.841 56.3207 52.213L56.2943 52.2042C49.9936 49.3267 44.5464 46.8363 44.9336 40.9491C45.1008 38.7051 46.7288 37.3499 48.0664 36.6195C49.5712 35.7923 51.5688 35.2995 53.4168 35.2995C53.6368 35.2995 53.8568 35.3083 54.068 35.3171C59.4447 35.6779 63.6863 37.9571 67.8311 42.6915L68.0775 42.9819L68.3679 42.7355L69.9871 41.3275L70.2775 41.0723L70.0223 40.7819C65.4023 35.4843 60.3863 32.8179 54.2528 32.4043C53.9888 32.3779 53.7072 32.3691 53.3992 32.3691C53.2144 32.3691 53.012 32.3691 52.8008 32.3779H52.5368C48.5152 32.3779 44.1064 33.6979 40.7536 35.9155C36.7496 38.5643 34.5056 42.2075 34.444 46.1763C34.2856 55.8298 42.1792 59.077 49.14 61.9546L49.1576 61.9634L49.228 61.9898C55.388 64.5418 60.7031 66.7418 60.5887 72.6378C60.5359 76.5273 54.9744 78.6745 51.1552 78.6745H50.9968H50.6184V78.6833C44.9248 78.5161 39.8384 76.0609 35.5 71.4058L35.236 71.1242L34.9544 71.3794L33.3793 72.8402L33.0977 73.1042L33.3617 73.3858C38.2896 78.6921 44.3704 81.5433 50.9528 81.6225H51.252C55.5024 81.6225 60.1223 80.4785 63.6071 78.5513C67.9719 76.1665 70.5151 72.6906 70.7791 68.7658C71.0783 64.4538 69.6439 60.9426 66.3967 58.0386ZM45.9632 49.6435C48.4712 51.7907 51.868 53.3306 55.1504 54.8178L55.212 54.8442C58.6879 56.4458 61.9791 57.9594 64.3639 60.0626C67.0039 62.3858 68.1215 65.0786 67.8839 68.537C67.6639 71.9602 65.1207 74.2481 62.8063 75.6297C63.2551 74.7145 63.5015 73.7202 63.5279 72.6642C63.5807 69.109 62.2167 66.2666 59.3479 63.961C56.8399 61.9458 53.5136 60.5818 50.2928 59.253C43.596 56.4986 37.2688 53.8938 37.3832 46.2027C37.4184 43.2459 39.196 40.4475 42.3904 38.3267C42.496 38.2563 42.6016 38.1859 42.716 38.1155C42.3376 38.9427 42.1264 39.8051 42.0736 40.7115C41.8184 44.2755 43.0944 47.1971 45.9632 49.6435Z" fill="white"/>
<path d="M123.46 52.1877C121.858 52.1877 120.283 51.9237 118.743 51.4221C117.212 50.9205 115.892 50.1725 114.801 49.2309L116.622 46.1597C117.784 46.9957 118.928 47.6117 120.046 48.0429C121.146 48.4565 122.263 48.6765 123.354 48.6765C124.322 48.6765 125.088 48.5005 125.66 48.1309C126.232 47.7613 126.496 47.2509 126.496 46.5469C126.496 45.8693 126.17 45.3589 125.51 45.0509C124.85 44.7429 123.777 44.3733 122.307 43.9509C121.058 43.5989 120.002 43.2733 119.13 42.9653C118.25 42.6573 117.555 42.2877 117.001 41.8917C116.473 41.4958 116.077 41.0382 115.839 40.5102C115.602 39.9822 115.47 39.3662 115.47 38.627C115.47 37.659 115.663 36.7878 116.042 35.9958C116.411 35.2302 116.939 34.5438 117.617 33.9982C118.294 33.4526 119.086 33.0302 120.01 32.7486C120.934 32.467 121.92 32.3086 122.994 32.3086C124.419 32.3086 125.774 32.5022 127.024 32.9246C128.274 33.3382 129.435 33.9982 130.465 34.9398L128.494 37.9054C127.526 37.1838 126.584 36.6294 125.669 36.3038C124.745 35.9518 123.847 35.8022 122.95 35.8022C122.114 35.8022 121.436 35.9782 120.864 36.3038C120.292 36.6558 120.028 37.2014 120.028 37.9494C120.028 38.3014 120.098 38.5654 120.222 38.7854C120.354 39.0054 120.574 39.199 120.855 39.375C121.137 39.551 121.533 39.7006 121.999 39.859C122.483 40.0086 123.073 40.1846 123.777 40.343C125.088 40.695 126.214 41.0206 127.156 41.3726C128.098 41.7246 128.863 42.0942 129.462 42.5341C130.051 42.9741 130.491 43.4757 130.773 44.0477C131.054 44.6197 131.186 45.2973 131.186 46.1069C131.186 47.9725 130.482 49.4597 129.101 50.5421C127.728 51.6597 125.845 52.1877 123.46 52.1877Z" fill="white"/>
<path d="M154.807 43.5513H139.53C139.794 44.9768 140.498 46.1208 141.633 46.9744C142.777 47.8104 144.176 48.224 145.84 48.224C147.987 48.224 149.738 47.52 151.12 46.0944L153.557 48.9016C152.677 49.9576 151.586 50.7408 150.248 51.2688C148.911 51.7968 147.397 52.0784 145.734 52.0784C143.587 52.0784 141.704 51.6648 140.076 50.8024C138.456 49.9488 137.18 48.7608 136.3 47.2472C135.403 45.7336 134.963 44.0001 134.963 42.0905C134.963 40.1809 135.403 38.4913 136.256 36.9601C137.11 35.4465 138.316 34.2585 139.856 33.4049C141.387 32.5513 143.12 32.1289 145.03 32.1289C146.94 32.1289 148.629 32.5425 150.116 33.3785C151.604 34.2145 152.765 35.3937 153.628 36.9073C154.464 38.4209 154.877 40.1985 154.877 42.1697C154.868 42.5217 154.851 42.9529 154.807 43.5513ZM141.325 37.0745C140.313 37.9281 139.706 39.0897 139.486 40.5153H150.539C150.345 39.1073 149.747 37.9721 148.744 37.0921C147.732 36.2121 146.508 35.7721 145.012 35.7721C143.56 35.7633 142.328 36.1945 141.325 37.0745Z" fill="white"/>
<path d="M164.186 50.8102C162.584 49.9566 161.335 48.7686 160.437 47.2551C159.54 45.7415 159.082 44.0079 159.082 42.0983C159.082 40.1711 159.54 38.4551 160.437 36.9415C161.335 35.4279 162.584 34.2399 164.186 33.4127C165.788 32.5591 167.609 32.1367 169.642 32.1367C171.569 32.1367 173.241 32.5327 174.684 33.2983C176.128 34.0903 177.228 35.2079 177.949 36.6511L174.438 38.6927C173.866 37.7951 173.188 37.1087 172.335 36.6775C171.499 36.2199 170.584 35.9999 169.572 35.9999C167.864 35.9999 166.456 36.5455 165.339 37.6719C164.221 38.7719 163.649 40.2591 163.649 42.1071C163.649 43.9463 164.195 45.4423 165.312 46.5423C166.412 47.6599 167.829 48.2142 169.563 48.2142C170.548 48.2142 171.472 47.9942 172.326 47.5366C173.162 47.0791 173.857 46.4191 174.429 45.5215L177.94 47.5631C177.192 49.0326 176.075 50.1502 174.632 50.9422C173.188 51.7342 171.516 52.1302 169.616 52.1302C167.583 52.0862 165.788 51.6638 164.186 50.8102Z" fill="white"/>
<path d="M194.573 32.1152V36.4624C194.177 36.4008 193.825 36.3568 193.517 36.3568C191.739 36.3568 190.357 36.8848 189.354 37.9144C188.342 38.944 187.867 40.44 187.867 42.3936V51.8535H183.309V32.3352H187.647V35.1864C188.958 33.1448 191.264 32.1152 194.573 32.1152Z" fill="white"/>
<path d="M217.639 43.5513H202.362C202.626 44.9768 203.33 46.1208 204.465 46.9744C205.609 47.8104 207.008 48.224 208.672 48.224C210.819 48.224 212.57 47.52 213.952 46.0944L216.389 48.9016C215.509 49.9576 214.418 50.7408 213.08 51.2688C211.743 51.7968 210.229 52.0784 208.566 52.0784C206.419 52.0784 204.536 51.6648 202.908 50.8024C201.288 49.9488 200.013 48.7608 199.133 47.2472C198.235 45.7336 197.795 44.0001 197.795 42.0905C197.795 40.1809 198.235 38.4913 199.089 36.9601C199.942 35.4465 201.148 34.2585 202.688 33.4049C204.219 32.5513 205.952 32.1289 207.862 32.1289C209.772 32.1289 211.461 32.5425 212.948 33.3785C214.436 34.2145 215.597 35.3937 216.46 36.9073C217.296 38.4209 217.709 40.1985 217.709 42.1697C217.727 42.5217 217.7 42.9529 217.639 43.5513ZM204.175 37.0745C203.163 37.9281 202.556 39.0897 202.336 40.5153H213.388C213.195 39.1073 212.596 37.9721 211.593 37.0921C210.581 36.2121 209.358 35.7721 207.862 35.7721C206.41 35.7633 205.187 36.1945 204.175 37.0745Z" fill="white"/>
<path d="M235.241 50.7635C234.713 51.2035 234.053 51.5291 233.288 51.7491C232.522 51.9691 231.713 52.0747 230.85 52.0747C228.703 52.0747 227.057 51.5027 225.896 50.3851C224.734 49.2675 224.145 47.6395 224.145 45.4923V36.1028H220.941V32.486H224.145V28.0332H228.703V32.486H233.921V36.1292H228.703V45.4131C228.703 46.3547 228.941 47.0851 229.407 47.5867C229.865 48.0883 230.551 48.3347 231.422 48.3347C232.452 48.3347 233.288 48.0707 233.965 47.5251L235.241 50.7635Z" fill="white"/>
<path d="M130.887 64.4303C132.313 65.8383 133.017 67.8711 133.017 70.5551V81.7047H130.43V70.8191C130.43 68.8215 129.928 67.3079 128.943 66.2519C127.931 65.1959 126.531 64.6679 124.666 64.6679C122.607 64.6679 120.961 65.2839 119.755 66.5071C118.55 67.7391 117.96 69.4287 117.96 71.5935V81.6607H115.373V62.4768H117.855V66.0055C118.559 64.8439 119.544 63.92 120.794 63.2864C122.043 62.6528 123.487 62.3184 125.159 62.3184C127.552 62.3272 129.462 63.0312 130.887 64.4303Z" fill="white"/>
<path d="M156.56 72.8793H140.509C140.659 74.8768 141.433 76.4784 142.815 77.7104C144.196 78.9424 145.947 79.5496 148.077 79.5496C149.265 79.5496 150.356 79.3296 151.368 78.916C152.354 78.5024 153.234 77.86 153.955 77.0328L155.425 78.7224C154.571 79.752 153.515 80.5176 152.222 81.072C150.955 81.6 149.547 81.8816 148.015 81.8816C146.044 81.8816 144.311 81.468 142.779 80.632C141.266 79.796 140.087 78.6344 139.224 77.1472C138.371 75.6512 137.957 73.988 137.957 72.1049C137.957 70.2393 138.371 68.5497 139.189 67.0625C139.999 65.5665 141.116 64.4313 142.542 63.5953C143.967 62.7593 145.569 62.3457 147.347 62.3457C149.124 62.3457 150.726 62.7593 152.125 63.5953C153.524 64.4313 154.642 65.5665 155.434 67.0361C156.243 68.5057 156.639 70.1953 156.639 72.0785L156.56 72.8793ZM142.639 66.3409C141.389 67.5289 140.667 69.0601 140.509 70.9697H154.123C153.947 69.0601 153.243 67.5289 151.993 66.3409C150.743 65.1529 149.186 64.5633 147.303 64.5633C145.446 64.5633 143.888 65.1529 142.639 66.3409Z" fill="white"/>
<path d="M171.138 80.5187C170.654 80.9587 170.038 81.2843 169.343 81.5307C168.621 81.7683 167.873 81.8827 167.108 81.8827C165.313 81.8827 163.931 81.3987 162.946 80.4131C161.978 79.4451 161.476 78.0635 161.476 76.2859V64.6788H158.053V62.4876H161.476V58.2988H164.063V62.4876H169.897V64.6788H164.063V76.1539C164.063 77.2979 164.345 78.1691 164.917 78.7675C165.489 79.3571 166.316 79.6651 167.372 79.6651C167.9 79.6651 168.428 79.5771 168.929 79.4011C169.431 79.2251 169.853 78.9875 170.223 78.6795L171.138 80.5187Z" fill="white"/>
<path d="M198.102 62.6367H201.19L193.103 81.7062H190.454L186.618 72.4047L182.825 81.7062H180.176L172.08 62.6367H175.151L181.725 78.5206L184.928 70.6007L181.637 62.6807H184.286L186.635 68.7791L188.985 62.6807H191.634L188.369 70.6007L191.572 78.5206L198.102 62.6367Z" fill="white"/>
<path d="M211.588 81.9512C210.206 81.9512 208.939 81.6872 207.795 81.1592C206.651 80.6312 205.665 79.9272 204.812 79.0296C203.976 78.132 203.325 77.076 202.858 75.888C202.401 74.7 202.154 73.4504 202.154 72.1392C202.154 70.8016 202.392 69.5256 202.858 68.3464C203.342 67.1584 204.002 66.1112 204.829 65.2048C205.665 64.3072 206.651 63.5768 207.813 63.0576C208.957 62.5296 210.206 62.248 211.561 62.248C212.917 62.248 214.193 62.512 215.328 63.0576C216.489 63.5856 217.475 64.3072 218.311 65.2048C219.147 66.1024 219.798 67.1584 220.282 68.3464C220.766 69.5344 220.986 70.8016 220.986 72.1392C220.986 73.4592 220.749 74.7088 220.282 75.888C219.825 77.076 219.165 78.1232 218.329 79.0296C217.493 79.9272 216.489 80.6576 215.345 81.1592C214.245 81.6872 212.969 81.9512 211.588 81.9512ZM204.68 72.1656C204.68 73.2392 204.856 74.2248 205.225 75.1488C205.595 76.0728 206.079 76.856 206.695 77.56C207.311 78.264 208.05 78.792 208.886 79.188C209.722 79.584 210.62 79.7776 211.561 79.7776C212.503 79.7776 213.401 79.584 214.237 79.188C215.073 78.792 215.812 78.2464 216.454 77.5424C217.088 76.8384 217.598 76.0464 217.941 75.1048C218.311 74.1808 218.487 73.1776 218.487 72.1216C218.487 71.0656 218.311 70.08 217.941 69.1384C217.572 68.1968 217.088 67.3872 216.454 66.6832C215.821 65.9792 215.099 65.4336 214.237 65.0376C213.401 64.6416 212.503 64.448 211.561 64.448C210.62 64.448 209.722 64.6416 208.913 65.0376C208.077 65.4336 207.355 66.0056 206.721 66.7008C206.088 67.4048 205.577 68.2408 205.234 69.156C204.882 70.1064 204.68 71.092 204.68 72.1656Z" fill="white"/>
<path d="M234.677 64.8671C232.987 64.9111 231.544 65.3687 230.294 66.2487C229.045 67.1287 228.165 68.3343 227.663 69.8655V81.6926H225.182V62.6759H227.531V67.2431C228.235 65.7735 229.177 64.6295 230.382 63.8199C231.57 62.9839 232.855 62.5703 234.219 62.5703C234.413 62.5703 234.571 62.5967 234.703 62.6143V64.8759H234.677V64.8671Z" fill="white"/>
<path d="M253.277 81.6961L246.263 71.9545L242.189 75.7473V81.6961H239.707V55.0586H242.189V73.1601L252.863 62.7234H255.67L247.909 70.4937L255.978 81.7049H253.277V81.6961Z" fill="white"/>
</svg>
