<svg width="642" height="209" viewBox="0 0 642 209" fill="none" xmlns="http://www.w3.org/2000/svg">
<circle cx="111.5" cy="89.5" r="44.5" fill="white"/>
<path d="M228.698 134.572C243.925 134.572 251.31 126.841 251.31 117.797C251.31 97.9296 220.323 104.81 220.323 94.8375C220.323 91.4361 223.14 88.6531 230.449 88.6531C235.17 88.6531 240.271 90.0446 245.219 92.9049L249.026 83.3964C244.077 80.227 237.225 78.6036 230.525 78.6036C215.375 78.6036 208.066 86.2567 208.066 95.4559C208.066 115.555 239.053 108.598 239.053 118.724C239.053 122.049 236.083 124.522 228.774 124.522C222.379 124.522 215.679 122.203 211.187 118.879L207 128.31C211.72 132.021 220.247 134.572 228.698 134.572Z" fill="white"/>
<path d="M282.9 134.572C292.189 134.572 299.878 131.17 304.903 124.909L296.985 117.488C293.407 121.739 288.915 123.904 283.585 123.904C273.612 123.904 266.531 116.792 266.531 106.588C266.531 96.3835 273.612 89.2716 283.585 89.2716C288.915 89.2716 293.407 91.4361 296.985 95.6105L304.903 88.1893C299.878 82.005 292.189 78.6036 282.976 78.6036C266.379 78.6036 254.045 90.2765 254.045 106.588C254.045 122.899 266.379 134.572 282.9 134.572Z" fill="white"/>
<path d="M358.093 133.644L346.14 116.251C353.068 113.236 357.103 107.283 357.103 99.1665C357.103 87.0297 348.195 79.5312 333.958 79.5312H310.889V133.644H323.223V118.57H334.567L344.845 133.644H358.093ZM344.617 99.1665C344.617 105.042 340.81 108.598 333.273 108.598H323.223V89.7354H333.273C340.81 89.7354 344.617 93.2141 344.617 99.1665Z" fill="white"/>
<path d="M374.828 133.644H387.162V89.7354H404.216V79.5312H357.774V89.7354H374.828V133.644Z" fill="white"/>
<path d="M424.018 130.79C418.513 130.79 414.003 129.511 410.489 126.954C407.034 124.338 405.101 120.8 404.691 116.34H411.016C411.309 119.075 412.568 121.305 414.794 123.03C417.078 124.695 420.123 125.527 423.93 125.527C427.268 125.527 429.874 124.724 431.748 123.119C433.681 121.513 434.647 119.521 434.647 117.143C434.647 115.478 434.12 114.11 433.066 113.04C432.012 111.969 430.665 111.137 429.025 110.542C427.444 109.888 425.277 109.204 422.524 108.491C418.952 107.539 416.053 106.588 413.828 105.636C411.602 104.685 409.699 103.287 408.117 101.444C406.595 99.5411 405.833 97.0139 405.833 93.8622C405.833 91.4836 406.536 89.2834 407.942 87.2616C409.347 85.2398 411.339 83.6343 413.915 82.445C416.492 81.2557 419.42 80.6611 422.7 80.6611C427.854 80.6611 432.012 81.999 435.174 84.6749C438.337 87.2914 440.035 90.9187 440.27 95.557H434.12C433.945 92.7027 432.832 90.4133 430.782 88.6888C428.791 86.9049 426.038 86.0129 422.524 86.0129C419.42 86.0129 416.902 86.7562 414.97 88.2428C413.037 89.7294 412.071 91.5728 412.071 93.773C412.071 95.6759 412.627 97.2517 413.74 98.5005C414.911 99.6898 416.346 100.641 418.044 101.355C419.743 102.009 422.027 102.752 424.896 103.585C428.352 104.536 431.104 105.458 433.154 106.35C435.204 107.242 436.961 108.55 438.425 110.275C439.889 111.999 440.65 114.288 440.709 117.143C440.709 119.759 440.006 122.108 438.6 124.189C437.195 126.211 435.233 127.817 432.715 129.006C430.196 130.195 427.297 130.79 424.018 130.79Z" fill="white"/>
<path d="M455.944 72.1873C454.714 72.1873 453.66 71.7413 452.782 70.8494C451.903 69.9574 451.464 68.8573 451.464 67.5491C451.464 66.2408 451.903 65.1705 452.782 64.338C453.66 63.446 454.714 63 455.944 63C457.174 63 458.228 63.446 459.107 64.338C459.985 65.1705 460.425 66.2408 460.425 67.5491C460.425 68.8573 459.985 69.9574 459.107 70.8494C458.228 71.7413 457.174 72.1873 455.944 72.1873ZM459.019 81.3746V130.076H452.87V81.3746H459.019Z" fill="white"/>
<path d="M479.591 92.1675C481.172 88.778 483.603 86.0129 486.883 83.8722C490.221 81.7314 494.145 80.6611 498.654 80.6611C503.046 80.6611 506.97 81.7017 510.426 83.7829C513.881 85.8048 516.575 88.7185 518.508 92.5243C520.499 96.2706 521.494 100.641 521.494 105.636C521.494 110.631 520.499 115.032 518.508 118.837C516.575 122.643 513.852 125.587 510.338 127.668C506.882 129.749 502.988 130.79 498.654 130.79C494.086 130.79 490.133 129.749 486.795 127.668C483.515 125.527 481.114 122.762 479.591 119.373V130.076H473.53V64.0704H479.591V92.1675ZM515.257 105.636C515.257 101.593 514.467 98.114 512.885 95.2002C511.363 92.227 509.254 89.9673 506.56 88.4212C503.866 86.8751 500.821 86.1021 497.424 86.1021C494.145 86.1021 491.129 86.9049 488.376 88.5104C485.682 90.116 483.544 92.4053 481.963 95.3786C480.382 98.3518 479.591 101.801 479.591 105.725C479.591 109.65 480.382 113.099 481.963 116.072C483.544 119.046 485.682 121.335 488.376 122.941C491.129 124.546 494.145 125.349 497.424 125.349C500.821 125.349 503.866 124.576 506.56 123.03C509.254 121.424 511.363 119.135 512.885 116.162C514.467 113.129 515.257 109.62 515.257 105.636Z" fill="white"/>
<path d="M572.926 81.3746L544.464 153H538.051L547.363 129.809L527.685 81.3746H534.449L550.789 122.941L566.601 81.3746H572.926Z" fill="white"/>
<path d="M588 64.0704V130.076H581.851V64.0704H588Z" fill="white"/>
<g filter="url(#filter0_d_133_1472)">
<path fill-rule="evenodd" clip-rule="evenodd" d="M171.745 91.8724C171.745 125.491 144.491 152.745 110.872 152.745C77.2535 152.745 50 125.491 50 91.8724C50 58.2535 77.2535 31 110.872 31C144.491 31 171.745 58.2535 171.745 91.8724ZM106.458 52.8042C105.754 52.8652 105.057 52.9487 104.368 53.0545C98.7631 53.9155 93.6172 56.2779 89.8406 60.1583C86.0245 64.0793 83.7829 69.3767 83.783 75.6926C83.783 82.3526 86.8379 87.3676 91.0309 91.205C95.1193 94.9466 100.433 97.708 105.34 100.031C106.618 100.635 107.858 101.207 109.053 101.758L109.053 101.758L109.053 101.758C112.651 103.415 115.841 104.885 118.413 106.509C121.917 108.72 122.892 110.384 122.892 111.794C122.892 116.124 119.395 119.977 112.502 121.025C111.236 121.217 109.884 121.303 108.463 121.27C101.396 120.732 93.9398 118.086 87.7045 112.762C86.2345 111.507 84.0253 111.681 82.77 113.151C82.1803 113.841 81.906 114.695 81.9334 115.536C81.8983 116.599 82.3455 117.664 83.2371 118.381C91.44 124.984 100.333 128.051 108.172 128.266C112.376 128.562 116.473 128.235 120.236 127.367C125.941 126.052 131.103 123.441 134.71 119.614C138.385 115.715 140.373 110.605 139.58 104.77C138.039 93.4183 128.899 87.9734 120.869 84.1466C119.193 83.3483 117.602 82.6349 116.076 81.9507C113.675 80.8747 111.436 79.8709 109.285 78.7225C105.85 76.8887 103.534 75.111 102.302 73.0979C100.169 69.6147 100.449 66.6044 101.674 64.3335C102.895 62.0702 105.153 60.3712 107.536 59.7418C115.936 59.1716 126.059 62.5919 134.013 71.1352C135.33 72.5499 137.545 72.6291 138.96 71.3119C140.374 69.9947 140.454 67.7801 139.136 66.3653C130.063 56.6195 118.295 52.263 107.888 52.7116C107.519 52.6616 107.136 52.6699 106.751 52.7444C106.653 52.7634 106.556 52.7833 106.458 52.8042ZM129.597 114.833C129.603 114.827 129.61 114.82 129.616 114.813C131.988 112.296 133.124 109.249 132.644 105.712C131.64 98.319 125.853 94.2759 117.857 90.4658C116.513 89.8251 115.059 89.1713 113.578 88.5055L113.578 88.5054L113.578 88.5054C110.981 87.3377 108.303 86.1331 105.988 84.8976C102.271 82.9131 98.5704 80.4096 96.3317 76.753C94.131 73.1585 93.4214 69.5313 93.8392 66.2066C91.939 68.6413 90.783 71.7874 90.783 75.6926C90.783 79.9092 92.6168 83.1674 95.7568 86.0411C99.0015 89.0106 103.465 91.3982 108.335 93.7038C109.414 94.2144 110.525 94.7258 111.644 95.2408L111.644 95.2409L111.644 95.2409C115.353 96.9484 119.15 98.6961 122.15 100.59C125.98 103.007 129.892 106.492 129.892 111.794C129.892 112.853 129.791 113.867 129.597 114.833Z" fill="url(#paint0_radial_133_1472)"/>
</g>
<path d="M110.749 157.336C94.5582 157.336 77.9459 150.458 68.7309 145.454C65.9922 143.967 62.5543 143.323 60.7761 145.882C58.8565 148.645 57.4969 153.005 56.5754 157.5C55.1977 164.221 60.7374 170 67.5981 170H154.736C161.472 170 167.098 164.373 165.478 157.834C164.447 153.671 163.011 150.47 161.53 148.102C159.209 144.391 154.441 144.513 150.552 146.521C141.141 151.381 125.815 157.336 110.749 157.336Z" fill="white"/>
<defs>
<filter id="filter0_d_133_1472" x="46" y="29" width="129.744" height="129.745" filterUnits="userSpaceOnUse" color-interpolation-filters="sRGB">
<feFlood flood-opacity="0" result="BackgroundImageFix"/>
<feColorMatrix in="SourceAlpha" type="matrix" values="0 0 0 0 0 0 0 0 0 0 0 0 0 0 0 0 0 0 127 0" result="hardAlpha"/>
<feOffset dy="2"/>
<feGaussianBlur stdDeviation="2"/>
<feComposite in2="hardAlpha" operator="out"/>
<feColorMatrix type="matrix" values="0 0 0 0 0 0 0 0 0 0 0 0 0 0 0 0 0 0 0.22 0"/>
<feBlend mode="normal" in2="BackgroundImageFix" result="effect1_dropShadow_133_1472"/>
<feBlend mode="normal" in="SourceGraphic" in2="effect1_dropShadow_133_1472" result="shape"/>
</filter>
<radialGradient id="paint0_radial_133_1472" cx="0" cy="0" r="1" gradientUnits="userSpaceOnUse" gradientTransform="translate(182.05 25.5891) rotate(139.755) scale(153.276)">
<stop stop-color="#0790C0"/>
<stop offset="1" stop-color="#5728AA"/>
</radialGradient>
</defs>
</svg>
