<svg width="265" height="268" viewBox="0 0 265 268" fill="none" xmlns="http://www.w3.org/2000/svg">
<path d="M78.3035 114.802L39.6518 141.538V179.971L1.75185 154.984C1.2823 154.674 1 154.151 1 153.591V114.802L38.7126 89.5306C39.2803 89.1502 40.0232 89.1502 40.5909 89.5306L78.3035 114.802Z" fill="url(#paint0_linear_612_2599)"/>
<path d="M132.994 173.88L171.992 199.188V238.411C171.992 238.962 171.718 239.478 171.26 239.79L132.08 266.446L92.4859 239.789C92.0242 239.478 91.7476 238.96 91.7476 238.405V199.188L131.163 173.876C131.721 173.518 132.438 173.519 132.994 173.88Z" fill="url(#paint1_linear_612_2599)"/>
<path d="M224.508 141.538L182.495 113.549L223.594 88.2112C224.151 87.8678 224.858 87.8777 225.405 88.2364L264 113.549V153.581C264 154.147 263.712 154.674 263.234 154.982L224.508 179.971V141.538Z" fill="url(#paint2_linear_612_2599)"/>
<path d="M132.5 56.3166L91.7476 29.5805L131.52 1.85644C132.107 1.44758 132.889 1.45335 133.47 1.87083L171.992 29.5805L132.5 56.3166Z" fill="url(#paint3_linear_612_2599)"/>
<path d="M1 114.802L39.6518 141.538M1 114.802L38.7126 89.5306C39.2803 89.1502 40.0232 89.1502 40.5909 89.5306L78.3035 114.802M1 114.802V153.591C1 154.151 1.2823 154.674 1.75185 154.984L39.6518 179.971M39.6518 141.538L78.3035 114.802M39.6518 141.538V179.971M78.3035 114.802V146.969M39.6518 179.971L61.9185 164.932M57.7173 146.133L102.671 178.718M91.7476 199.188L132.08 225.506M91.7476 199.188L131.163 173.876C131.721 173.518 132.438 173.519 132.994 173.88L171.992 199.188M91.7476 199.188V238.405C91.7476 238.96 92.0242 239.478 92.4859 239.789L132.08 266.446M132.08 225.506L171.992 199.188M132.08 225.506V266.446M171.992 199.188V238.411C171.992 238.962 171.718 239.478 171.26 239.79L132.08 266.446M182.495 147.386V113.549M182.495 113.549L224.508 141.538M182.495 113.549L223.594 88.2112C224.151 87.8678 224.858 87.8777 225.405 88.2364L264 113.549M224.508 141.538L264 113.549M224.508 141.538V179.971M264 113.549V153.581C264 154.147 263.712 154.674 263.234 154.982L224.508 179.971M224.508 179.971L199.72 164.932M160.228 178.3L182.915 162.843L205.602 147.386M67.3802 93.9143L114.435 60.9119M91.7476 60.9119V29.5805M91.7476 29.5805L132.5 56.3166M91.7476 29.5805L131.52 1.85644C132.107 1.44758 132.889 1.45335 133.47 1.87083L171.992 29.5805M132.5 56.3166L171.992 29.5805M132.5 56.3166V93.9143M171.992 29.5805V60.9119M132.5 93.9143L108.133 79.7107M132.5 93.9143L155.187 79.7107M150.565 60.9119L195.939 93.4965" stroke="white" stroke-width="2" stroke-linecap="round"/>
<path d="M152.957 110.712C147.239 104.986 139.639 101.834 131.553 101.834C114.858 101.834 101.279 115.422 101.279 132.134C101.279 148.838 114.858 162.435 131.553 162.435C139.639 162.435 147.239 159.283 152.957 153.556C158.674 147.829 161.826 140.22 161.826 132.134C161.826 124.039 158.683 116.43 152.957 110.712ZM131.553 160.328C116.011 160.328 103.368 147.676 103.368 132.125C103.368 116.574 116.011 103.923 131.553 103.923C147.095 103.923 159.737 116.574 159.737 132.125C159.737 147.685 147.095 160.328 131.553 160.328Z" fill="white"/>
<path d="M141.491 132.844C139.555 131.115 137.016 129.953 134.557 128.837L134.539 128.828C130.199 126.847 126.444 125.136 126.714 121.075C126.822 119.526 127.948 118.598 128.875 118.094C129.911 117.527 131.289 117.185 132.558 117.185C132.711 117.185 132.864 117.194 133.009 117.203C136.709 117.455 139.636 119.022 142.49 122.281L142.661 122.479L142.86 122.308L143.976 121.345L144.174 121.174L144.003 120.976C140.825 117.329 137.367 115.492 133.144 115.204C132.964 115.186 132.765 115.177 132.558 115.177C132.432 115.177 132.297 115.177 132.144 115.186H131.964C129.191 115.186 126.165 116.095 123.851 117.617C121.086 119.436 119.547 121.948 119.511 124.677C119.403 131.322 124.832 133.564 129.632 135.536H129.641L129.686 135.554C133.927 137.31 137.583 138.823 137.511 142.884C137.475 145.558 133.648 147.044 131.01 147.044H130.901H130.64V147.053C126.723 146.936 123.221 145.252 120.231 142.037L120.051 141.848L119.862 142.028L118.772 143.037L118.574 143.217L118.754 143.406C122.149 147.062 126.336 149.025 130.874 149.079H131.082C134.008 149.079 137.187 148.287 139.591 146.963C142.598 145.324 144.345 142.929 144.525 140.227C144.714 137.256 143.724 134.843 141.491 132.844ZM127.417 127.063C129.146 128.54 131.487 129.602 133.747 130.629L133.792 130.647C136.187 131.754 138.447 132.79 140.095 134.239C141.914 135.842 142.688 137.697 142.517 140.074C142.364 142.434 140.617 144.009 139.015 144.964C139.33 144.334 139.492 143.649 139.51 142.92C139.546 140.471 138.609 138.517 136.628 136.932C134.9 135.545 132.612 134.6 130.397 133.69C125.787 131.79 121.429 129.998 121.501 124.704C121.528 122.669 122.752 120.742 124.949 119.283C125.021 119.238 125.094 119.184 125.175 119.139C124.913 119.706 124.769 120.309 124.733 120.931C124.562 123.371 125.445 125.379 127.417 127.063Z" fill="white"/>
<defs>
<linearGradient id="paint0_linear_612_2599" x1="132.5" y1="1.55371" x2="132.5" y2="266.446" gradientUnits="userSpaceOnUse">
<stop stop-color="#5728AA"/>
<stop offset="1" stop-color="#0790C0"/>
</linearGradient>
<linearGradient id="paint1_linear_612_2599" x1="132.5" y1="1.55371" x2="132.5" y2="266.446" gradientUnits="userSpaceOnUse">
<stop stop-color="#5728AA"/>
<stop offset="1" stop-color="#0790C0"/>
</linearGradient>
<linearGradient id="paint2_linear_612_2599" x1="132.5" y1="1.55371" x2="132.5" y2="266.446" gradientUnits="userSpaceOnUse">
<stop stop-color="#5728AA"/>
<stop offset="1" stop-color="#0790C0"/>
</linearGradient>
<linearGradient id="paint3_linear_612_2599" x1="132.5" y1="1.55371" x2="132.5" y2="266.446" gradientUnits="userSpaceOnUse">
<stop stop-color="#5728AA"/>
<stop offset="1" stop-color="#0790C0"/>
</linearGradient>
</defs>
</svg>
