<svg width="433" height="407" viewBox="0 0 433 407" fill="none" xmlns="http://www.w3.org/2000/svg">
<circle cx="213" cy="135" r="93" fill="white"/>
<path d="M52.7301 367.391C67.2775 367.391 74.3331 360.004 74.3331 351.361C74.3331 332.377 44.729 338.951 44.729 329.422C44.729 326.172 47.4203 323.513 54.4031 323.513C58.9128 323.513 63.7862 324.843 68.5141 327.576L72.1509 318.49C67.423 315.461 60.8767 313.91 54.4758 313.91C40.0011 313.91 33.0183 321.223 33.0183 330.013C33.0183 349.219 62.6224 342.571 62.6224 352.248C62.6224 355.424 59.7856 357.788 52.8028 357.788C46.6929 357.788 40.292 355.572 36.0005 352.396L32 361.408C36.5097 364.953 44.6563 367.391 52.7301 367.391Z" fill="white"/>
<path d="M104.514 367.391C113.388 367.391 120.734 364.141 125.535 358.157L117.97 351.066C114.551 355.129 110.26 357.197 105.168 357.197C95.6397 357.197 88.8751 350.401 88.8751 340.65C88.8751 330.9 95.6397 324.104 105.168 324.104C110.26 324.104 114.551 326.172 117.97 330.161L125.535 323.07C120.734 317.16 113.388 313.91 104.586 313.91C88.7296 313.91 76.9462 325.064 76.9462 340.65C76.9462 356.237 88.7296 367.391 104.514 367.391Z" fill="white"/>
<path d="M176.351 366.504L164.931 349.884C171.55 347.003 175.405 341.315 175.405 333.559C175.405 321.962 166.895 314.796 153.293 314.796H131.254V366.504H143.037V352.1H153.875L163.695 366.504H176.351ZM163.477 333.559C163.477 339.173 159.84 342.571 152.639 342.571H143.037V324.547H152.639C159.84 324.547 163.477 327.871 163.477 333.559Z" fill="white"/>
<path d="M192.34 366.504H204.123V324.547H220.416V314.796H176.047V324.547H192.34V366.504Z" fill="white"/>
<path d="M239.335 363.777C234.075 363.777 229.767 362.555 226.41 360.112C223.109 357.612 221.262 354.231 220.871 349.969H226.913C227.193 352.583 228.396 354.714 230.522 356.362C232.704 357.953 235.614 358.748 239.251 358.748C242.44 358.748 244.93 357.981 246.72 356.447C248.567 354.913 249.49 353.009 249.49 350.736C249.49 349.145 248.986 347.838 247.979 346.816C246.972 345.793 245.685 344.997 244.118 344.429C242.608 343.804 240.538 343.151 237.908 342.469C234.495 341.56 231.725 340.65 229.599 339.741C227.473 338.832 225.654 337.497 224.144 335.735C222.689 333.917 221.962 331.502 221.962 328.491C221.962 326.218 222.633 324.115 223.976 322.183C225.319 320.251 227.221 318.717 229.683 317.581C232.145 316.444 234.942 315.876 238.076 315.876C242.999 315.876 246.972 317.155 249.993 319.712C253.015 322.212 254.637 325.678 254.861 330.11H248.986C248.818 327.383 247.755 325.195 245.797 323.547C243.895 321.842 241.265 320.99 237.908 320.99C234.942 320.99 232.536 321.7 230.69 323.121C228.844 324.541 227.92 326.303 227.92 328.405C227.92 330.224 228.452 331.729 229.515 332.923C230.634 334.059 232.005 334.968 233.628 335.65C235.25 336.275 237.432 336.985 240.174 337.781C243.475 338.69 246.105 339.571 248.063 340.423C250.021 341.276 251.7 342.526 253.099 344.173C254.498 345.821 255.225 348.009 255.281 350.736C255.281 353.237 254.609 355.481 253.267 357.47C251.924 359.402 250.049 360.936 247.643 362.072C245.238 363.209 242.468 363.777 239.335 363.777Z" fill="white"/>
<path d="M269.837 307.779C268.662 307.779 267.654 307.353 266.815 306.5C265.976 305.648 265.556 304.597 265.556 303.347C265.556 302.097 265.976 301.074 266.815 300.278C267.654 299.426 268.662 299 269.837 299C271.012 299 272.019 299.426 272.858 300.278C273.697 301.074 274.117 302.097 274.117 303.347C274.117 304.597 273.697 305.648 272.858 306.5C272.019 307.353 271.012 307.779 269.837 307.779ZM272.774 316.558V363.095H266.899V316.558H272.774Z" fill="white"/>
<path d="M292.428 326.871C293.939 323.632 296.261 320.99 299.394 318.944C302.584 316.899 306.332 315.876 310.641 315.876C314.837 315.876 318.586 316.87 321.887 318.859C325.188 320.791 327.762 323.575 329.608 327.212C331.511 330.792 332.462 334.968 332.462 339.741C332.462 344.514 331.511 348.719 329.608 352.356C327.762 355.992 325.16 358.805 321.803 360.794C318.502 362.783 314.781 363.777 310.641 363.777C306.276 363.777 302.5 362.783 299.31 360.794C296.177 358.748 293.883 356.106 292.428 352.867V363.095H286.637V300.023H292.428V326.871ZM326.503 339.741C326.503 335.877 325.748 332.553 324.237 329.769C322.782 326.928 320.768 324.769 318.194 323.291C315.62 321.814 312.711 321.075 309.466 321.075C306.332 321.075 303.451 321.842 300.821 323.377C298.247 324.911 296.205 327.098 294.694 329.94C293.184 332.781 292.428 336.076 292.428 339.827C292.428 343.577 293.184 346.872 294.694 349.714C296.205 352.555 298.247 354.742 300.821 356.277C303.451 357.811 306.332 358.578 309.466 358.578C312.711 358.578 315.62 357.839 318.194 356.362C320.768 354.828 322.782 352.64 324.237 349.799C325.748 346.901 326.503 343.548 326.503 339.741Z" fill="white"/>
<path d="M381.599 316.558L354.406 385H348.28L357.176 362.839L338.376 316.558H344.839L360.449 356.277L375.556 316.558H381.599Z" fill="white"/>
<path d="M396 300.023V363.095H390.125V300.023H396Z" fill="white"/>
<g filter="url(#filter0_d_133_1480)">
<path fill-rule="evenodd" clip-rule="evenodd" d="M314.843 135.362C314.843 191.343 269.462 236.724 213.481 236.724C157.5 236.724 112.119 191.343 112.119 135.362C112.119 79.3813 157.5 34 213.481 34C269.462 34 314.843 79.3813 314.843 135.362ZM206.476 72.6143C205.304 72.7125 204.146 72.8496 203.003 73.0252C194.079 74.3961 186.003 78.139 180.127 84.1768C174.211 90.2552 170.7 98.4868 170.7 108.42C170.7 118.697 175.381 126.464 182.013 132.533C188.54 138.507 197.106 142.981 205.264 146.843C207.321 147.817 209.342 148.748 211.308 149.653C217.343 152.434 222.854 154.973 227.28 157.766C233.221 161.516 235.823 164.893 235.823 168.534C235.823 177.328 228.67 184.363 216.543 186.207C214.285 186.551 211.883 186.702 209.37 186.64C197.115 185.722 184.197 181.144 173.39 171.916C171.92 170.661 169.711 170.835 168.456 172.305C167.848 173.017 167.575 173.902 167.622 174.768C167.563 175.856 168.01 176.955 168.923 177.69C182.239 188.408 196.573 193.3 209.078 193.636C215.868 194.121 222.482 193.597 228.549 192.198C237.717 190.084 245.862 185.92 251.48 179.959C257.165 173.927 260.192 166.104 258.976 157.152C256.588 139.566 242.484 130.966 229.124 124.599C226.448 123.324 223.84 122.154 221.309 121.018C217.243 119.195 213.375 117.46 209.741 115.519C203.927 112.415 199.61 109.214 197.223 105.315C193.243 98.8149 193.677 92.9184 196.114 88.4002C198.497 83.9819 202.892 80.7139 207.551 79.5518C222.317 78.4784 239.953 84.4612 253.717 99.2449C255.034 100.66 257.249 100.739 258.663 99.4216C260.078 98.1045 260.157 95.8898 258.84 94.475C244.103 78.646 225.05 71.6984 208.376 72.4898C207.953 72.4097 207.508 72.4067 207.06 72.4935C206.865 72.5312 206.67 72.5715 206.476 72.6143ZM239.274 180.672C242.04 179.081 244.437 177.225 246.386 175.158C250.768 170.508 252.943 164.748 252.04 158.094C250.189 144.467 239.438 137.268 226.113 130.918C223.768 129.801 221.298 128.691 218.814 127.574L218.812 127.574L218.811 127.573C214.549 125.657 210.242 123.722 206.444 121.694C200.348 118.44 194.646 114.512 191.253 108.97C186.004 100.397 186.319 91.875 189.913 85.1529C188.157 86.2988 186.559 87.6046 185.144 89.059C180.547 93.7823 177.7 100.242 177.7 108.42C177.7 116.254 181.16 122.264 186.739 127.369C192.422 132.571 200.137 136.671 208.259 140.516C210.118 141.396 212.009 142.266 213.898 143.136L213.899 143.136L213.899 143.136C220.045 145.967 226.163 148.784 231.016 151.846C237.285 155.803 242.823 161.001 242.823 168.534C242.823 173.147 241.532 177.22 239.274 180.672Z" fill="url(#paint0_radial_133_1480)"/>
</g>
<path d="M213.583 244.363C184.928 244.363 155.478 231.632 140.949 223.435C138.279 221.929 134.957 221.162 132.707 223.244C127.098 228.434 123.87 241.207 122.247 252.446C121.266 259.24 126.724 265 133.589 265H294.723C301.461 265 306.976 259.427 305.981 252.763C303.951 239.178 299.323 230.454 295.138 225.522C292.351 222.239 287.683 222.45 283.905 224.517C268.947 232.704 241.005 244.363 213.583 244.363Z" fill="white"/>
<defs>
<filter id="filter0_d_133_1480" x="108.119" y="32" width="210.725" height="210.724" filterUnits="userSpaceOnUse" color-interpolation-filters="sRGB">
<feFlood flood-opacity="0" result="BackgroundImageFix"/>
<feColorMatrix in="SourceAlpha" type="matrix" values="0 0 0 0 0 0 0 0 0 0 0 0 0 0 0 0 0 0 127 0" result="hardAlpha"/>
<feOffset dy="2"/>
<feGaussianBlur stdDeviation="2"/>
<feComposite in2="hardAlpha" operator="out"/>
<feColorMatrix type="matrix" values="0 0 0 0 0 0 0 0 0 0 0 0 0 0 0 0 0 0 0.22 0"/>
<feBlend mode="normal" in2="BackgroundImageFix" result="effect1_dropShadow_133_1480"/>
<feBlend mode="normal" in="SourceGraphic" in2="effect1_dropShadow_133_1480" result="shape"/>
</filter>
<radialGradient id="paint0_radial_133_1480" cx="0" cy="0" r="1" gradientUnits="userSpaceOnUse" gradientTransform="translate(332.004 24.99) rotate(139.755) scale(255.229)">
<stop stop-color="#0790C0"/>
<stop offset="1" stop-color="#5728AA"/>
</radialGradient>
</defs>
</svg>
