<svg width="30" height="25" viewBox="0 0 30 25" fill="none" xmlns="http://www.w3.org/2000/svg">
<path d="M29 1.01289C27.7812 1.87871 26.4318 2.54092 25.0036 2.97403C24.2371 2.0864 23.2184 1.45727 22.0853 1.17174C20.9522 0.886198 19.7594 0.958023 18.6681 1.3775C17.5768 1.79697 16.6398 2.54386 15.9838 3.51714C15.3278 4.49042 14.9843 5.64314 15 6.81939V8.10118C12.7634 8.15959 10.5471 7.66 8.54856 6.64692C6.55004 5.63384 4.83131 4.1387 3.54545 2.29468C3.54545 2.29468 -1.54545 13.8308 9.90909 18.9579C7.28794 20.7498 4.16547 21.6483 1 21.5215C12.4545 27.9304 26.4545 21.5215 26.4545 6.78094C26.4534 6.4239 26.4193 6.06774 26.3527 5.71705C27.6517 4.42692 28.5683 2.79805 29 1.01289Z" fill="white" stroke="#1B2025" stroke-width="1.5" stroke-linecap="round" stroke-linejoin="round"/>
</svg>
