<svg width="97" height="97" viewBox="0 0 97 97" fill="none" xmlns="http://www.w3.org/2000/svg">
<path fill-rule="evenodd" clip-rule="evenodd" d="M17.9784 60.027C18.2425 59.181 18.4657 58.451 18.5817 58.0646C19.2816 55.7114 21.7292 50.0776 22.0964 45.586C22.3777 42.1594 21.4523 39.3854 18.294 38.6082C15.4234 37.9018 12.5249 39.6473 9.95707 42.7927C4.4306 49.5623 0.239626 62.7365 0.00130588 67.0435C-0.0244585 67.5137 0.334094 67.9151 0.804294 67.9409C1.27235 67.9667 1.67382 67.6081 1.69959 67.1379C1.92932 63.0049 5.97006 50.3675 11.2754 43.8684C13.3494 41.3285 15.5694 39.6903 17.8882 40.2614C20.1769 40.8239 20.6042 42.9623 20.4003 45.4464C20.0438 49.8178 17.6327 55.2884 16.95 57.5793C16.5227 59.0157 14.7385 64.4477 14.6977 64.9501C14.6462 65.5792 15.0949 65.7896 15.2474 65.8476C15.3655 65.8926 15.9688 66.0794 16.3445 65.4031C21.7078 55.7629 36.6103 44.6821 52.4855 40.2657C68.2211 35.8879 84.9615 38.0886 94.2109 55.0781C94.4364 55.4903 94.9538 55.6427 95.366 55.4194C95.7782 55.194 95.9307 54.6766 95.7053 54.2643C86.0135 36.4633 68.5152 34.0393 52.0303 38.6253C38.1369 42.49 24.9992 51.3573 17.9784 60.027Z" fill="white"/>
<path fill-rule="evenodd" clip-rule="evenodd" d="M94.3581 53.8541C92.5009 53.0941 90.6759 52.2782 88.7586 51.662C83.6508 50.0195 77.9956 49.3947 72.6946 50.3394C72.2308 50.4231 71.9237 50.8655 72.0053 51.3271C72.089 51.7908 72.5314 52.0978 72.993 52.0163C78.0235 51.1166 83.391 51.7242 88.2368 53.283C90.4311 53.9894 92.5052 54.962 94.6457 55.8057C94.7531 55.8465 95.672 56.2416 95.8889 56.2717C96.3934 56.3447 96.649 56.0527 96.7499 55.9024C96.8358 55.7779 96.9088 55.6082 96.9152 55.3806C96.9195 55.1938 96.8444 54.8375 96.6425 54.3823C96.0006 52.9223 94.0146 49.7318 93.7441 49.1736C90.6416 42.7754 88.8294 36.3021 86.7511 29.5347C86.6116 29.086 86.1349 28.8326 85.6862 28.97C85.2375 29.1074 84.9862 29.5841 85.1236 30.0328C87.2277 36.8861 89.072 43.4389 92.2131 49.9143C92.3978 50.2986 93.5379 52.3705 94.3581 53.8541Z" fill="white"/>
</svg>
