<svg width="234" height="175" viewBox="0 0 234 175" fill="none" xmlns="http://www.w3.org/2000/svg">
<ellipse cx="170.325" cy="110.692" rx="54.6747" ry="51.6925" fill="url(#paint0_linear_507_2619)"/>
<path d="M183.699 98.4564C186.73 101.342 186.73 106.033 183.699 108.919L176.607 115.669L179.975 118.875L187.067 112.125C191.96 107.467 191.96 99.9076 187.067 95.2502C182.174 90.5928 174.231 90.5928 169.338 95.2502L162.246 102L165.615 105.206L172.707 98.4564C175.738 95.5708 180.667 95.5708 183.699 98.4564ZM174.657 103.688L160.473 117.187L164.019 120.562L178.203 107.062L174.657 103.688ZM169.338 128.999L176.43 122.25L173.061 119.043L165.969 125.793C162.938 128.679 158.009 128.679 154.977 125.793C151.946 122.908 151.946 118.217 154.977 115.331L162.069 108.581L158.701 105.375L151.609 112.125C146.716 116.782 146.716 124.342 151.609 128.999C156.502 133.657 164.445 133.657 169.338 128.999Z" fill="white"/>
<circle cx="59.6247" cy="58.6247" r="50.6247" fill="url(#paint1_linear_507_2619)"/>
<path d="M60.4536 43.0996C43.514 43.0996 32.161 52.84 27.6141 58.9213C26.9236 59.8448 26.9294 61.0955 27.6364 62.0064C32.0909 67.7449 43.2833 76.8494 60.4536 76.8494C77.5252 76.8494 89.259 67.8493 94.1295 62.1057C94.9359 61.1548 94.9445 59.7846 94.1568 58.8182C89.1948 52.7305 77.2979 43.0996 60.4536 43.0996Z" fill="url(#paint2_linear_507_2619)" stroke="white" stroke-width="4"/>
<path d="M83.248 82.2497L35.9983 35" stroke="white" stroke-width="4" stroke-linecap="round"/>
<path d="M70.7616 60.4413C70.7616 66.7926 65.6129 71.9413 59.2616 71.9413C52.9104 71.9413 47.7617 66.7926 47.7617 60.4413C47.7617 54.0901 52.9104 48.9414 59.2616 48.9414C65.6129 48.9414 70.7616 54.0901 70.7616 60.4413Z" stroke="white" stroke-width="4"/>
<defs>
<linearGradient id="paint0_linear_507_2619" x1="170.325" y1="59" x2="168.929" y2="218.51" gradientUnits="userSpaceOnUse">
<stop stop-color="#5728AA"/>
<stop offset="0.364583" stop-color="#3A4EB2"/>
<stop offset="1" stop-color="#0790C0"/>
</linearGradient>
<linearGradient id="paint1_linear_507_2619" x1="59.6247" y1="8" x2="59.6247" y2="158.385" gradientUnits="userSpaceOnUse">
<stop stop-color="#5728AA"/>
<stop offset="0.0001" stop-color="#5728AA"/>
<stop offset="1" stop-color="#0790C0"/>
</linearGradient>
<linearGradient id="paint2_linear_507_2619" x1="60.9736" y1="43.0996" x2="60.9736" y2="76.8494" gradientUnits="userSpaceOnUse">
<stop stop-color="#5728AA"/>
<stop offset="0.0001" stop-color="#5728AA"/>
<stop offset="1" stop-color="#0790C0"/>
</linearGradient>
</defs>
</svg>
