<svg width="28" height="32" viewBox="0 0 28 32" fill="none" xmlns="http://www.w3.org/2000/svg">
<ellipse cx="14.5781" cy="13.976" rx="11.1034" ry="11.0844" fill="white"/>
<path fill-rule="evenodd" clip-rule="evenodd" d="M28 13.976C28 21.6947 21.732 27.952 14 27.952C6.268 27.952 0 21.6947 0 13.976C0 6.25726 6.268 0 14 0C21.732 0 28 6.25726 28 13.976ZM12.9846 5.00613C12.8226 5.02013 12.6623 5.03931 12.5039 5.0636C11.2149 5.26128 10.0313 5.80367 9.16276 6.69459C8.2851 7.59483 7.76958 8.81107 7.76958 10.2612C7.76958 11.7903 8.47219 12.9417 9.43651 13.8228C10.3768 14.6818 11.599 15.3158 12.7275 15.8491C13.0213 15.9879 13.3065 16.1191 13.5814 16.2456H13.5814L13.5814 16.2456C14.4088 16.6262 15.1424 16.9637 15.7342 17.3365C16.5399 17.8441 16.7643 18.2262 16.7643 18.5498C16.7643 19.544 15.9599 20.4285 14.3746 20.6692C14.0836 20.7134 13.7725 20.7332 13.4458 20.7254C11.8204 20.6019 10.1055 19.9946 8.67148 18.7721C8.33339 18.4839 7.8253 18.5238 7.5366 18.8613C7.40097 19.0199 7.33789 19.2159 7.34421 19.4091C7.33612 19.653 7.43897 19.8975 7.64403 20.0623C9.53063 21.5782 11.5759 22.2824 13.3788 22.3317C14.3457 22.3997 15.288 22.3246 16.1534 22.1254C17.4654 21.8235 18.6526 21.2241 19.4823 20.3453C20.3273 19.4502 20.7845 18.2769 20.6023 16.9372C20.2477 14.3309 18.1458 13.0808 16.2989 12.2022C15.9136 12.0189 15.5476 11.8551 15.1965 11.698H15.1965L15.1964 11.698C14.6444 11.4509 14.1295 11.2205 13.6348 10.9568C12.8448 10.5358 12.3121 10.1277 12.0286 9.66546C11.5382 8.86573 11.6026 8.17456 11.8843 7.65317C12.1651 7.13355 12.6845 6.74347 13.2325 6.59894C15.1644 6.46805 17.4926 7.25331 19.3219 9.21483C19.6249 9.53964 20.1342 9.5578 20.4596 9.2554C20.785 8.95298 20.8032 8.44449 20.5002 8.11969C18.4134 5.88208 15.707 4.88187 13.3134 4.98487C13.2287 4.97337 13.1406 4.97527 13.052 4.9924C13.0295 4.99674 13.007 5.00133 12.9846 5.00613ZM18.3062 19.2477C18.3077 19.2461 18.3093 19.2445 18.3108 19.243C18.8562 18.6652 19.1175 17.9656 19.007 17.1535C18.7761 15.4561 17.4452 14.5278 15.6063 13.653C15.2971 13.5059 14.9627 13.3558 14.6221 13.2029C14.0249 12.9348 13.4088 12.6583 12.8766 12.3746C12.0217 11.919 11.1705 11.3442 10.6556 10.5046C10.1495 9.67937 9.98633 8.84658 10.0824 8.08325C9.64539 8.64222 9.3795 9.36457 9.3795 10.2612C9.3795 11.2293 9.80125 11.9773 10.5234 12.6371C11.2697 13.3189 12.2962 13.8671 13.4163 14.3965C13.6643 14.5137 13.9197 14.631 14.177 14.7493L14.1772 14.7494H14.1772C15.0303 15.1414 15.9035 15.5427 16.5935 15.9774C17.4744 16.5325 18.3742 17.3326 18.3742 18.5498C18.3742 18.7931 18.3508 19.0259 18.3062 19.2477Z" fill="url(#paint0_radial_762_2776)"/>
<path d="M14.025 29.0718C10.3096 29.0718 6.49749 27.4818 4.38288 26.325C3.75442 25.9812 2.9655 25.8323 2.55745 26.4239C2.11695 27.0626 1.80496 28.0706 1.5935 29.1097C1.27735 30.6634 2.54857 31.9994 4.12293 31.9994H24.1189C25.6646 31.9994 26.9557 30.6986 26.5839 29.1869C26.3473 28.2245 26.0178 27.4845 25.678 26.9371C25.1453 26.0792 24.0512 26.1074 23.1588 26.5716C20.9992 27.6951 17.4822 29.0718 14.025 29.0718Z" fill="black"/>
<defs>
<radialGradient id="paint0_radial_762_2776" cx="0" cy="0" r="1" gradientUnits="userSpaceOnUse" gradientTransform="translate(30.37 -1.24232) rotate(139.803) scale(35.2266 35.2165)">
<stop stop-color="#0790C0"/>
<stop offset="1" stop-color="#5728AA"/>
</radialGradient>
</defs>
</svg>
